<?xml version="1.0" encoding="UTF-8" standalone="no"?>
<!-- Created with Inkscape (http://www.inkscape.org/) -->

<svg
   xmlns:dc="http://purl.org/dc/elements/1.1/"
   xmlns:cc="http://creativecommons.org/ns#"
   xmlns:rdf="http://www.w3.org/1999/02/22-rdf-syntax-ns#"
   xmlns:svg="http://www.w3.org/2000/svg"
   xmlns="http://www.w3.org/2000/svg"
   xmlns:sodipodi="http://sodipodi.sourceforge.net/DTD/sodipodi-0.dtd"
   xmlns:inkscape="http://www.inkscape.org/namespaces/inkscape"
   width="744.09448819"
   height="1052.3622047"
   id="svg3472"
   version="1.1"
   inkscape:version="0.48.4 r9939"
   sodipodi:docname="10x.svg">
  <defs
     id="defs3474" />
  <sodipodi:namedview
     id="base"
     pagecolor="#ffffff"
     bordercolor="#666666"
     borderopacity="1.0"
     inkscape:pageopacity="0.0"
     inkscape:pageshadow="2"
     inkscape:zoom="0.64"
     inkscape:cx="200.34266"
     inkscape:cy="238.36217"
     inkscape:document-units="px"
     inkscape:current-layer="layer1"
     showgrid="false"
     showborder="false"
     inkscape:window-width="1301"
     inkscape:window-height="744"
     inkscape:window-x="65"
     inkscape:window-y="24"
     inkscape:window-maximized="1" />
  <metadata
     id="metadata3477">
    <rdf:RDF>
      <cc:Work
         rdf:about="">
        <dc:format>image/svg+xml</dc:format>
        <dc:type
           rdf:resource="http://purl.org/dc/dcmitype/StillImage" />
        <dc:title />
      </cc:Work>
    </rdf:RDF>
  </metadata>
  <g
     inkscape:label="Layer 1"
     inkscape:groupmode="layer"
     id="layer1">
    <path
       sodipodi:type="arc"
       style="fill:#80e5ff"
       id="path3480"
       sodipodi:cx="395.71429"
       sodipodi:cy="638.07648"
       sodipodi:rx="450"
       sodipodi:ry="437.14285"
       d="m 845.71429,638.07648 a 450,437.14285 0 1 1 -899.999996,0 450,437.14285 0 1 1 899.999996,0 z"
       transform="matrix(0.65624077,0,0,0.67295692,48.53044,250.08475)" />
    <path
       style="fill:none;stroke:#000000;stroke-width:0.66454631px;stroke-linecap:butt;stroke-linejoin:miter;stroke-opacity:1"
       d="m 131.02928,597.76653 c 1.01328,4.15635 0.93749,2.52419 0.93749,4.80683 0,0.32045 -0.22097,0.73477 0,0.96137 0.22096,0.22659 0.71652,-0.2266 0.93749,0 0.44193,0.45319 -0.44194,1.46954 0,1.92273 0.22096,0.2266 0.71651,-0.2266 0.93748,0 0.25652,0.26305 -0.25429,3.32394 0,3.84547 0.39528,0.81069 1.47969,1.11204 1.87497,1.92273 0.13976,0.28662 -0.22096,0.73477 0,0.96137 0.22097,0.2266 0.71653,-0.2266 0.93749,0 0,1.41456 -0.22096,0.73477 0.93749,1.92273 0.3125,0.32046 0.54221,0.75869 0.93749,0.96137 0.2795,0.14331 0.93748,-0.32046 0.93748,0 0,0.32045 -1.24998,0 -0.93748,0 0.62499,0 1.31596,-0.28663 1.87497,0 0.2795,0.14331 -0.22097,0.73477 0,0.96137 0.0301,0.0309 2.5851,0 2.81246,0 0.4222,0 2.52715,0.14629 2.81246,0 0.79056,-0.40535 1.08441,-1.51739 1.87497,-1.92274 1.29313,-0.66303 0.83856,1.16427 1.87497,-0.96136 0.13976,-0.28663 -0.13974,-0.67474 0,-0.96137 0.19764,-0.40535 0.73986,-0.55602 0.9375,-0.96137 0.13974,-0.28662 -0.13976,-0.67474 0,-0.96136 0.39527,-0.8107 1.47969,-1.11204 1.87497,-1.92274 0.2795,-0.57325 -0.44194,-1.46954 0,-1.92273 0.22097,-0.2266 0.71651,0.2266 0.93748,0 0.22097,-0.2266 0,-0.64091 0,-0.96137 0,-0.50272 0.12326,-3.59269 0,-3.84547 -1.03641,-2.12563 -0.58184,-0.29833 -1.87497,-0.96137 -0.39528,-0.20267 -0.54221,-0.75869 -0.93748,-0.96136 -0.27951,-0.14331 -0.71653,0.2266 -0.9375,0 -0.22096,-0.2266 0.22097,-0.73477 0,-0.96137 -0.44193,-0.45319 -1.43303,0.45319 -1.87497,0 -0.22097,-0.2266 0.22097,-0.73477 0,-0.96136 -0.22097,-0.2266 -0.71651,0.22659 -0.93748,0 -0.22097,-0.2266 0.22097,-0.73478 0,-0.96137 -0.46875,-0.48069 -2.34372,0.48068 -2.81246,0 -0.22097,-0.2266 0.22096,-0.73477 0,-0.96137 -0.22097,-0.22659 -0.65799,0.14331 -0.93749,0 -0.39528,-0.20268 -0.54221,-0.75869 -0.93749,-0.96137 -0.559,-0.28662 -1.43303,0.4532 -1.87497,0 -0.22097,-0.2266 0.13975,-0.67474 0,-0.96136 -0.19764,-0.40535 -0.54221,-0.7587 -0.93749,-0.96137 -0.1923,-0.0986 -2.68025,-0.13558 -2.81246,0 -0.22096,0.2266 0.22097,0.73477 0,0.96137 -0.22096,0.22659 -0.93749,-0.32046 -0.93749,0 0,0.37543 1.75664,1.08272 0.93749,1.92273 -0.22096,0.2266 -0.71652,-0.22659 -0.93749,0 -0.0425,0.0436 0,4.35355 0,4.80683 0,0.35305 0.0377,3.80679 0,3.84548 -0.22096,0.22659 -0.71651,-0.2266 -0.93748,0 -0.44194,0.45318 0.44194,1.46953 0,1.92273 -1.24998,1.28182 -0.93749,-1.60228 -0.93749,0.96136"
       id="path3496"
       inkscape:connector-curvature="0" />
    <path
       style="fill:none;stroke:#000000;stroke-width:0.66454631px;stroke-linecap:butt;stroke-linejoin:miter;stroke-opacity:1"
       d="m 395.40056,781.38763 c 1.07453,5.50947 0.22489,3.34533 1.87497,6.72957 0.3125,0.64091 0.71653,1.24294 0.93749,1.92273 0.0988,0.30401 -0.0988,0.65736 0,0.96136 0.22097,0.6798 0.67798,1.25743 0.93749,1.92274 0.36701,0.94089 0.49555,1.97772 0.93749,2.8841 0.19764,0.40535 0.79773,0.53144 0.93748,0.96137 0,4.37642 -0.44193,0.055 0.93749,2.8841 0.13975,0.28662 -0.22097,0.73477 0,0.96137 0.0301,0.0309 2.5851,0 2.81246,0 0.31249,0 0.71652,0.2266 0.93748,0 0.22097,-0.2266 -0.22096,-0.73478 0,-0.96137 0.44194,-0.45319 1.43304,0.45319 1.87498,0 0.22097,-0.2266 0,-0.64091 0,-0.96136 0.3125,0 0.71652,0.22659 0.93749,0 0.22097,-0.2266 -0.22097,-0.73478 0,-0.96138 0.22097,-0.22659 0.64103,0.10134 0.93748,0 0.66291,-0.22659 1.2262,-0.69524 1.87498,-0.96136 1.90571,-0.7817 3.0385,-0.79544 4.68743,-1.92273 0.36771,-0.25139 0.56978,-0.70999 0.93749,-0.96137 -0.54256,-1.5978 2.38236,-0.74084 2.81246,-0.96137 0.24891,-0.12762 2.688,-2.62885 2.81246,-2.8841 0.04,-0.082 0.04,-3.76351 0,-3.84547 -0.19764,-0.40535 -0.73985,-0.55602 -0.93749,-0.96136 -0.2795,-0.57325 0.44194,-1.46954 0,-1.92274 -0.22097,-0.2266 -0.79773,0.28662 -0.93748,0 -0.41926,-0.85987 0,-1.92273 0,-2.8841 0,-5.44775 0.62499,-0.32045 -0.93749,-1.92273 -0.44194,-0.4532 0.2795,-1.34949 0,-1.92274 -1.03642,-2.12564 -0.58185,-0.29833 -1.87498,-0.96137 -1.24521,-0.63846 -0.62975,-1.28426 -1.87497,-1.92273 -0.2795,-0.14331 -0.62499,0 -0.93748,0 -0.3125,0 -0.62499,0 -0.93749,0 -0.3125,0 -0.71652,-0.2266 -0.93749,0 -0.22097,0.2266 0.22097,0.73477 0,0.96137 -0.22097,0.2266 -0.62499,0 -0.93749,0 -0.65205,0 -4.3484,-0.17383 -4.68743,0 -0.39528,0.20267 -0.54221,0.75869 -0.93748,0.96136 -0.55902,0.28663 -1.43304,-0.45319 -1.87498,0 -0.22096,0.2266 0.22097,0.73477 0,0.96137 -0.22559,0.23134 -3.52436,-0.23134 -3.74995,0 -0.22096,0.2266 0.22097,0.73477 0,0.96137 -0.22096,0.22659 -0.71652,-0.2266 -0.93748,0 -0.22097,0.22659 0,0.64091 0,0.96137 -1.56248,0.96136 -3.12496,1.92273 -4.68744,2.8841 z"
       id="path3498"
       inkscape:connector-curvature="0" />
    <path
       style="fill:none;stroke:#000000;stroke-width:0.66454631px;stroke-linecap:butt;stroke-linejoin:miter;stroke-opacity:1"
       d="m 423.52517,467.98197 c 1.87497,0 3.74995,0 5.62492,0 0.62499,0 1.31596,0.28663 1.87497,0 0.27951,-0.14331 0.22097,-0.73477 0,-0.96136 -0.22096,-0.2266 -0.62499,0 -0.93749,0 -0.86248,0 -1.96872,-0.17305 -2.81245,0 -1.26344,0.25912 -2.49218,1.24799 -3.74995,0.96136 -1.77876,-0.40534 -3.05766,-2.04845 -4.68744,-2.8841 -1.66664,-0.85454 -0.52083,0.5341 -0.93749,0.96137 -0.22096,0.2266 -0.71651,-0.2266 -0.93748,0 -0.22097,0.2266 -0.22097,0.73477 0,0.96137 0.22097,0.22659 0.65798,-0.14332 0.93748,0 0.39528,0.20267 0.50157,0.88686 0.93749,0.96136 1.54122,0.26342 3.16217,-0.34758 4.68744,0 1.36424,0.3109 4.37494,0.64091 3.74995,1.92274 -0.62499,1.28182 -3.74995,-0.48961 -3.74995,-1.92274 0,-1.32127 2.55364,-0.47066 3.74995,-0.96136 0.41032,-0.16832 0.62499,-0.64091 0.93748,-0.96137 0.62499,-0.64091 1.24998,-1.28182 1.87497,-1.92273 0.3125,-0.32046 0.69235,-0.58429 0.93749,-0.96137 0.3876,-0.59622 0.54988,-1.32652 0.93749,-1.92274 0.14644,-0.22526 1.65309,-1.1889 0.93749,-1.92273 -0.0937,-0.0961 -2.71872,-0.0961 -2.81247,0 -0.22097,0.2266 0.22097,0.73477 0,0.96137 -0.22097,0.2266 -0.62499,0 -0.93748,0 -0.3125,0 -0.62499,0 -0.93749,0"
       id="path3500"
       inkscape:connector-curvature="0" />
    <path
       style="fill:none;stroke:#000000;stroke-width:0.66454631px;stroke-linecap:butt;stroke-linejoin:miter;stroke-opacity:1"
       d="m 141.34163,761.19892 c 1.24999,0.64091 2.63194,1.06286 3.74995,1.92273 0.25,0.19228 -0.22096,0.73478 0,0.96137 0.44194,0.45319 1.31596,-0.28662 1.87498,0 0.39528,0.20267 0.5422,0.7587 0.93748,0.96137 0.27951,0.14331 0.71653,-0.2266 0.93749,0 0.22097,0.22659 -0.22096,0.73477 0,0.96137 0.0937,0.0961 2.71871,0.0961 2.81246,0 0.0301,-0.031 0,-2.65095 0,-2.88411 0,-0.35305 0.0377,-3.80678 0,-3.84546 -0.22097,-0.2266 -0.71652,0.22659 -0.93748,0 -0.22097,-0.2266 0.22096,-0.73478 0,-0.96137 -0.22097,-0.2266 -0.71653,0.22659 -0.9375,0 -0.22096,-0.2266 0.22097,-0.73477 0,-0.96137 -0.0301,-0.0309 -2.58509,0 -2.81245,0 -0.3125,0 -0.62499,0 -0.93749,0 -0.31249,0 -0.69347,-0.20019 -0.93749,0 -1.38037,1.13243 -2.49996,2.56365 -3.74995,3.84547 z"
       id="path3502"
       inkscape:connector-curvature="0" />
    <path
       style="fill:#0066ff;stroke:#000000;stroke-width:0.66454631px;stroke-linecap:butt;stroke-linejoin:miter;stroke-opacity:1"
       d="m 514.46139,672.75315 c 1.24998,1.28182 2.49996,2.56365 3.74995,3.84547 0.31249,0 0.65798,-0.14332 0.93748,0 0.39528,0.20267 0.54221,0.7587 0.93749,0.96137 0.559,0.28662 1.43304,-0.4532 1.87497,0 0.22097,0.22659 0.3125,0.96137 0,0.96137 -0.31249,0 -0.31249,-0.96137 0,-0.96137 0.3125,0 0.3125,0.96137 0,0.96137 -1.87316,0 -0.37891,-2.31131 -0.93748,-2.88411 -1.93969,-1.9891 0.0758,3.03961 -1.87498,-0.96136 -0.2795,-0.57325 0.27951,-1.34949 0,-1.92274 -0.19764,-0.40535 -0.73984,-0.55601 -0.93748,-0.96136 -0.27951,-0.57325 0.559,-2.20936 0,-1.92274 -1.39753,0.71656 -3.05119,4.31723 -3.74995,2.8841 -0.81489,-1.67129 2.13573,-3.07192 2.81246,-4.80683 0.11606,-0.29754 -0.77671,-0.27479 -0.93749,0 -0.86581,1.47978 -1.17861,3.23581 -1.87497,4.80683 -0.86745,1.957 -1.77242,3.90176 -2.81246,5.76821 -0.21926,0.39347 -0.79774,0.53142 -0.93749,0.96136 -0.19764,0.60803 0.15158,1.30096 0,1.92273 -0.16948,0.69517 -0.76801,1.22757 -0.93749,1.92274 -0.15158,0.62178 0.15159,1.30096 0,1.92274 -0.16947,0.69516 -0.76801,1.22756 -0.93748,1.92273 -0.22738,0.93266 0,1.92273 0,2.8841 0,0.32045 -0.22097,0.73477 0,0.96137 0.22097,0.22659 0.71652,-0.2266 0.93748,0 0.22097,0.22659 -0.22096,0.73477 0,0.96137 0.0937,0.0961 2.71872,0.0961 2.81247,0 0.22097,-0.2266 -0.22097,-0.73478 0,-0.96137 0.22097,-0.2266 0.71651,0.22659 0.93748,0 0.46874,-0.48069 -0.46874,-2.40342 0,-2.88411 0.22097,-0.22659 0.71652,0.2266 0.93749,0 0.44194,-0.45319 -0.44193,-1.46954 0,-1.92273 0.44194,-0.45319 1.43304,0.45319 1.87497,0 0.22097,-0.2266 0,-0.64091 0,-0.96136 0,-0.32046 0,-0.64091 0,-0.96137 0,-1.60228 0,-3.20456 0,-4.80684 0,-0.64091 0.19764,-1.31471 0,-1.92273 -0.53216,-1.63715 -3.06492,-3.58658 -1.87497,-4.80684 1.10484,-1.13298 2.41013,2.05974 3.74995,2.8841 1.56247,0.96137 0.62499,-0.64091 0.93748,-0.96136 0.0937,-0.0961 2.71871,-0.0961 2.81246,0 0.22097,0.22659 -0.22097,0.73476 0,0.96136 0.22097,0.2266 0.71652,-0.2266 0.93749,0 0.22097,0.2266 0,0.64091 0,0.96137 0,0.23316 0.0302,2.85319 0,2.8841 -0.22097,0.2266 -0.71652,-0.2266 -0.93749,0 -0.44193,0.45319 0.27951,1.34949 0,1.92273 -0.19764,0.40535 -0.73984,0.55602 -0.93748,0.96137 -0.13976,0.28663 0.13975,0.67475 0,0.96137 -0.19764,0.40535 -0.73985,0.55602 -0.93749,0.96137 -0.13975,0.28662 0.22097,0.73477 0,0.96137 -0.0377,0.0387 -3.40567,0 -3.74995,0 -0.3125,0 -0.71652,0.22659 -0.93749,0 -0.22097,-0.2266 0,-0.64091 0,-0.96137"
       id="path3504"
       inkscape:connector-curvature="0" />
    <path
       style="fill:#0066ff"
       d="m 401.31753,796.14367 c -0.98996,-2.28162 -2.56713,-6.25771 -3.50482,-8.83574 l -1.70488,-4.68734 3.08821,-2.58468 c 1.69852,-1.42157 4.83464,-3.0667 6.96915,-3.65582 9.39417,-2.59281 11.89436,-2.09087 13.1522,2.64041 0.35089,1.31985 1.11203,4.02026 1.69143,6.00091 0.90462,3.09239 0.81323,3.87338 -0.64686,5.52786 -0.93517,1.05967 -2.23258,1.92668 -2.88312,1.92668 -0.65055,0 -1.32343,0.34036 -1.4953,0.75636 -0.24285,0.58781 -7.53522,4.62574 -12.20261,6.75683 -0.36491,0.16662 -1.47345,-1.56384 -2.4634,-3.84547 z"
       id="path3506"
       inkscape:connector-curvature="0" />
    <path
       style="fill:#0066ff"
       d="m 147.08107,763.52495 c -4.30454,-2.66914 -4.19535,-2.50744 -2.83126,-4.19293 2.64165,-3.26408 6.96558,-0.72615 6.41458,3.76503 l -0.30212,2.4625 -3.2812,-2.0346 z"
       id="path3510"
       inkscape:connector-curvature="0" />
    <path
       style="fill:#0066ff"
       d="m 140.36168,614.79582 c -0.85977,-0.3594 -2.48587,-1.8607 -3.61355,-3.33624 -1.69872,-2.2227 -1.88508,-3.12947 -1.08672,-5.28751 0.52999,-1.43261 1.15741,-4.68104 1.39427,-7.21872 0.45243,-4.84732 1.2506,-6.53922 2.3421,-4.96455 0.35868,0.51745 3.49976,2.44712 6.98017,4.28816 3.54321,1.87426 6.33512,3.98643 6.34411,4.79954 0.0309,2.79614 -4.256,10.26765 -6.53101,11.38257 -2.5414,1.24549 -3.52019,1.30203 -5.82937,0.33675 l 0,0 z"
       id="path3512"
       inkscape:connector-curvature="0" />
    <path
       style="fill:#d7eef4"
       d="M 287.70409,972.6225 C 243.16049,968.4924 209.17632,958.8639 172.86195,940.085 114.12203,909.7093 67.798735,861.45572 40.351316,802.05255 22.208418,762.78673 13.762855,723.86399 13.762855,679.51532 c 0,-46.41761 8.811534,-85.26972 28.780615,-126.90045 24.068456,-50.17693 62.73128,-93.19984 110.16252,-122.58576 12.09142,-7.49121 36.73706,-19.79374 48.84188,-24.38073 21.91041,-8.30272 44.40154,-14.00922 69.28146,-17.57824 16.39861,-2.35239 58.39788,-2.34435 74.99894,0.0143 33.95687,4.82464 63.34553,13.67251 91.76048,27.62579 71.39712,35.05987 125.64697,96.7838 150.42974,171.15465 11.07341,33.23035 15.32221,62.9299 14.40008,100.65819 -0.55364,22.65129 -1.71393,33.2233 -5.74271,52.32457 -17.73562,84.08809 -71.80204,156.40581 -147.75599,197.63423 -32.71011,17.7554 -66.63861,28.5441 -106.3728,33.8252 -7.83317,1.041 -47.53213,1.9932 -54.84298,1.3154 l 0,0 z M 411.36883,798.00381 c 9.55725,-5.11244 10.10308,-5.44975 11.38828,-7.03777 0.98841,-1.2213 1.01222,-2.36814 0.12011,-5.78857 -0.61189,-2.34603 -1.11251,-5.09508 -1.11251,-6.10899 0,-1.01391 -1.26227,-2.76518 -2.80505,-3.89173 -2.31336,-1.68921 -3.58689,-1.93803 -7.26552,-1.41953 -6.26084,0.88246 -10.52218,2.43627 -14.11259,5.14586 -3.52812,2.6626 -3.49479,4.10122 0.31415,13.56099 1.17358,2.91467 2.37041,6.05647 2.65961,6.98179 0.78927,2.5252 4.2631,2.06195 10.81352,-1.44205 z M 152.70599,762.86585 c 0,-4.56945 -1.32257,-5.96048 -5.66712,-5.96048 -3.65046,0 -7.61543,3.14234 -5.98244,4.74122 1.95431,1.91351 7.56807,4.74046 9.54021,4.80424 1.82908,0.0592 2.10935,-0.41719 2.10935,-3.58498 l 0,0 z m 362.02604,-73.30223 c 0.69658,-2.04911 1.77033,-3.08894 3.57102,-3.45826 4.51421,-0.92583 7.64645,-10.5602 3.7711,-11.59944 -1.11736,-0.29964 -2.18438,-1.72121 -2.6373,-3.51365 -0.41839,-1.65573 -1.45556,-3.14764 -2.30483,-3.31536 -2.80497,-0.55394 -10.31552,19.27008 -8.81742,23.27352 0.32399,0.86578 1.6408,1.54335 2.99944,1.54335 1.85661,0 2.65441,-0.68394 3.41799,-2.93016 l 0,0 z M 148.57246,614.84201 c 2.84951,-2.41466 6.0085,-8.23447 6.0085,-11.0694 0,-1.78261 -0.93046,-3.04159 -3.40871,-4.61225 -6.24179,-3.95591 -12.46545,-6.8022 -14.14728,-6.47006 -1.79261,0.35402 -1.83828,0.51477 -2.01404,7.0883 -0.12756,4.77095 -1.48126,4.99787 -2.46327,0.41291 -0.33844,-1.58018 -1.03213,-2.87307 -1.54153,-2.87307 -0.5094,0 -0.72841,0.75708 -0.4867,1.6824 2.45772,9.40866 3.34852,11.57916 5.89124,14.35444 2.34837,2.56314 3.63875,3.1863 6.56241,3.16912 2.03925,-0.012 4.50102,-0.75165 5.59938,-1.68239 z m 279.41563,-144.9047 c 0.2968,-0.79313 1.33822,-1.44205 2.3143,-1.44205 0.97606,0 1.77467,-0.43261 1.77467,-0.96137 0,-0.52875 -0.65427,-0.96136 -1.45394,-0.96136 -1.12671,0 -0.91573,-0.72361 0.93749,-3.21519 1.31528,-1.76836 2.39143,-3.49881 2.39143,-3.84547 0,-0.83286 -3.15254,-0.80528 -5.31388,0.0465 -1.53016,0.60302 -1.47827,0.73472 0.47612,1.20866 l 2.1934,0.5319 -2.383,2.6368 c -2.73249,3.02352 -5.26538,3.32423 -8.6792,1.03043 -2.03744,-1.36899 -2.51533,-1.4045 -3.23386,-0.24034 -1.33635,2.16516 -1.04483,2.73401 1.70625,3.32945 1.41796,0.3069 3.63277,1.16887 4.92181,1.91547 3.00247,1.73902 3.68713,1.73375 4.34841,-0.0334 l 0,0 z"
       id="path3516"
       inkscape:connector-curvature="0" />
    <path
       style="fill:#d7eef4"
       d="M 271.73368,970.4139 C 232.59476,964.8712 205.06659,956.0934 170.99154,938.2908 131.59683,917.709 97.068238,888.10022 70.833121,852.4036 27.081402,792.87314 8.2287332,722.29445 15.920904,646.82884 c 5.074548,-49.78487 24.623411,-99.02387 56.488912,-142.28232 10.580959,-14.36399 38.573714,-43.29804 52.350604,-54.11096 41.85278,-32.84857 87.54337,-52.5172 142.31896,-61.26467 13.33033,-2.12881 52.01899,-2.9912 68.23412,-1.52098 58.32002,5.28787 113.14587,27.84817 160.03973,65.85478 11.72565,9.50342 36.24854,34.62567 45.60115,46.71568 33.70548,43.57068 54.70187,95.80387 59.84327,148.87341 1.24506,12.85151 1.23963,47.6183 -0.01,61.12692 -1.93185,20.89114 -8.07036,47.35125 -16.0716,69.27679 -32.9176,90.20305 -109.32627,159.59361 -202.03485,183.47791 -26.58349,6.8487 -38.85957,8.3956 -70.13416,8.8379 -23.822,0.3368 -30.06585,0.1227 -40.81382,-1.3994 l 2e-5,0 z M 413.11377,797.36201 c 11.15125,-5.79711 10.86509,-5.43858 10.05483,-12.59764 -0.84318,-7.45 -4.02233,-11.51576 -9.00454,-11.51576 -5.03474,0 -13.59942,2.91474 -16.92141,5.7587 -3.08892,2.64443 -3.10451,2.69972 -1.97896,7.0152 0.62396,2.39238 2.17818,6.76987 3.4538,9.72776 2.88964,6.70041 4.30331,6.85868 14.39628,1.61174 z M 152.70599,762.86585 c 0,-4.56107 -1.32258,-5.96048 -5.63323,-5.96048 -4.4521,0 -7.39177,2.15357 -6.03703,4.42264 1.293,2.16565 6.85664,5.19103 9.54629,5.19103 1.83435,0 2.12397,-0.49816 2.12397,-3.65319 z m 362.28042,-72.81927 c 0.86,-1.34596 2.62763,-2.94433 3.92808,-3.55194 4.3817,-2.04729 6.6077,-9.73266 3.56823,-12.31944 -0.80742,-0.68718 -2.08386,-2.47061 -2.83653,-3.96319 -1.91066,-3.78891 -3.75961,-3.38734 -6.10433,1.32579 -4.30166,8.64671 -6.67861,18.49462 -4.90337,20.31506 1.43918,1.47586 4.87557,0.49804 6.34792,-1.80628 z M 150.44855,613.1532 c 3.32069,-3.61064 5.00667,-9.35272 3.49578,-11.90588 -1.3995,-2.36491 -13.61154,-8.74801 -16.23812,-8.48749 -2.01355,0.19972 -2.38556,0.77419 -2.64075,4.07793 -0.36687,4.74994 -1.60438,6.26424 -2.41444,2.95449 -0.6286,-2.56836 -2.44471,-3.44663 -2.44471,-1.18226 0,3.09924 4.00351,12.81447 6.28855,15.26029 1.99995,2.14067 3.33259,2.6755 6.66659,2.6755 3.55432,0 4.62571,-0.4988 7.2871,-3.39258 l 0,0 z M 428.84608,470.02315 c 0.72739,-0.74592 1.85739,-1.57822 2.51112,-1.84955 0.92291,-0.38305 0.93481,-0.67838 0.0532,-1.32115 -0.85797,-0.62557 -0.6877,-1.5242 0.69694,-3.67831 2.4274,-3.7763 2.32979,-4.29255 -0.81156,-4.29255 -3.39824,0 -4.29797,0.93632 -2.32286,2.41734 1.40117,1.05066 1.30727,1.33129 -0.9538,2.85055 -1.69929,1.14178 -3.33873,1.47706 -5.08434,1.03981 -5.02561,-1.25885 -6.32629,-1.09973 -6.32629,0.77391 0,1.23188 1.32198,2.33037 4.21869,3.50544 5.32216,2.15899 6.38271,2.23233 8.01885,0.55451 z"
       id="path3518"
       inkscape:connector-curvature="0" />
    <path
       style="fill:none;stroke:#000000;stroke-width:0.66454631px;stroke-linecap:butt;stroke-linejoin:miter;stroke-opacity:1"
       d="m 204.15325,641.02804 c -2.05762,9.68274 3.39898,1.56283 4.68743,2.8841 0.22097,0.2266 -0.22096,0.73477 0,0.96137 0.22097,0.22659 0.71653,0.22659 0.9375,0 0.22096,-0.2266 -0.3125,-0.96137 0,-0.96137 0.31249,0 0.31249,0.96137 0,0.96137 -1.15846,0 -0.9375,-1.34819 -0.9375,-1.92274"
       id="path3520"
       inkscape:connector-curvature="0" />
    <path
       style="fill:none;stroke:#000000;stroke-width:0.66454631px;stroke-linecap:butt;stroke-linejoin:miter;stroke-opacity:1"
       d="m 329.77649,547.77544 c 0.62499,1.28182 3.12495,3.20456 1.87497,3.84547 -1.24998,0.64091 -2.86317,-4.85884 -1.87497,-3.84547 1.28845,1.32127 1.67417,3.34773 2.81245,4.80683 0.39043,0.50047 1.43304,-0.45319 1.87498,0 0.22096,0.2266 -0.22097,0.73477 0,0.96137 0.22096,0.2266 0.65798,-0.14331 0.93749,0 0.24407,0.12514 1.14211,1.71289 1.87497,0.96137 0.22097,-0.2266 0.31249,-0.96137 0,-0.96137 -0.44193,0 -0.93749,1.41456 -0.93749,0.96137 0,-0.71656 0.71652,-1.24295 0.93749,-1.92274 0.28124,-0.86522 -0.28125,-2.01887 0,-2.88409 0.22097,-0.6798 0.71652,-1.24296 0.93749,-1.92274 0.19668,-0.60509 0,-3.94029 0,-4.80683 0,-0.32047 0,-0.64092 0,-0.96138 0,-0.32045 0.22096,-0.73476 0,-0.96136 -0.0301,-0.0309 -2.5851,0 -2.81246,0 -0.22737,0 -2.78231,-0.0309 -2.81247,0 -0.22096,0.2266 0.22097,0.73477 0,0.96136 -0.22096,0.2266 -0.65798,-0.14331 -0.93748,0 -1.83485,0.9408 -1.67777,4.75708 -1.87497,5.76821 z"
       id="path3522"
       inkscape:connector-curvature="0" />
    <path
       style="fill:none;stroke:#000000;stroke-width:0.66454631px;stroke-linecap:butt;stroke-linejoin:miter;stroke-opacity:1"
       d="m 191.96592,477.59565 c 1.24999,-0.96137 2.49997,-1.92274 3.74995,-2.88411 0,-0.32045 -0.13975,-0.67474 0,-0.96136 0.39528,-0.8107 1.4797,-1.11204 1.87498,-1.92274 0.13975,-0.28662 0,-0.64091 0,-0.96136 0,-0.32046 0.22096,-0.73478 0,-0.96137 -0.22097,-0.2266 -0.71653,0.22659 -0.93749,0 -0.22097,-0.2266 0.22096,-0.73477 0,-0.96136 -0.0377,-0.0387 -3.40567,0 -3.74995,0 -0.3125,0 -0.62499,0 -0.93749,0 -0.31249,0 -0.71652,-0.2266 -0.93748,0 -0.22097,0.22659 0.22096,0.73476 0,0.96136 -1.24998,1.28182 -0.93749,-1.60228 -0.93749,0.96137 0,5.44775 0,-6.40912 0,-0.96137 0,4.5685 -0.42418,2.97551 1.87497,7.69094 z"
       id="path3524"
       inkscape:connector-curvature="0" />
    <path
       style="fill:none;stroke:#000000;stroke-width:0.66454631px;stroke-linecap:butt;stroke-linejoin:miter;stroke-opacity:1"
       d="m 274.46476,862.14246 c 0.3125,-1.28182 0.72567,-2.54218 0.93749,-3.84547 0.10275,-0.63219 -0.2795,-1.34948 0,-1.92274 0.13975,-0.28662 0.71652,0.2266 0.93749,0 0.22096,-0.22659 0.22096,-0.73476 0,-0.96136 -0.22097,-0.2266 -0.71652,0.2266 -0.93749,0 -0.22097,-0.2266 0.22097,-0.73477 0,-0.96137 -0.0937,-0.0961 -2.71871,-0.0961 -2.81246,0 -0.22097,0.2266 0.22097,0.73477 0,0.96137 -0.44193,0.45319 -1.43304,-0.4532 -1.87497,0 -0.22097,0.2266 -0.3125,0.96136 0,0.96136 0.44193,0 0.93748,-1.41456 0.93748,-0.96136 0,1.01337 -1.63625,2.16754 -0.93748,2.8841 1.89997,1.94837 3.74994,-9.99822 3.74994,3.84547 0,1.86856 -2.13573,3.07192 -2.81246,4.80683 -0.11605,0.29754 0.71652,-0.22659 0.93749,0 0.22097,0.2266 -0.22097,0.73477 0,0.96137 0.22097,0.2266 0.93748,-0.32046 0.93748,0 0,0.32046 -0.62499,0 -0.93748,0"
       id="path3526"
       inkscape:connector-curvature="0" />
    <path
       style="fill:none;stroke:#000000;stroke-width:0.66454631px;stroke-linecap:butt;stroke-linejoin:miter;stroke-opacity:1"
       d="m 386.02569,892.9062 c 1.56248,0 3.12496,0 4.68744,0 0.31249,0 0.71652,-0.22659 0.93748,0 0.22097,0.2266 -0.22096,0.73477 0,0.96137 0.0302,0.0309 2.5851,0 2.81247,0 0.31249,0 0.62499,0 0.93748,0 0.3125,0 0.71652,0.22659 0.93749,0 0.0377,-0.0387 0,-3.49242 0,-3.84547 0,-1.28182 0,-2.56364 0,-3.84546 0,-0.32047 0.22097,-0.73478 0,-0.96138 -0.22097,-0.22659 -0.62499,0 -0.93749,0 -0.34427,0 -3.71222,-0.0387 -3.74995,0 -0.22096,0.2266 0.22097,0.73478 0,0.96138 -0.22096,0.22659 -0.71651,-0.2266 -0.93748,0 -0.22097,0.22659 0,0.64091 0,0.96136 0,0.32046 0,0.64091 0,0.96137 0,0.32045 -0.22097,0.73477 0,0.96136 0.22097,0.2266 0.65798,-0.14331 0.93748,0 0.39528,0.20268 0.54222,0.7587 0.93749,0.96137 0.55901,0.28663 1.43304,-0.45319 1.87498,0 0.44193,0.4532 -0.44194,1.46954 0,1.92273 0.22096,0.2266 0.71651,-0.22659 0.93748,0 0.22097,0.2266 -0.22097,0.73478 0,0.96137 0.22097,0.2266 0.71652,-0.22659 0.93749,0 0.92481,0.94837 -1.92098,1.92274 0.93748,1.92274"
       id="path3528"
       inkscape:connector-curvature="0" />
    <path
       style="fill:#0066ff;stroke:#000000;stroke-width:0.66454631px;stroke-linecap:butt;stroke-linejoin:miter;stroke-opacity:1"
       d="m 270.71482,615.07113 c 1.24998,0.32045 2.49996,0.64091 3.74994,0.96137 0.3125,0.32045 0.54221,0.75869 0.93749,0.96137 0.55901,0.28662 1.31596,-0.28663 1.87497,0 0.79056,0.40534 1.08442,1.51738 1.87498,1.92273 0.2795,0.14331 0.62499,0 0.93748,0 0.3125,0 0.71652,0.2266 0.93749,0 0.22097,-0.2266 -0.3125,-0.96137 0,-0.96137 0.31249,0 0,1.28183 0,0.96137 0,-1.60228 0,-3.20456 0,-4.80684 0,-0.32045 0.22097,-0.73477 0,-0.96136 -0.22097,-0.2266 -0.62499,0 -0.93749,0 -0.31249,0 -0.62499,0 -0.93748,0 -1.58731,0 -8.43738,-0.55926 -8.43738,1.92273 0,1.28182 2.49996,0 3.74994,0"
       id="path3530"
       inkscape:connector-curvature="0" />
    <path
       style="fill:#0066ff"
       d=""
       id="path3532"
       inkscape:connector-curvature="0" />
    <path
       style="fill:none;stroke:#000000;stroke-width:0.66454631px;stroke-linecap:butt;stroke-linejoin:miter;stroke-opacity:1"
       d="m 252.90257,745.81705 c 1.24998,0.64091 2.49996,1.28182 3.74995,1.92273 0,0.32046 -0.22097,0.73477 0,0.96137 0.22096,0.22659 0.71651,-0.2266 0.93748,0 0.22097,0.22659 -0.22097,0.73476 0,0.96136 0.22097,0.2266 0.71652,-0.2266 0.93749,0 0.22097,0.2266 -0.22097,0.73478 0,0.96137 0.44194,0.4532 1.43304,-0.45319 1.87497,0 0.22097,0.2266 -0.22096,0.73477 0,0.96137 0.22097,0.22659 0.62499,0 0.93748,0 0.3125,0 0.71653,0.22659 0.9375,0 0.64656,-0.66304 -0.69342,-1.79759 -0.9375,-1.92274 -0.58118,-0.29799 -4.3454,0.2806 -4.68742,0 -1.38038,-1.13242 -2.03499,-4.28512 -3.74995,-3.84546 -1.51583,0.3886 1.56247,4.80683 0,4.80683 -1.56248,0 0,-6.40911 0,-4.80683 0,1.92273 0,3.84546 0,5.7682 0,0.32046 0.31249,0.96137 0,0.96137 -0.3125,0 0,-1.28183 0,-0.96137 0,0.64091 -0.27951,1.34948 0,1.92273 0.024,0.0493 2.72832,0.0863 2.81246,0 0.44193,-0.45319 -0.44194,-1.46954 0,-1.92273 0.22096,-0.2266 0.71652,0.22659 0.93749,0 0.44193,-0.45319 -0.44194,-1.46954 0,-1.92274 0.22096,-0.2266 0.71651,0.2266 0.93748,0 0.46874,-0.48068 -0.46875,-2.40342 0,-2.8841 0.22097,-0.22659 0.62499,0 0.93749,0"
       id="path3538"
       inkscape:connector-curvature="0" />
    <path
       style="fill:none;stroke:#000000;stroke-width:0.66454631px;stroke-linecap:butt;stroke-linejoin:miter;stroke-opacity:1"
       d="m 468.52453,548.7368 c 1.69106,0.11141 0.57566,6.57779 0.93749,7.69095 2.26354,6.96357 -0.27028,-1.51571 1.87497,2.88409 0.13975,0.28663 -0.13975,0.67474 0,0.96137 0.19764,0.40535 0.73985,0.55602 0.93749,0.96137 0.13975,0.28662 -0.22097,0.73477 0,0.96136 0.0377,0.0387 3.40567,0 3.74995,0 0.22736,0 2.78231,0.031 2.81246,0 0.22096,-0.22659 0,-0.64091 0,-0.96136 0,-0.32046 0.13975,-0.67474 0,-0.96137 -0.19764,-0.40535 -0.73985,-0.55602 -0.93749,-0.96137 -0.2795,-0.57325 0.44194,-1.46954 0,-1.92273 -0.22096,-0.2266 -0.71652,0.22659 -0.93749,0 -0.22096,-0.2266 0.22097,-0.73477 0,-0.96136 -0.46874,-0.48069 -2.34371,0.48067 -2.81245,0 -0.22097,-0.2266 0.22096,-0.73478 0,-0.96138 -0.22559,-0.23133 -3.52437,0.23134 -3.74995,0 -0.22097,-0.22659 0.22096,-0.73477 0,-0.96136 -0.44194,-0.45319 -1.87498,0.64091 -1.87498,0 0,-0.32046 0.62499,0 0.93749,0 0.93749,0 1.87497,0 2.81246,0"
       id="path3540"
       inkscape:connector-curvature="0" />
    <path
       style="fill:#2a7fff;stroke:#000000;stroke-width:0.66454631px;stroke-linecap:butt;stroke-linejoin:miter;stroke-opacity:1"
       d="m 238.84026,538.16177 c 1.87498,0 3.74995,0 5.62493,0 0.31249,0 0.71651,-0.2266 0.93748,0 0.22097,0.2266 -0.22097,1.18796 0,0.96137 0.4941,-0.50669 0.54989,-1.32652 0.93749,-1.92274 0.24514,-0.37708 0.73984,-0.55602 0.93748,-0.96136 0.13976,-0.28663 -0.22096,-0.73478 0,-0.96138 0.22097,-0.22659 0.71653,0.2266 0.93749,0 0.4941,-0.50668 0.44339,-1.41604 0.93749,-1.92273 0.22096,-0.2266 0.67747,0.17776 0.93749,0 0.73542,-0.50277 1.24998,-1.28182 1.87497,-1.92273 0.31249,-0.32045 0.73985,-0.55602 0.93749,-0.96137 0.13975,-0.28662 -0.22097,-0.73477 0,-0.96136 0.22096,-0.2266 0.71652,0.22659 0.93748,0 0.22097,-0.2266 0,-0.64092 0,-0.96137 0,-0.32046 0.22097,-0.73477 0,-0.96137 -0.0301,-0.0309 -2.58509,0 -2.81246,0 -0.42411,0 -5.37508,-0.1281 -5.62492,0 -0.39528,0.20267 -0.5422,0.75869 -0.93748,0.96137 -0.55902,0.28662 -1.31597,-0.28662 -1.87498,0 -0.39528,0.20267 -0.54221,0.75869 -0.93749,0.96137 -0.559,0.28662 -1.43303,-0.4532 -1.87497,0 -0.22097,0.22659 0.22097,0.73477 0,0.96136 -0.22097,0.2266 -0.71652,-0.22659 -0.93749,0 -0.22097,0.2266 0,0.64092 0,0.96137 0,0.32046 -0.22097,0.73477 0,0.96137 0.22097,0.22659 0.71652,-0.2266 0.93749,0 0.22097,0.22659 -0.22097,0.73476 0,0.96136 0.22097,0.2266 0.62499,0 0.93749,0 2.18747,0 4.37494,0 6.5624,0 0.3125,0 0.62499,0 0.93749,0 0.31249,0 0.71652,-0.2266 0.93749,0 1.28675,1.31953 -1.65439,0.96137 -1.87498,0.96137"
       id="path3542"
       inkscape:connector-curvature="0" />
    <path
       style="fill:#2a7fff"
       d="m 471.85627,558.73688 -1.51837,-3.01099 2.66615,0.66019 c 2.5305,0.62659 5.00986,2.89528 5.00986,4.58416 0,0.42769 -1.04383,0.77762 -2.31964,0.77762 -1.65092,0 -2.75736,-0.86803 -3.838,-3.01098 z"
       id="path3544"
       inkscape:connector-curvature="0" />
    <path
       style="fill:#2a7fff"
       d=""
       id="path3546"
       inkscape:connector-curvature="0" />
    <path
       style="fill:#2a7fff"
       d=""
       id="path3550"
       inkscape:connector-curvature="0" />
    <path
       style="fill:#2a7fff"
       d=""
       id="path3552"
       inkscape:connector-curvature="0" />
    <path
       style="fill:#2a7fff"
       d=""
       id="path3554"
       inkscape:connector-curvature="0" />
    <path
       style="fill:#2a7fff"
       d="m 334.57844,552.37171 c -1.55924,-0.32566 -3.74995,-4.48804 -3.74995,-7.12493 0,-1.78961 2.62214,-3.68763 5.09454,-3.68763 1.05381,0 1.43657,0.88134 1.35695,3.12445 -0.18385,5.17871 -1.17749,8.00644 -2.70154,7.68811 z"
       id="path3556"
       inkscape:connector-curvature="0" />
    <path
       style="fill:#2a7fff"
       d=""
       id="path3558"
       inkscape:connector-curvature="0" />
    <path
       style="fill:#2a7fff"
       d=""
       id="path3562"
       inkscape:connector-curvature="0" />
  </g>
</svg>
