<?xml version="1.0" encoding="UTF-8" standalone="no"?>
<!-- Created with Inkscape (http://www.inkscape.org/) -->

<svg
   xmlns:dc="http://purl.org/dc/elements/1.1/"
   xmlns:cc="http://creativecommons.org/ns#"
   xmlns:rdf="http://www.w3.org/1999/02/22-rdf-syntax-ns#"
   xmlns:svg="http://www.w3.org/2000/svg"
   xmlns="http://www.w3.org/2000/svg"
   xmlns:sodipodi="http://sodipodi.sourceforge.net/DTD/sodipodi-0.dtd"
   xmlns:inkscape="http://www.inkscape.org/namespaces/inkscape"
   width="744.09448819"
   height="1052.3622047"
   id="svg3320"
   version="1.1"
   inkscape:version="0.48.4 r9939"
   sodipodi:docname="45x.svg">
  <defs
     id="defs3322" />
  <sodipodi:namedview
     id="base"
     pagecolor="#ffffff"
     bordercolor="#666666"
     borderopacity="1.0"
     inkscape:pageopacity="0.0"
     inkscape:pageshadow="2"
     inkscape:zoom="0.26988283"
     inkscape:cx="-192.39283"
     inkscape:cy="909.88893"
     inkscape:document-units="px"
     inkscape:current-layer="layer1"
     showgrid="false"
     showborder="false"
     inkscape:window-width="1301"
     inkscape:window-height="744"
     inkscape:window-x="65"
     inkscape:window-y="24"
     inkscape:window-maximized="1" />
  <metadata
     id="metadata3325">
    <rdf:RDF>
      <cc:Work
         rdf:about="">
        <dc:format>image/svg+xml</dc:format>
        <dc:type
           rdf:resource="http://purl.org/dc/dcmitype/StillImage" />
        <dc:title />
      </cc:Work>
    </rdf:RDF>
  </metadata>
  <g
     inkscape:label="Layer 1"
     inkscape:groupmode="layer"
     id="layer1">
    <path
       sodipodi:type="arc"
       style="fill:#000000"
       id="path3328"
       sodipodi:cx="-80"
       sodipodi:cy="503.79074"
       sodipodi:rx="334.28571"
       sodipodi:ry="280"
       d="m 254.28571,503.79074 a 334.28571,280 0 0 1 -0.0212,3.15344"
       sodipodi:start="0"
       sodipodi:end="0.01126252"
       sodipodi:open="true"
       transform="matrix(0.4195916,0,0,0.47725957,310.08529,289.19154)" />
    <path
       sodipodi:type="arc"
       style="fill:#aaeeff"
       id="path3356"
       sodipodi:cx="-464.28571"
       sodipodi:cy="602.36218"
       sodipodi:rx="387.14285"
       sodipodi:ry="378.57144"
       d="m -77.142853,602.36218 a 387.14285,378.57144 0 1 1 -774.285707,0 387.14285,378.57144 0 1 1 774.285707,0 z"
       transform="matrix(0.94719982,0,0,0.92719683,762.86005,-135.85003)" />
    <path
       style="fill:#aaeeff"
       id="path3385"
       d="m 94.983434,302.80999 c -1.28712,7.10998 -1.83042,14.32053 -2.20948,21.52317 -0.26051,5.64616 -0.28239,11.2989 -0.29354,16.94966 -7.3e-4,5.16045 0.01,10.32089 0.0145,15.48133 0.004,5.15434 0.006,10.30868 0.006,15.46301 2.8e-4,5.16147 1.9e-4,10.32293 1.5e-4,15.48439 0.0955,4.44147 -0.18477,8.89756 0.13212,13.33288 -35.45693,18.83063 -33.93327,27.05799 -36.35371,6.67388 -1.09183,-10.33957 -0.75984,-20.71555 -0.11457,-31.06632 1.10183,-12.9935 1.06342,-26.04442 1.90446,-39.04814 0.45344,-9.55884 2.18772,-18.96569 3.59498,-28.41369 0.75794,-6.5891 1.03072,-13.17617 2.60642,-19.64369 1.23217,-4.88339 3.15533,-9.52138 5.0895,-14.16489 7.52478,-14.5141 26.19483,-26.91014 42.845756,-25.27371 5.6008,-0.16243 9.30641,2.31483 13.49304,5.54161 3.96816,1.86894 7.32504,4.30425 10.25596,7.53153 3.37645,5.24749 4.03226,11.85923 4.85545,17.89606 2.35283,11.3301 3.36264,22.83941 4.57245,34.32944 0.99257,10.34189 2.82782,20.57957 4.09494,30.88973 0.54855,4.87193 0.63738,9.74543 1.64314,14.55395 0,0 -34.46589,18.05729 -34.46589,18.05729 l 0,0 c -1.06621,-4.98063 -1.23687,-9.97011 -1.51597,-15.04607 -0.96861,-10.40241 -2.72225,-20.70417 -3.67846,-31.10467 -1.25214,-11.39964 -2.16986,-22.83929 -4.89452,-34.01427 -0.79441,-5.21589 -1.44333,-11.02756 -4.10789,-15.66083 -2.902266,-2.93562 -6.345896,-4.8707 -9.856146,-7.02594 -3.66787,-2.73852 -7.33094,-3.76746 -12.0101,-3.35972 -14.14428,2.41711 -1.30356,0.44882 30.008796,-17.73886 2.12326,-1.2333 -8.12291,3.37418 -5.5675,4.6512 -2.62513,4.1156 -3.96767,9.00797 -5.550766,13.5725 -2.15114,6.24624 -2.32276,12.76354 -3.04429,19.27144 -1.31942,9.45739 -3.56512,18.78422 -4.03892,28.35097 -1.13358,12.98584 -1.058,26.05338 -2.06097,39.05339 -0.54634,10.06142 -0.80442,20.12343 0.41119,30.15796 2.8305,21.42493 8.03355,6.74149 -33.25356,28.78843 -0.0874,0.0468 0.0521,-0.1882 0.0781,-0.2823 0.29889,-4.48075 0.05,-8.97837 0.13229,-13.4647 3e-5,-5.1613 1.4e-4,-10.32259 -2.1e-4,-15.4839 -4.3e-4,-5.15317 -7.3e-4,-10.30637 -0.006,-15.45955 -0.004,-5.16616 -0.0142,-10.33232 -0.009,-15.49847 0.0171,-5.72965 0.0498,-11.46141 0.33512,-17.18557 0.40232,-7.25854 1.06169,-14.49535 1.84205,-21.7241 0,0 35.11485,-16.89443 35.11485,-16.89443 z"
       inkscape:connector-curvature="0" />
    <path
       style="fill:#2ad4ff;stroke:#000000;stroke-width:0.91328752px;stroke-linecap:butt;stroke-linejoin:miter;stroke-opacity:1"
       d="m 191.18165,291.02941 c -0.89581,14.81258 -8.95506,3.08999 -13.19072,5.16192 -1.11233,0.54411 -1.5258,2.03684 -2.63814,2.58096 -1.046,0.51166 -7.37508,-0.52765 -7.91441,0 -0.62183,0.60832 0.62181,1.97261 0,2.58095 -1.24364,1.21668 -4.03266,-1.21668 -5.27629,0 -0.62182,0.60834 0.62182,1.97262 0,2.58097 -1.24363,1.21666 -4.03266,-1.21668 -5.27629,0 -0.62181,0.60832 0.62182,1.97261 0,2.58095 -0.62181,0.60833 -2.01632,-0.60834 -2.63814,0 -0.62181,0.60833 0.62182,1.97262 0,2.58095 -0.62181,0.60834 -2.01632,-0.60833 -2.63813,0 -1.31908,1.29047 1.31906,6.45239 0,7.74287 -0.62182,0.60834 -2.01634,-0.60833 -2.63815,0 -0.62182,0.60834 0,1.72064 0,2.58096 0,1.82938 0.34105,14.81843 0,15.48575 -0.55617,1.08822 -2.08198,1.49274 -2.63814,2.58096 -0.34105,0.6673 0,13.65635 0,15.48574 0,6.02224 0,12.04446 0,18.06671 0,1.16235 -0.40143,6.95739 0,7.74287 1.58288,3.09716 6.33155,4.64573 7.91442,7.74287 0.39328,0.76949 -0.62181,1.97263 0,2.58096 0.62182,0.60833 2.01633,-0.60833 2.63814,0 0.62182,0.60833 -0.62181,1.97261 0,2.58095 0.62182,0.60834 2.01633,-0.60834 2.63815,0 0.62181,0.60834 -0.62182,1.97261 0,2.58097 0.62181,0.60832 2.01632,-0.60836 2.63814,0 0.62182,0.60832 -0.62182,1.97261 0,2.58095 0.62182,0.60833 1.8516,-0.38476 2.63814,0 1.11234,0.54412 1.52581,2.03684 2.63815,2.58096 0.78654,0.38474 2.01631,-0.60834 2.63813,0 0.62181,0.60833 -0.62182,1.97262 0,2.58096 0.62181,0.60833 2.01633,-0.60834 2.63814,0 0.62182,0.60833 -0.62181,1.97261 0,2.58096 1.24363,1.21666 4.03266,-1.21667 5.27628,0 0.88965,0.87034 -0.88963,4.29155 0,5.1619 1.24365,1.21667 4.03266,-1.21667 5.27628,0 3.51753,3.44129 -4.39689,2.58097 2.63816,2.58097 7.03503,0 -0.8794,-0.86033 2.63814,2.58095 0.62181,0.60833 1.8516,-0.38475 2.63814,0 1.11233,0.54412 1.5258,2.03684 2.63813,2.58095 0.78654,0.38475 2.01632,-0.60832 2.63815,0 0.62182,0.60835 -0.62183,1.97263 0,2.58096 0.62182,0.60834 1.85159,-0.38474 2.63813,0 0.72375,0.35403 4.55255,4.8079 5.2763,5.16192 1.04599,0.51167 7.37509,-0.52763 7.91441,0 0.62182,0.60833 -0.62181,1.97262 0,2.58096 1.24364,1.21667 4.03266,-1.21668 5.27629,0 0.62181,0.60833 -0.62182,1.97262 0,2.58096 0.62181,0.60834 1.75876,0 2.63815,0 0.87936,0 1.75875,0 2.63813,0 7.91442,0 15.82885,0 23.74327,0 0.87939,0 1.75876,0 2.63815,0 0.87938,0 2.01631,0.60834 2.63813,0 0.62181,-0.60834 -0.62182,-1.97263 0,-2.58096 0.62181,-0.60834 2.01632,0.60833 2.63814,0 0.62182,-0.60834 -0.62182,-1.97263 0,-2.58096 0.62182,-0.60834 1.85161,0.38474 2.63814,0 2.59601,-1.26988 7.95656,-9.05396 10.55257,-10.32383 0.78654,-0.38475 2.01632,0.60833 2.63814,0 3.21321,-3.14356 1.23576,-5.7664 5.27628,-7.74288 0.78654,-0.38474 1.8516,0.38476 2.63815,0 1.11233,-0.54411 1.60337,-1.90605 2.63813,-2.58094 1.6361,-1.0671 3.88586,-1.22068 5.27629,-2.58096 0.62181,-0.60834 -0.62181,-1.97263 0,-2.58096 0.62181,-0.60834 1.85159,0.38474 2.63814,0 2.22467,-1.08823 3.0516,-4.07369 5.27628,-5.16191 0.78655,-0.38475 2.01633,0.60832 2.63815,0 0.62181,-0.60836 -0.62182,-1.97263 0,-2.58097 0.62181,-0.60834 2.01632,0.60834 2.63813,0 0.88964,-0.87036 -0.88963,-4.29155 0,-5.16191 0.62181,-0.60834 2.01633,0.60834 2.63815,0 0.62181,-0.60834 0,-1.72064 0,-2.58096 0,-1.21692 -0.11957,-12.78781 0,-12.90478 0.62181,-0.60835 2.01632,0.60832 2.63813,0 0.62182,-0.60835 0,-1.72064 0,-2.58096 0,-4.30161 0,-8.6032 0,-12.9048 0,-0.86032 0.62182,-1.97261 0,-2.58095 -0.62181,-0.60834 -2.01632,0.60834 -2.63813,0 -0.63483,-0.62106 0.63481,-9.70277 0,-10.32383 -0.62182,-0.60834 -2.01634,0.60834 -2.63815,0 -0.87942,-0.86036 0.87942,-4.30156 0,-5.16191 -0.62181,-0.60834 -2.01632,0.60833 -2.63813,0 -0.62182,-0.60834 0.62181,-1.97263 0,-2.58096 -0.62182,-0.60835 -2.01633,0.60833 -2.63815,0 -0.88964,-0.87035 0.88964,-4.29157 0,-5.16192 -0.62181,-0.60834 -2.01632,0.60834 -2.63814,0 -1.24363,-1.21667 0.78654,-3.62293 0,-5.16191 -0.55617,-1.08824 -2.08196,-1.49273 -2.63814,-2.58096 -0.83215,-1.62824 0.83216,-11.27653 0,-12.90479 -0.55617,-1.08822 -2.08198,-1.49273 -2.63814,-2.58095 -0.58697,-1.14848 0.40221,-9.14333 0,-10.32383 -0.39327,-1.15425 -2.24487,-1.42672 -2.63815,-2.58096 -0.55617,-1.63234 0.55618,-3.52958 0,-5.16192 -0.39327,-1.15423 -2.24487,-1.42671 -2.63814,-2.58095 0,-11.74926 1.24364,-0.14761 -2.63813,-7.74288 -0.71559,-1.40014 0.72184,-9.61762 0,-10.32382 -0.62183,-0.60834 -2.01633,0.60833 -2.63815,0 -3.51752,-3.44129 4.39691,-2.58097 -2.63813,-2.58097 -1.31954,0 -11.07966,0 -5.27629,0 4.17951,0 10.27405,-0.76948 0,2.58097 -1.02657,0.33477 -7.50501,-0.40055 -7.91443,0 -0.62181,0.60833 0.87939,2.58096 0,2.58096 -1.24362,0 -1.5258,-2.03686 -2.63814,-2.58096 -0.95404,-0.46669 -11.35576,0 -13.1907,0 -0.87938,0 -2.01633,-0.60834 -2.63814,0 -0.62182,0.60833 0.62181,1.97261 0,2.58096 -0.11957,0.11697 -11.94683,0 -13.19071,0 -0.87939,0 -2.01632,-0.60835 -2.63814,0 -0.62183,0.60833 0.62182,1.97262 0,2.58095 -0.92603,0.90596 -11.36845,-0.89137 -13.19071,0 -1.11233,0.54411 -1.5258,2.03684 -2.63813,2.58095 -1.04601,0.51167 -7.37509,-0.52764 -7.91443,0 -6.18692,6.05281 8.1278,0 2.63815,0 -6.9038,0 -11.98014,13.51187 -13.19071,15.48575 z"
       id="path3395"
       inkscape:connector-curvature="0" />
    <path
       sodipodi:type="arc"
       style="fill:#0088aa"
       id="path3399"
       sodipodi:cx="-587.14288"
       sodipodi:cy="519.86218"
       sodipodi:rx="18.571428"
       sodipodi:ry="12.5"
       d="m -568.57146,519.86218 a 18.571428,12.5 0 1 1 -37.14285,0 18.571428,12.5 0 1 1 37.14285,0 z"
       transform="matrix(0.92334946,0,0,0.90333511,734.63875,-143.41481)" />
    <path
       style="fill:#55ddff"
       d="m 218.13562,428.43313 c -0.18039,-1.2418 -0.5686,-1.43125 -2.68402,-1.30976 -2.03524,0.11686 -2.47312,-0.0735 -2.47312,-1.0754 0,-1.58198 -0.93438,-1.86602 -4.94651,-1.50366 -3.15557,0.28501 -3.41002,0.18406 -5.90478,-2.34268 -1.43391,-1.45229 -3.11982,-2.64053 -3.74647,-2.64053 -0.6794,0 -1.22442,-0.58607 -1.35009,-1.45179 -0.14349,-0.98844 -0.66069,-1.45179 -1.62045,-1.45179 -0.77533,0 -1.96249,-0.47815 -2.63814,-1.06256 -0.67564,-0.58441 -1.82203,-1.17564 -2.54752,-1.31386 -0.81298,-0.15489 -1.24471,-0.67559 -1.12528,-1.3571 0.14647,-0.83567 -0.27805,-1.10578 -1.73786,-1.10578 -1.35157,0 -2.26847,-0.50289 -3.0532,-1.67455 -0.95847,-1.43111 -1.44325,-1.61554 -3.33449,-1.26841 -2.2095,0.40551 -2.21331,0.4018 -2.41689,-2.35818 -0.20273,-2.74821 -0.21811,-2.76355 -2.63454,-2.62717 -2.0582,0.11617 -2.46241,-0.0816 -2.63814,-1.29048 -0.11414,-0.78521 -0.65271,-1.42766 -1.19682,-1.42766 -0.54412,0 -1.15903,-0.58071 -1.36648,-1.29048 -0.24084,-0.82407 -0.86674,-1.24006 -1.73169,-1.151 -0.74498,0.0767 -1.88262,-0.43139 -2.52808,-1.12917 -0.64544,-0.69775 -1.70049,-1.26865 -2.34452,-1.26865 -0.71223,0 -1.25356,-0.56878 -1.38174,-1.45178 -0.11591,-0.79848 -0.65594,-1.4518 -1.20006,-1.4518 -0.54411,0 -1.15108,-0.5807 -1.3488,-1.29047 -0.19773,-0.70976 -0.79132,-1.29049 -1.31907,-1.29049 -0.52777,0 -1.12853,-0.5807 -1.33502,-1.29047 -0.20649,-0.70975 -0.87428,-1.25015 -1.48396,-1.20085 -0.74226,0.06 -1.1085,-0.39855 -1.1085,-1.38797 0,-1.00308 -1.27072,-2.55453 -3.95722,-4.83143 l -3.9572,-3.35388 0,-20.48382 c 0,-19.66436 0.0528,-20.53053 1.31907,-21.65167 1.19807,-1.06075 1.31907,-1.98733 1.31907,-10.10122 0,-8.37372 0.0792,-8.93335 1.26411,-8.93335 1.6425,0 1.95089,-0.94106 1.53303,-4.67798 -0.31376,-2.80573 -0.22344,-3.0649 1.0682,-3.0649 0.97125,0 1.41094,-0.40214 1.41094,-1.29047 0,-0.86032 0.43969,-1.29047 1.31908,-1.29047 0.87937,0 1.31906,-0.43016 1.31906,-1.29049 0,-1.0754 0.4397,-1.29048 2.63814,-1.29048 2.19844,0 2.63815,-0.21508 2.63815,-1.29047 0,-1.07541 0.43969,-1.29048 2.63814,-1.29048 2.19844,0 2.63814,-0.21508 2.63814,-1.29049 0,-1.14329 0.43968,-1.29048 3.85499,-1.29048 3.01738,0 4.11436,-0.28037 5.04874,-1.29047 1.50934,-1.63166 2.69453,-1.62164 6.57011,0.0555 5.25021,2.27207 6.21256,1.54011 8.55621,-6.50795 0.56839,-1.95186 2.29704,-5.57679 3.84143,-8.05543 2.48322,-3.98535 3.08687,-4.55096 5.21894,-4.89001 1.32603,-0.21086 3.16803,-0.8687 4.09335,-1.46185 0.92532,-0.59315 2.38883,-1.07846 3.25223,-1.07846 0.8634,0 2.107,-0.58071 2.76356,-1.29048 1.0472,-1.13206 2.03135,-1.29048 8.01664,-1.29048 6.38321,0 6.8229,-0.0832 6.8229,-1.29048 0,-1.21878 0.43969,-1.29048 7.91442,-1.29048 7.47474,0 7.91442,-0.0717 7.91442,-1.29048 0,-1.21486 0.4397,-1.29047 7.50423,-1.29047 6.97403,0 7.5715,0.0992 8.45674,1.40351 1.08568,1.59967 3.40692,1.25308 2.75412,-0.41122 -0.32277,-0.82289 0.2665,-0.99229 3.45162,-0.99229 2.11248,0 5.14495,-0.48725 6.73885,-1.08278 2.7127,-1.01353 2.93763,-1.01353 3.51738,0 0.34067,0.59553 1.20073,1.08278 1.91128,1.08278 1.18253,0 1.28532,0.44077 1.21417,5.20651 -0.0668,4.47092 0.11879,5.41119 1.31345,6.65529 0.87294,0.90906 1.39121,2.29744 1.39121,3.72684 0,1.45861 0.4745,2.69815 1.31906,3.44592 0.91928,0.81389 1.3191,1.98731 1.3191,3.87143 0,1.89358 0.39938,3.05719 1.33304,3.88382 1.14136,1.01054 1.31948,1.91153 1.23859,6.26569 -0.0817,4.39888 0.098,5.2859 1.33135,6.57026 1.28516,1.33834 1.40985,2.0965 1.26401,7.68552 -0.14924,5.71837 -0.0424,6.32507 1.37346,7.79952 1.11365,1.15974 1.42274,2.03756 1.12544,3.19637 -0.55999,2.18283 0.12539,3.63581 1.71505,3.63581 1.08266,0 1.26336,0.31747 0.98666,1.73351 -0.45198,2.31315 0.0602,3.4284 1.57459,3.4284 0.80882,0 1.2485,0.45448 1.2485,1.29048 0,0.88401 0.4397,1.29049 1.39596,1.29049 1.15924,0 1.33853,0.29394 1.05724,1.7335 -0.45199,2.31316 0.0602,3.42841 1.57459,3.42841 1.12094,0 1.24851,0.52739 1.24851,5.16192 0,4.73174 0.10992,5.1619 1.31906,5.1619 1.25085,0 1.31907,0.43017 1.31907,8.31643 0,7.52436 -0.10993,8.30788 -1.15419,8.2268 -1.03201,-0.0801 -1.17376,0.7441 -1.33914,7.78678 -0.14906,6.348 -0.36009,7.81066 -1.08747,7.53757 -1.23749,-0.46458 -1.97408,0.90896 -1.80496,3.36573 0.11119,1.61543 -0.10776,2.03274 -1.02849,1.96017 -0.7481,-0.059 -1.24586,0.43113 -1.38084,1.35958 -0.15039,1.0344 -0.65599,1.45179 -1.75862,1.45179 -1.01603,0 -2.261,0.88128 -3.62478,2.56585 -1.43009,1.76651 -2.52541,2.52031 -3.51585,2.41965 -1.04914,-0.10663 -1.49663,0.24968 -1.65291,1.31605 -0.13861,0.94591 -1.13888,1.92375 -2.83252,2.76905 -1.44003,0.71873 -3.1995,1.87544 -3.90993,2.57048 -0.71045,0.69504 -1.99735,1.2637 -2.85981,1.2637 -1.8128,0 -2.85761,1.05968 -4.69749,4.7643 -0.99353,2.00048 -1.75847,2.70558 -3.09951,2.85698 -1.25401,0.1416 -3.17136,1.71051 -6.48468,5.30623 -3.35377,3.63962 -5.10106,5.06375 -6.08657,4.96088 -0.89503,-0.0934 -1.51531,0.31063 -1.75951,1.14618 -0.20745,0.70975 -0.82236,1.29048 -1.36649,1.29048 -0.54411,0 -1.08414,0.6533 -1.20005,1.45178 l -0.21076,1.45179 -16.39663,0 -16.39665,0 -0.21089,-1.45175 z m -15.45966,-93.00934 c 9.61049,-4.60005 9.32656,-14.77053 -0.52477,-18.79746 -8.45833,-3.45752 -19.13021,-1.93522 -24.38681,3.47865 -2.39745,2.46917 -3.07959,7.21681 -1.47347,10.25536 3.56505,6.74461 17.34706,9.38947 26.38505,5.06345 l 0,0 z"
       id="path3404"
       inkscape:connector-curvature="0" />
    <path
       style="fill:#006680"
       d="m 184.62756,335.70647 c -5.16334,-1.74358 -8.58305,-5.43384 -8.58305,-9.26207 0,-8.60809 12.94154,-13.71992 24.61059,-9.72102 5.2544,1.80064 8.35507,5.45198 8.36183,9.84683 0.004,2.46919 -0.35122,3.17504 -2.80378,5.57444 -4.77846,4.67486 -13.85448,6.1725 -21.58559,3.56182 l 0,0 z"
       id="path3406"
       inkscape:connector-curvature="0" />
    <path
       style="fill:#0088aa"
       d="m 188.52321,336.31829 c -8.50462,-1.40751 -13.44933,-6.8661 -11.43634,-12.62491 2.54981,-7.29455 15.55218,-10.31238 24.98274,-5.79846 3.89362,1.86368 5.28071,3.36581 6.29126,6.81303 2.05275,7.00235 -8.9105,13.41877 -19.83766,11.61034 z"
       id="path3408"
       inkscape:connector-curvature="0" />
    <path
       sodipodi:type="arc"
       style="fill:#006680"
       id="path3414"
       sodipodi:cx="-566.07141"
       sodipodi:cy="570.2193"
       sodipodi:rx="1.7857143"
       sodipodi:ry="1.4285715"
       d="m -564.2857,570.2193 a 1.7857143,1.4285715 0 1 1 -3.57143,0 1.7857143,1.4285715 0 1 1 3.57143,0 z"
       transform="matrix(0.92334946,0,0,0.90333511,734.63875,-143.41481)" />
    <path
       sodipodi:type="arc"
       style="fill:#006680"
       id="path3416"
       sodipodi:cx="-531.78571"
       sodipodi:cy="543.79077"
       sodipodi:rx="1.7857143"
       sodipodi:ry="1.4285715"
       d="m -529.99999,543.79077 a 1.7857143,1.4285715 0 1 1 -3.57143,0 1.7857143,1.4285715 0 1 1 3.57143,0 z"
       transform="matrix(0.92334946,0,0,0.90333511,734.63875,-143.41481)" />
    <path
       sodipodi:type="arc"
       style="fill:#006680"
       id="path3418"
       sodipodi:cx="-516.42859"
       sodipodi:cy="503.43362"
       sodipodi:rx="1.4285715"
       sodipodi:ry="1.7857143"
       d="m -515.00002,503.43362 a 1.4285715,1.7857143 0 1 1 -2.85714,0 1.4285715,1.7857143 0 1 1 2.85714,0 z"
       transform="matrix(0.92334946,0,0,0.90333511,734.63875,-143.41481)" />
    <path
       sodipodi:type="arc"
       style="fill:#006680"
       id="path3420"
       sodipodi:cx="-500.35715"
       sodipodi:cy="546.64789"
       sodipodi:rx="2.5"
       sodipodi:ry="2.1428571"
       d="m -497.85715,546.64789 a 2.5,2.1428571 0 1 1 -5,0 2.5,2.1428571 0 1 1 5,0 z"
       transform="matrix(0.92334946,0,0,0.90333511,734.63875,-143.41481)" />
    <path
       sodipodi:type="arc"
       style="fill:#006680"
       id="path3422"
       sodipodi:cx="-531.07141"
       sodipodi:cy="599.50507"
       sodipodi:rx="1.0714285"
       sodipodi:ry="1.4285715"
       d="m -529.99998,599.50507 a 1.0714285,1.4285715 0 1 1 -2.14286,0 1.0714285,1.4285715 0 1 1 2.14286,0 z"
       transform="matrix(0.92334946,0,0,0.90333511,734.63875,-143.41481)" />
    <path
       sodipodi:type="arc"
       style="fill:#006680"
       id="path3424"
       sodipodi:cx="-606.42859"
       sodipodi:cy="563.79077"
       sodipodi:rx="1.4285715"
       sodipodi:ry="0.71428573"
       d="m -605.00002,563.79077 a 1.4285715,0.71428573 0 1 1 -2.85714,0 1.4285715,0.71428573 0 1 1 2.85714,0 z"
       transform="matrix(0.92334946,0,0,0.90333511,734.63875,-143.41481)" />
    <path
       sodipodi:type="arc"
       style="fill:#006680"
       id="path3426"
       sodipodi:cx="-546.78571"
       sodipodi:cy="496.29074"
       sodipodi:rx="1.7857143"
       sodipodi:ry="1.7857143"
       d="m -544.99999,496.29074 a 1.7857143,1.7857143 0 1 1 -3.57143,0 1.7857143,1.7857143 0 1 1 3.57143,0 z"
       transform="matrix(0.92334946,0,0,0.90333511,734.63875,-143.41481)" />
    <path
       sodipodi:type="arc"
       style="fill:#006680"
       id="path3428"
       sodipodi:cx="-565.71429"
       sodipodi:cy="592.36218"
       sodipodi:rx="1.4285715"
       sodipodi:ry="0.71428573"
       d="m -564.28572,592.36218 a 1.4285715,0.71428573 0 1 1 -2.85715,0 1.4285715,0.71428573 0 1 1 2.85715,0 z"
       transform="matrix(0.92334946,0,0,0.90333511,734.63875,-143.41481)" />
    <path
       sodipodi:type="arc"
       style="fill:#006680"
       id="path3430"
       sodipodi:cx="-519.28571"
       sodipodi:cy="571.64789"
       sodipodi:rx="1.4285715"
       sodipodi:ry="1.4285715"
       d="m -517.85713,571.64789 a 1.4285715,1.4285715 0 1 1 -2.85715,0 1.4285715,1.4285715 0 1 1 2.85715,0 z"
       transform="matrix(0.92334946,0,0,0.90333511,734.63875,-143.41481)" />
    <path
       sodipodi:type="arc"
       style="fill:#006680"
       id="path3432"
       sodipodi:cx="-586.42859"
       sodipodi:cy="550.2193"
       sodipodi:rx="1.4285715"
       sodipodi:ry="1.4285715"
       d="m -585.00002,550.2193 a 1.4285715,1.4285715 0 1 1 -2.85714,0 1.4285715,1.4285715 0 1 1 2.85714,0 z"
       transform="matrix(0.92334946,0,0,0.90333511,734.63875,-143.41481)" />
    <path
       style="fill:#d7eef4"
       d="M 297.59043,772.21493 C 200.48115,762.65937 123.64257,728.04126 60.284224,665.30115 -3.6741662,601.96682 -38.663226,522.92965 -42.178786,433.84642 -45.908326,339.34104 -8.1617062,246.83928 62.236254,177.96726 182.93336,59.88638 373.06345,38.798865 518.94077,127.31369 c 55.28258,33.54414 103.75329,85.29969 132.88152,141.88686 13.8158,26.8399 27.08387,67.14917 33.16926,100.77044 3.33133,18.40524 3.32202,87.52355 -0.015,105.85073 -13.60183,74.71956 -47.33321,138.66199 -101.04144,191.53778 -66.20464,65.17853 -155.85023,102.43439 -252.4401,104.91153 -14.54394,0.37303 -29.80132,0.34781 -33.90531,-0.056 l 5.5e-4,0 z m -37.0556,-347.94982 c 4.88809,-4.26597 10.60828,-9.44636 12.71155,-11.51199 2.10327,-2.06562 9.07069,-7.31746 15.48318,-11.67076 6.41247,-4.35328 11.65905,-8.95952 11.65905,-10.23607 0,-1.27655 0.96155,-2.63458 2.13676,-3.01783 3.1576,-1.02971 3.34404,-45.57175 0.19505,-46.60025 -1.28251,-0.41887 -2.33181,-1.88424 -2.33181,-3.25633 0,-1.37212 -1.12408,-3.15151 -2.49797,-3.9542 -3.26396,-1.90698 -6.82927,-12.28257 -6.82927,-19.87421 0,-3.30411 -0.72221,-6.44418 -1.6049,-6.97787 -0.88271,-0.53373 -2.14299,-4.81093 -2.80062,-9.50492 -0.65764,-4.69398 -2.02086,-9.50719 -3.02935,-10.69604 -1.00851,-1.18884 -2.49571,-6.60985 -3.30489,-12.04669 l -1.47122,-9.88517 -18.61167,0.68001 c -10.23646,0.37404 -19.03143,1.29302 -19.54443,2.04218 -0.513,0.74917 -7.43288,1.94992 -15.37749,2.66831 -7.94463,0.71839 -14.91964,2.05788 -15.50004,2.97661 -0.58039,0.91874 -3.04344,1.67044 -5.47341,1.67044 -5.02484,0 -10.96907,6.48543 -13.90442,15.17038 -1.88447,5.57564 -2.40177,5.82742 -12.45408,6.06173 -5.76838,0.13451 -11.01744,1.05032 -11.66458,2.03527 -0.64714,0.98497 -3.27523,2.41406 -5.84022,3.17578 -6.07642,1.80449 -11.78486,7.74001 -10.52732,10.94608 0.54476,1.38887 0.16732,2.79368 -0.83883,3.12177 -1.03923,0.33891 -2.32602,14.12305 -2.97941,31.91585 l -1.15011,31.31932 4.94965,5.75483 c 2.72232,3.16517 4.96811,6.30776 4.99067,6.98358 0.0226,0.6758 3.79827,3.69249 8.39047,6.70377 4.59218,3.01126 8.35126,6.09096 8.3535,6.84379 0.002,0.75282 1.26324,1.36876 2.80223,1.36876 1.53899,0 2.79818,1.15154 2.79818,2.55897 0,1.40746 2.56679,3.43439 5.70397,4.50432 3.13719,1.06993 9.34895,4.35196 13.80392,7.29341 4.45497,2.94144 10.70241,5.90729 13.88322,6.59078 3.1808,0.68349 5.78328,1.99869 5.78328,2.9227 0,0.92398 7.9209,1.67999 17.60198,1.67999 l 17.60196,0 8.88742,-7.7563 0,0 z"
       id="path3000"
       inkscape:connector-curvature="0" />
    <path
       style="fill:#0066ff;stroke:#000000;stroke-width:0.91328752px;stroke-linecap:butt;stroke-linejoin:miter;stroke-opacity:1"
       d="m 303.72036,542.59409 c 8.48798,-3.27594 6.84885,7.00023 11.19268,9.12506 0.55616,0.27206 1.24363,0 1.86544,0 0.62183,0 1.24363,0 1.86545,0 0.62181,0 1.24363,0 1.86544,0 0.62183,0 1.30929,-0.27206 1.86545,0 0.78654,0.38474 1.07891,1.44027 1.86545,1.82502 0.41811,0.20452 7.01851,0 7.46179,0 0.62182,0 1.24363,0 1.86545,0 0.62182,0 1.42575,0.43016 1.86545,0 0.43969,-0.43015 -0.4397,-1.39486 0,-1.82502 0.43969,-0.43016 1.42576,0.43016 1.86544,0 0.51043,-0.49936 -0.50598,-6.31 0,-7.30005 0.39328,-0.76948 1.47218,-1.05551 1.86545,-1.82501 0.27808,-0.54411 -0.27808,-1.2809 0,-1.82502 2.30514,-4.51033 1.86546,0.62996 1.86546,-3.65002 0,-1.21667 -0.39329,-2.49578 0,-3.65002 0.55616,-1.63234 2.94433,-2.11104 3.73089,-3.65002 0.27808,-0.54413 0,-1.21669 0,-1.82501 0,-0.60834 0,-1.21668 0,-1.82502 0,-0.60833 0.62181,-1.825 0,-1.825 -0.87938,0 -0.98607,1.825 -1.86546,1.825 -0.62181,0 0.62182,-1.825 0,-1.825 -0.87937,0 -1.07889,1.44025 -1.86543,1.825 -0.55618,0.27205 -1.24364,0 -1.86546,0 -0.62181,0 -1.42575,0.43016 -1.86545,0 -0.43968,-0.43016 0.4397,-1.39485 0,-1.825 -0.93272,-0.91252 -4.66361,0.91249 -5.59634,0 -0.43969,-0.43017 0.4397,-1.39487 0,-1.82503 -0.43969,-0.43015 -1.42575,-0.43015 -1.86545,0 -0.43969,0.43016 0.4397,1.39486 0,1.82503 -0.43969,0.43015 -1.24363,0 -1.86544,0 -0.62182,0 -1.24364,0 -1.86544,0 -0.45243,0 -5.53635,-0.0587 -5.59636,0 -0.43968,0.43015 0.43969,1.39484 0,1.825 -0.43968,0.43016 -1.27554,-0.19237 -1.86544,0 -1.31906,0.43016 -2.41183,1.39486 -3.73089,1.82502 -1.17983,0.38474 -2.85152,-0.86032 -3.73089,0 -2.48726,2.43334 3.10907,1.82501 -1.86546,1.82501 -0.6218,0 -1.42575,-0.43017 -1.86543,0 -0.4397,0.43015 0.62181,1.82501 0,1.82501 -0.62184,0 0,-2.43336 0,-1.82501 0,1.21667 -0.55618,2.56179 0,3.65002 0.27808,0.54411 2.09637,-0.56483 1.86543,0 -1.34657,3.29348 -3.73089,6.08337 -5.59633,9.12506 z"
       id="path3002"
       inkscape:connector-curvature="0" />
    <path
       style="fill:#0066ff;stroke:#000000;stroke-width:0.91328752px;stroke-linecap:butt;stroke-linejoin:miter;stroke-opacity:1"
       d="m 555.55577,361.91785 c 2.48726,1.82501 9.32725,3.04169 7.4618,5.47504 -1.86545,2.43335 -7.4618,-8.51672 -7.4618,-5.47504 0,9.60009 4.70622,9.12506 9.32725,9.12506 0.62181,0 1.42576,-0.43015 1.86545,0 0.43969,0.43016 -0.43969,1.39485 0,1.82501 0.43969,0.43015 1.42575,0.43015 1.86545,0 0.43969,-0.43016 0,-1.21667 0,-1.82501 0,-3.04169 0,-6.08337 0,-9.12506 0,-0.60834 0.43969,-1.39485 0,-1.82501 -0.4397,-0.43016 -1.42576,0.43016 -1.86545,0 -0.87938,-0.86031 0.87937,-2.78971 0,-3.65002 -1.6328,-1.59741 -10.85211,5.80823 -11.1927,5.47503 -2.56382,-2.50824 4.24978,-5.83159 5.59635,-9.12506 0.23094,-0.56482 -1.24364,0 -1.86545,0 -0.62181,0 -1.63449,-0.56482 -1.86544,0 -1.17755,2.88007 -1.24365,6.08338 -1.86546,9.12506 z"
       id="path3004"
       inkscape:connector-curvature="0" />
    <path
       style="fill:#2a7fff;stroke:#000000;stroke-width:0.91328752px;stroke-linecap:butt;stroke-linejoin:miter;stroke-opacity:1"
       d="m 469.74519,493.31875 -1.86545,1.82501"
       id="path3006"
       inkscape:connector-curvature="0" />
    <path
       style="fill:#2a7fff;stroke:#000000;stroke-width:0.91328752px;stroke-linecap:butt;stroke-linejoin:miter;stroke-opacity:1"
       d="m 451.09072,261.54216 c -2.86543,6.24794 3.97484,5.95236 5.59633,9.12507 0.55617,1.08823 -0.87938,2.7897 0,3.65002 0.43969,0.43016 1.42576,-0.43016 1.86545,0 0.43969,0.43016 -0.43969,1.39485 0,1.82502 0.43969,0.43016 1.24364,0 1.86545,0 0.6218,0 1.3093,0.27204 1.86545,0 0.78653,-0.38475 1.24363,-2.43335 1.86544,-1.82502 0.62184,0.60834 -1.86544,2.68534 -1.86544,1.82502 0,-1.36029 1.42575,-2.35955 1.86544,-3.65003 0.18465,-0.54198 0.19146,-8.75049 0,-9.12507 -0.39327,-0.76949 -1.47218,-1.05551 -1.86544,-1.82501 -0.27809,-0.5441 0.43969,-1.39485 0,-1.825 -0.43969,-0.43017 -1.25208,-0.10001 -1.86545,0 -3.1275,0.50994 -6.21816,1.21667 -9.32723,1.825 z"
       id="path3010"
       inkscape:connector-curvature="0" />
    <path
       style="fill:#80b3ff"
       d="m 211.60139,425.43159 c -4.20214,-1.45839 -9.27451,-4.06264 -11.27193,-5.7872 -4.63854,-4.0049 -13.71829,-9.45414 -17.93041,-10.76099 -1.79549,-0.55707 -3.26453,-2.14896 -3.26453,-3.53752 0,-1.38857 -0.96286,-2.52467 -2.13968,-2.52467 -2.51307,0 -16.18165,-10.70882 -24.12937,-18.90445 l -5.55979,-5.73321 0.71827,-20.98765 c 0.39504,-11.5432 1.2255,-23.04079 1.84544,-25.55018 0.61995,-2.50939 1.62534,-8.41026 2.23419,-13.11307 1.01311,-7.82516 1.84326,-8.97264 9.7858,-13.52639 5.97371,-3.42494 11.61276,-5.06751 18.09194,-5.2699 9.40647,-0.29382 9.41632,-0.30064 13.85978,-9.58773 3.67225,-7.67523 5.79469,-9.79738 12.18777,-12.186 4.25764,-1.59076 10.27343,-2.8923 13.36841,-2.8923 3.09499,0 6.49221,-0.84621 7.54938,-1.88046 1.05718,-1.03426 9.96754,-2.23287 19.8008,-2.66359 9.83327,-0.43071 20.04124,-1.31412 22.68439,-1.96313 3.27026,-0.80299 5.02566,-0.38928 5.49407,1.29482 0.37859,1.36116 2.59249,7.81301 4.91977,14.33743 2.32728,6.52442 5.38277,19.07688 6.78998,27.89437 2.22008,13.91101 5.9327,23.65824 10.22918,26.856 0.67431,0.50189 2.51649,5.85973 4.09372,11.90632 2.07087,7.93907 2.39616,13.01005 1.17072,18.25013 -0.93334,3.99098 -2.15806,10.30206 -2.72161,14.02465 -0.7396,4.88547 -2.6847,7.92476 -6.99207,10.92541 -3.2821,2.2864 -7.44784,5.60538 -9.25719,7.37553 -1.80935,1.77013 -3.95443,3.21842 -4.76683,3.21842 -0.8124,0 -7.31816,5.31852 -14.45722,11.81894 l -12.98011,11.81894 -15.85632,-0.10044 c -8.84543,-0.056 -19.23445,-1.27287 -23.49655,-2.75208 z m 33.75652,-28.08542 c -0.6341,-1.00375 -1.5231,-1.825 -1.97555,-1.825 -0.45243,0 -0.82262,0.82125 -0.82262,1.825 0,1.00376 0.889,1.82502 1.97554,1.82502 1.08654,0 1.45673,-0.82126 0.82263,-1.82502 z m -30.77989,-5.47503 c 0,-1.00376 -0.83944,-1.82501 -1.86544,-1.82501 -1.026,0 -1.86545,0.82125 -1.86545,1.82501 0,1.00376 0.83945,1.825 1.86545,1.825 1.026,0 1.86544,-0.82124 1.86544,-1.825 z m 42.90529,-19.27034 c 0,-0.44264 -0.83945,-0.8048 -1.86545,-0.8048 -1.026,0 -1.86544,0.86973 -1.86544,1.93272 0,1.063 0.83944,1.42516 1.86544,0.8048 1.026,-0.62035 1.86545,-1.49008 1.86545,-1.93272 z m -42.90529,-0.8048 c 0,-1.00375 -1.30871,-1.82501 -2.90825,-1.82501 -1.59956,0 -2.38947,0.82126 -1.75537,1.82501 0.63409,1.00376 1.94282,1.82502 2.90827,1.82502 0.96544,0 1.75535,-0.82126 1.75535,-1.82502 z m -37.30894,-6.49525 c 0,-0.44264 -0.83946,-0.8048 -1.86546,-0.8048 -1.026,0 -1.86544,0.86973 -1.86544,1.93272 0,1.063 0.83944,1.42515 1.86544,0.8048 1.026,-0.62036 1.86546,-1.49007 1.86546,-1.93272 z m 17.70294,-11.78463 c -0.64445,-1.02013 -1.95318,-1.38231 -2.90827,-0.80481 -2.58747,1.56446 -2.10499,2.65958 1.17171,2.65958 1.59955,0 2.381,-0.83465 1.73656,-1.85477 z m 80.30975,-1.91669 c 1.71685,-2.7177 -0.2737,-4.1953 -3.84538,-2.85443 -1.64828,0.61878 -2.47438,1.95212 -1.83581,2.96298 1.51208,2.39356 4.13217,2.34352 5.68119,-0.10855 l 0,0 z m -28.99114,-3.5286 c 0,-1.00375 -1.30872,-1.82501 -2.90827,-1.82501 -1.59955,0 -2.38945,0.82126 -1.75535,1.82501 0.63411,1.00376 1.94282,1.82502 2.90827,1.82502 0.96544,0 1.75535,-0.82126 1.75535,-1.82502 z m -45.7937,-11.70807 c 9.11348,-3.72532 11.72975,-9.3389 7.14962,-15.34052 -8.56245,-11.21986 -32.24293,-7.57187 -32.24293,4.96705 0,6.09078 3.27524,9.22763 11.67054,11.17745 3.32817,0.77298 6.28803,1.48948 6.57749,1.59222 0.28946,0.10275 3.36983,-0.97554 6.84528,-2.3962 l 0,0 z m 58.85184,-24.79217 c 0,-1.00376 -0.83946,-1.82502 -1.86546,-1.82502 -1.02598,0 -1.86545,0.82126 -1.86545,1.82502 0,1.00375 0.83947,1.82501 1.86545,1.82501 1.026,0 1.86546,-0.82126 1.86546,-1.82501 z m -27.98172,-6.38754 c 0,-1.50564 -0.83945,-2.73753 -1.86544,-2.73753 -1.02599,0 -1.86546,1.23189 -1.86546,2.73753 0,1.50563 0.83947,2.73752 1.86546,2.73752 1.02599,0 1.86544,-1.23189 1.86544,-2.73752 z"
       id="path3012"
       inkscape:connector-curvature="0" />
    <path
       style="fill:#0044aa"
       d="m 180.99997,331.64572 c -4.8432,-4.73821 -4.71957,-8.2406 0.41508,-11.75909 8.61233,-5.90156 25.70118,-1.72327 25.70118,6.28406 0,8.53742 -18.92968,12.50584 -26.11626,5.47503 z"
       id="path3014"
       inkscape:connector-curvature="0" />
    <path
       style="fill:#0055d4;stroke:#000000;stroke-width:0.91328752px;stroke-linecap:butt;stroke-linejoin:miter;stroke-opacity:1"
       d="m 464.14884,438.56839 c 2.48726,1.21667 8.70541,1.21667 7.4618,3.65003 -1.24364,2.43333 -9.42814,-5.57377 -7.4618,-3.65003 2.56382,2.50822 6.31043,3.50739 9.32725,5.47502 0.73168,0.47723 1.07891,1.44027 1.86545,1.82502 1.11232,0.54411 2.85151,-0.86032 3.7309,0 0.43968,0.43016 -0.4397,1.39484 0,1.82501 0.43968,0.43016 1.42575,-0.43017 1.86544,0 0.43969,0.43016 -0.43969,1.39486 0,1.82501 0.43969,0.43016 1.24362,0 1.86545,0 0.62181,0 1.42576,0.43016 1.86545,0 0.43969,-0.43015 0.43969,-1.39485 0,-1.82501 -0.0751,-0.0734 -6.77673,0 -7.4618,0 -0.62183,0 -1.42576,-0.43017 -1.86544,0 -0.43969,0.43016 0.43968,1.39486 0,1.82501 -0.43969,0.43016 -1.42576,-0.43015 -1.86545,0 -0.43969,0.43016 0.43969,1.39485 0,1.82501 -0.43969,0.43017 -1.24364,0 -1.86545,0 -0.62181,0 -1.42576,0.43017 -1.86545,0 -0.43969,-0.43016 0.43969,-1.39485 0,-1.82501 -0.43969,-0.43015 -1.24361,0 -1.86545,0 -0.62181,0 -1.24364,0 -1.86545,0 -1.24361,0 -2.48726,0 -3.73089,0 -0.62181,0 -1.86545,0.60834 -1.86545,0 0,-0.60833 1.3093,0.27206 1.86545,0 0.78653,-0.38474 1.07891,-1.44026 1.86544,-1.82501 0.55618,-0.27206 1.24365,0 1.86545,0 0.62181,0 1.24364,0 1.86545,0 0.62184,0 1.86545,-0.60834 1.86545,0 0,0.60834 -1.86545,0.60834 -1.86545,0 0,-0.86031 1.24364,-1.21668 1.86545,-1.82501"
       id="path3016"
       inkscape:connector-curvature="0" />
    <path
       style="fill:#0055d4;stroke:#000000;stroke-width:0.91328752px;stroke-linecap:butt;stroke-linejoin:miter;stroke-opacity:1"
       d="m 128.36828,569.96928 c 2.48727,0.60834 8.08361,-0.60834 7.46179,1.82501 -0.6218,2.43336 -9.27467,-3.59861 -7.46179,-1.82501 0.76861,13.14188 7.67517,1.92938 11.19268,3.65002 0.78656,0.38475 1.07892,1.44026 1.86546,1.82501 0.55616,0.27207 1.30928,-0.27204 1.86544,0 0.78655,0.38476 1.07891,1.44028 1.86545,1.82502 0.55616,0.27205 1.86546,0.60835 1.86546,0 0,-3.79764 -2.61605,-0.73432 -3.73091,-1.82502 -0.06,-0.0587 0,-5.03242 0,-5.47503 0,-3.65002 0,-7.30005 0,-10.95008 0,-0.60833 0.43969,-1.39484 0,-1.82501 -0.18654,-0.1825 -5.40978,-0.1825 -5.59633,0 -0.43969,0.43017 0.4397,1.39485 0,1.82501 -0.43969,0.43016 -1.30928,-0.27206 -1.86546,0 -0.78653,0.38475 -1.37765,1.10918 -1.86543,1.82502 -2.01123,2.95144 -7.60758,6.17362 -5.59636,9.12506 1.85747,2.7258 6.21816,-2.43335 9.32725,-3.65002"
       id="path3018"
       inkscape:connector-curvature="0" />
    <path
       style="fill:#0055d4;stroke:#000000;stroke-width:0.91328752px;stroke-linecap:butt;stroke-linejoin:miter;stroke-opacity:1"
       d="m 436.16713,569.96928 c 6.63075,7.67394 4.91005,7.30005 11.19269,7.30005 0.62182,0 1.24363,0 1.86544,0 0.62182,0 1.30928,0.27205 1.86546,0 2.30513,-1.12758 1.86543,-1.76201 1.86543,-3.65003 0,-0.60833 0.27809,-1.28089 0,-1.82501 -0.39326,-0.7695 -1.47216,-1.05552 -1.86543,-1.82501 -0.27809,-0.54412 0.43969,-1.39485 0,-1.82502 -0.43969,-0.43015 -1.24364,0 -1.86546,0 -0.62181,0 -1.24362,0 -1.86544,0 -5.03611,0 -1.25571,-0.1193 -11.19269,1.82502 z"
       id="path3020"
       inkscape:connector-curvature="0" />
    <path
       style="fill:none;stroke:#000000;stroke-width:0.91328752px;stroke-linecap:butt;stroke-linejoin:miter;stroke-opacity:1"
       d="m 406.78633,398.41811 c 0.62182,0.30415 1.2693,0.56256 1.86545,0.91251 0.37703,0.22131 0.53944,0.72012 0.93272,0.91249 0.13904,0.068 0.35644,-0.10754 0.46636,0 0.10992,0.10755 -0.10992,0.34872 0,0.45627 0.10992,0.10753 0.35645,0.10753 0.46636,0 0.10993,-0.10755 0,-0.30418 0,-0.45627 0,-0.15208 0,-0.60833 0,-0.45625 0,0.30417 0,1.21667 0,0.91252 0,-0.60835 0,-1.21668 0,-1.82503 0,-0.15209 0,-0.30417 0,-0.45624 0,-0.15209 0.10993,-0.34872 0,-0.45626 -0.10991,-0.10754 -0.32732,0.068 -0.46636,0 -0.19663,-0.0962 -0.26972,-0.36007 -0.46636,-0.45625 -0.13903,-0.068 -0.35644,0.10753 -0.46636,0 -0.10992,-0.10755 0.14433,-0.51274 0,-0.45625 -2.72135,1.06494 -2.22516,0.95139 -2.79817,3.19376"
       id="path3022"
       inkscape:connector-curvature="0" />
    <path
       style="fill:#0066ff;stroke:#000000;stroke-width:0.91328752px;stroke-linecap:butt;stroke-linejoin:miter;stroke-opacity:1"
       d="m 266.41141,482.36868 c 1.96566,0.36578 0.11186,1.58766 0.46636,2.28126 0.0983,0.19237 0.39684,0.25221 0.46636,0.45627 0.0983,0.28855 -0.13906,0.64044 0,0.91249 0.0695,0.13602 0.35643,-0.10754 0.46635,0 0.10992,0.10755 -0.10992,0.34872 0,0.45627 0.10992,0.10752 0.35645,-0.10755 0.46637,0 0.96492,0.94399 -1.47452,-0.0369 0.46636,0.91249 0.13904,0.068 0.35644,-0.10753 0.46636,0 0.10992,0.10755 -0.10992,0.34871 0,0.45626 0.21985,0.21508 0.71288,-0.21509 0.93273,0 0.10991,0.10753 -0.10993,0.34871 0,0.45625 0.10991,0.10754 0.3109,0 0.46636,0 0.15546,0 0.3109,0 0.46637,0 0.11309,0 1.38408,0.0147 1.39908,0 0.21984,-0.21508 -0.21985,-0.69744 0,-0.91251 0.10992,-0.10753 0.35643,0.10755 0.46636,0 0.21985,-0.21508 -0.21985,-0.69742 0,-0.91249 0.10992,-0.10755 0.35644,0.10752 0.46636,0 0.10992,-0.10755 -0.0695,-0.32025 0,-0.45627 0.0983,-0.19237 0.36804,-0.26388 0.46636,-0.45625 0.41455,-0.81112 -0.25908,-0.25348 -0.46636,-0.45624 -0.0953,-0.0933 0.0925,-1.18787 0,-1.36878 -0.0983,-0.19237 -0.36805,-0.26388 -0.46636,-0.45625 -0.0695,-0.13602 0.0695,-0.32022 0,-0.45625 -0.32366,-0.6333 -0.82981,-0.45625 -1.39909,-0.45625 -0.15545,0 -0.3109,0 -0.46635,0 -0.15547,0 -0.35644,-0.10755 -0.46637,0 -0.10993,0.10755 0.10993,0.34871 0,0.45625 -0.10993,0.10754 -0.35645,-0.10754 -0.46636,0 -0.10993,0.10754 0,0.30417 0,0.45625 0,0.15208 -0.10993,0.34872 0,0.45625 0.21983,0.21508 0.71287,-0.21508 0.93273,0 0.10992,0.10755 -0.10993,0.34873 0,0.45626 0.21984,0.21509 0.71287,-0.21507 0.93272,0 0.10992,0.10753 0.15545,0.45625 0,0.45625 -0.21985,0 -0.31091,-0.30417 -0.46637,-0.45625"
       id="path3024"
       inkscape:connector-curvature="0" />
    <path
       style="fill:none;stroke:#000000;stroke-width:0.91328752px;stroke-linecap:butt;stroke-linejoin:miter;stroke-opacity:1"
       d="m 420.77719,330.89264 c 0.50406,1.97255 0.46637,1.19795 0.46637,2.28126 0,0.15208 -0.10993,0.34872 0,0.45625 0.21983,0.21509 0.71286,-0.21507 0.93272,0 0.10992,0.10755 -0.10993,0.34871 0,0.45626 0.0212,0.0207 2.11192,0 2.3318,0 0.15547,0 0.35645,0.10754 0.46637,0 0.10991,-0.10755 0,-0.30417 0,-0.45626 0,-0.15207 0,-0.60833 0,-0.45625 0,1.74284 0.0983,0.64863 -0.46637,-0.45625 -0.97044,-1.89881 0.0322,0.48775 -0.93272,-0.45625 -0.10992,-0.10754 0.10993,-0.34872 0,-0.45625 -0.10992,-0.10755 -0.31888,0.048 -0.46636,0 -0.79419,-0.259 -1.55454,-0.60835 -2.33181,-0.91251 z"
       id="path3026"
       inkscape:connector-curvature="0" />
    <path
       style="fill:#5599ff;stroke:#000000;stroke-width:0.91328752px;stroke-linecap:butt;stroke-linejoin:miter;stroke-opacity:1"
       d="m 279.46953,605.10078 c 0.62182,0.15207 1.24364,0.30416 1.86546,0.45624 0,0.15208 -0.10992,0.34872 0,0.45626 0.21984,0.21507 0.71287,-0.21509 0.93272,0 0.10993,0.10754 -0.10992,0.34872 0,0.45626 0.10993,0.10752 0.46636,-0.15208 0.46636,0 0,0.15207 -0.62182,0 -0.46636,0 0.31091,0 0.65463,0.13602 0.93272,0 0.13904,-0.068 0,-0.30417 0,-0.45626 0,-0.15209 0,-0.30418 0,-0.45626 0,-0.15208 0,-0.60833 0,-0.45624 0,0.30416 0,1.21668 0,0.9125 0,-0.9125 0,-1.82502 0,-2.73751 0,-1.13662 -0.55377,-0.91251 -1.3991,-0.91251 -0.15544,0 -0.35643,-0.10755 -0.46634,0 -0.10992,0.10753 0.10991,0.34871 0,0.45624 -0.42272,0.41355 -4.49771,-1.58153 -1.86546,2.28128 2.0045,2.94155 1.86546,-1.10938 1.86546,-1.36876"
       id="path3028"
       inkscape:connector-curvature="0" />
    <path
       style="fill:#2a7fff;stroke:#000000;stroke-width:0.91328752px;stroke-linecap:butt;stroke-linejoin:miter;stroke-opacity:1"
       d="m 378.33826,622.89464 c -1.64505,-0.53117 1.52466,1.70214 0.93272,2.28127 -0.10992,0.10754 -0.35645,-0.10754 -0.46637,0 -0.10992,0.10754 0,0.30417 0,0.45625 0,0.15208 -0.10992,0.34872 0,0.45625 0.10992,0.10755 0.35645,-0.10753 0.46637,0 0.10992,0.10755 -0.10992,0.34872 0,0.45626 0.10992,0.10754 0.31091,0 0.46636,0 0.15546,0 0.35644,0.10754 0.46636,0 0.10991,-0.10754 0.15546,-0.45626 0,-0.45626 -0.21985,0 -0.46636,0.67135 -0.46636,0.45626 0,-0.34007 0.35644,-0.58989 0.46636,-0.91251 0.0491,-0.14427 0,-0.30417 0,-0.45625 0,-0.15209 -0.10992,-0.34871 0,-0.45626 0.10991,-0.10754 0.46636,-0.15208 0.46636,0 0,0.10373 -1.75379,-0.10923 -1.86545,0 -0.10992,0.10755 -0.0695,0.32023 0,0.45626 0.0983,0.19238 0.62183,0.30417 0.46637,0.45625 -0.15547,0.15208 -0.68621,-0.45625 -0.46637,-0.45625 0.34761,0 0.60297,0.34871 0.93273,0.45625 0.14748,0.048 0.35644,-0.10754 0.46636,0 0.10991,0.10753 -0.10992,0.34872 0,0.45625 0.10991,0.10755 0.35644,-0.10753 0.46636,0 0.10993,0.10755 -0.10992,0.34872 0,0.45626 0.10993,0.10754 0.35644,-0.10754 0.46637,0 0.10992,0.10754 -0.10993,0.34871 0,0.45625 0.10992,0.10753 0.35643,0.10753 0.46635,0 0.10993,-0.10754 0,-0.30417 0,-0.45625 0,-0.11065 0.015,-1.35409 0,-1.36876 -0.24577,-0.24047 -1.08818,-0.15209 -0.93272,-0.45626 0.15545,-0.30417 0.62182,0.30417 0.93272,0.45626"
       id="path3030"
       inkscape:connector-curvature="0" />
    <path
       style="fill:none;stroke:#000000;stroke-width:0.91328752px;stroke-linecap:butt;stroke-linejoin:miter;stroke-opacity:1"
       d="m 334.50024,194.01671 c 0.62182,0 1.2622,-0.14754 1.86544,0 0.30163,0.0738 -0.21985,0.69742 0,0.9125 0.10992,0.10754 0.32733,-0.068 0.46636,0 0.19664,0.0962 0.26973,0.36007 0.46636,0.45625 0.13905,0.068 0.46636,-0.15208 0.46636,0 0,0.15208 -0.35644,0.10754 -0.46636,0 -0.10991,-0.10754 0.10992,-0.34871 0,-0.45625 -0.10991,-0.10754 -0.32731,0.068 -0.46636,0 -0.63195,-0.30912 -1.09167,-2.12574 -2.3318,-0.9125 -4.35272,4.25836 0.0933,1.91627 0.46636,2.28125 0.21984,0.21508 -0.21985,0.69742 0,0.91252 0.10991,0.10753 0.3109,0 0.46636,0 0.15545,0 0.35644,0.10753 0.46636,0 0.21984,-0.2151 -0.31091,-0.91252 0,-0.91252 0.15545,0 0.08,0.58668 0,0.45625 -0.53652,-0.87482 -0.93272,-1.825 -1.39908,-2.7375 z"
       id="path3034"
       inkscape:connector-curvature="0" />
    <path
       style="fill:#0066ff;stroke:#000000;stroke-width:0.91328752px;stroke-linecap:butt;stroke-linejoin:miter;stroke-opacity:1"
       d="m 8.9796238,417.58073 c 4.6971402,-1.00141 0.75815,1.65421 1.3990902,2.28127 0.10993,0.10753 0.35645,-0.10754 0.46637,0 0.10993,0.10753 -0.10992,0.34871 0,0.45625 0.21984,0.21508 0.65464,-0.13603 0.93272,0 0.19663,0.0962 0.26973,0.36007 0.46636,0.45626 0.0397,0.0194 1.8257,0.0194 1.86544,0 0.19664,-0.0962 0.26974,-0.36007 0.46637,-0.45626 0.27809,-0.13603 0.71289,0.21508 0.93272,0 0.0467,-0.0456 0.0467,-1.32314 0,-1.36876 -0.10992,-0.10755 -0.35643,0.10754 -0.46634,0 -0.10993,-0.10755 0.10991,-0.34871 0,-0.45625 -0.10993,-0.10754 -0.32734,0.068 -0.46638,0 -1.15257,-0.56379 0.16098,-0.45625 -0.93272,-0.45625 -0.3109,0 -0.62182,0 -0.93273,0 -0.15545,0 -0.62181,0 -0.46636,0 0.31091,0 0.93272,-0.30417 0.93272,0 0,1.25636 -1.06442,0.12884 -1.39908,0.45625 -0.10992,0.10754 0.10993,0.3487 0,0.45625 -0.62181,0.60834 -0.46636,-0.76042 -0.46636,0.45625"
       id="path3036"
       inkscape:connector-curvature="0" />
    <path
       style="fill:#2a7fff;stroke:#000000;stroke-width:0.91328752px;stroke-linecap:butt;stroke-linejoin:miter;stroke-opacity:1"
       d="m 87.328444,483.73743 c -1.0236,4.59532 1.69085,0.74171 2.3318,1.36878 0.10993,0.10753 -0.10992,0.34869 0,0.45624 0.0467,0.0456 1.35244,0.0456 1.39908,0 0.0212,-0.0207 0,-2.06615 0,-2.28127 0,-0.15208 -0.10992,-0.34871 0,-0.45625 0.10993,-0.10754 0.35645,0.10754 0.46636,0 0.0467,-0.0456 0.0467,-1.32313 0,-1.36875 -0.10991,-0.10754 -0.3109,0 -0.46636,0 -1.42196,0 -0.007,0.46242 -0.46636,0.9125 -0.10992,0.10755 -0.35645,-0.10755 -0.46635,0 -0.10993,0.10755 0,0.30417 0,0.45625 0,0.15208 0,0.30417 0,0.45625 0,0.15208 0,0.60835 0,0.45625 0,-0.30417 0,-1.21666 0,-0.9125 0,0.45625 0.14746,0.93593 0,1.36876 -0.0491,0.14428 -0.35644,-0.10753 -0.46637,0 -0.10992,0.10753 0.10993,0.34872 0,0.45625 -0.10992,0.10755 -0.46637,0.15209 -0.46637,0 0,-0.15208 0.31091,0 0.46637,0"
       id="path3038"
       inkscape:connector-curvature="0" />
  </g>
</svg>
