<?xml version="1.0" encoding="UTF-8" standalone="no"?>
<!-- Created with Inkscape (http://www.inkscape.org/) -->

<svg
   xmlns:osb="http://www.openswatchbook.org/uri/2009/osb"
   xmlns:dc="http://purl.org/dc/elements/1.1/"
   xmlns:cc="http://creativecommons.org/ns#"
   xmlns:rdf="http://www.w3.org/1999/02/22-rdf-syntax-ns#"
   xmlns:svg="http://www.w3.org/2000/svg"
   xmlns="http://www.w3.org/2000/svg"
   xmlns:xlink="http://www.w3.org/1999/xlink"
   xmlns:sodipodi="http://sodipodi.sourceforge.net/DTD/sodipodi-0.dtd"
   xmlns:inkscape="http://www.inkscape.org/namespaces/inkscape"
   width="210mm"
   height="297mm"
   viewBox="0 0 744.09448819 1052.3622047"
   id="svg4204"
   version="1.1"
   inkscape:version="0.48.4 r9939"
   sodipodi:docname="beaker.svg">
  <defs
     id="defs4206">
    <linearGradient
       id="linearGradient5413"
       osb:paint="solid">
      <stop
         style="stop-color:#00ffff;stop-opacity:1;"
         offset="0"
         id="stop5415" />
    </linearGradient>
    <linearGradient
       id="linearGradient5360"
       osb:paint="solid">
      <stop
         style="stop-color:#9effff;stop-opacity:1;"
         offset="0"
         id="stop5362" />
    </linearGradient>
    <linearGradient
       id="linearGradient3127">
      <stop
         style="stop-color:#00ffff;stop-opacity:1;"
         offset="0"
         id="stop3129" />
      <stop
         style="stop-color:#00ffff;stop-opacity:0;"
         offset="1"
         id="stop3131" />
    </linearGradient>
    <linearGradient
       id="linearGradient4762"
       osb:paint="solid">
      <stop
         style="stop-color:#000000;stop-opacity:1;"
         offset="0"
         id="stop4764" />
    </linearGradient>
    <linearGradient
       inkscape:collect="always"
       xlink:href="#linearGradient5360"
       id="linearGradient5364"
       x1="422.55246"
       y1="274.5184"
       x2="576.93045"
       y2="274.5184"
       gradientUnits="userSpaceOnUse" />
  </defs>
  <sodipodi:namedview
     id="base"
     pagecolor="#ffffff"
     bordercolor="#666666"
     borderopacity="1.0"
     inkscape:pageopacity="0.0"
     inkscape:pageshadow="2"
     inkscape:zoom="1.2306481"
     inkscape:cx="275.98034"
     inkscape:cy="520.23979"
     inkscape:document-units="px"
     inkscape:current-layer="layer1"
     showgrid="false"
     showguides="true"
     inkscape:window-width="1366"
     inkscape:window-height="716"
     inkscape:window-x="0"
     inkscape:window-y="0"
     inkscape:window-maximized="1"
     inkscape:guide-bbox="true" />
  <metadata
     id="metadata4209">
    <rdf:RDF>
      <cc:Work
         rdf:about="">
        <dc:format>image/svg+xml</dc:format>
        <dc:type
           rdf:resource="http://purl.org/dc/dcmitype/StillImage" />
        <dc:title />
      </cc:Work>
    </rdf:RDF>
  </metadata>
  <g
     inkscape:label="Layer 1"
     inkscape:groupmode="layer"
     id="layer1">
    <path
       style="opacity:1;fill:#ffffff;fill-opacity:1;stroke:#000000;stroke-width:1.10000002;stroke-linecap:round;stroke-linejoin:round;stroke-miterlimit:4;stroke-dasharray:none;stroke-opacity:1"
       id="path4768"
       sodipodi:type="arc"
       sodipodi:cx="374.21674"
       sodipodi:cy="844.78802"
       sodipodi:rx="191.30069"
       sodipodi:ry="47.193123"
       sodipodi:start="0"
       sodipodi:end="3.1415927"
       sodipodi:open="true"
       d="m 565.51743,844.78802 a 191.30069,47.193123 0 0 1 -95.65035,40.87045 191.30069,47.193123 0 0 1 -191.30069,0 191.30069,47.193123 0 0 1 -95.65034,-40.87045" />
    <path
       style="opacity:1;fill:#ffffff;fill-opacity:1;stroke:#000000;stroke-width:2.0565412;stroke-linecap:round;stroke-linejoin:round;stroke-miterlimit:4;stroke-dasharray:2.0565412, 16.45232964;stroke-dashoffset:0;stroke-opacity:1"
       id="path4772"
       sodipodi:type="arc"
       sodipodi:cx="373.32507"
       sodipodi:cy="845.53638"
       sodipodi:rx="190.3116"
       sodipodi:ry="34.448818"
       sodipodi:start="3.1415927"
       sodipodi:end="0"
       d="m 183.01347,845.53638 a 190.3116,34.448818 0 0 1 190.31161,-34.44882 190.3116,34.448818 0 0 1 190.31159,34.44882"
       sodipodi:open="true" />
    <path
       sodipodi:type="arc"
       style="fill:#00ffff"
       id="path3135"
       sodipodi:cx="559.57562"
       sodipodi:cy="562.73352"
       sodipodi:rx="1.6854687"
       sodipodi:ry="5.8991404"
       d="m 561.26109,562.73352 a 1.6854687,5.8991404 0 1 1 -3.37094,0 1.6854687,5.8991404 0 1 1 3.37094,0 z"
       transform="translate(-4.9229925e-6,0)" />
    <path
       sodipodi:type="arc"
       style="fill:url(#linearGradient5364);stroke:#000000;stroke-opacity:1;stroke-width:1.00033038000000007;stroke-miterlimit:4;stroke-dasharray:1.00033038000000007, 3.00099113000000006;stroke-dashoffset:0;fill-opacity:1"
       id="path3140"
       sodipodi:cx="499.74146"
       sodipodi:cy="274.5184"
       sodipodi:rx="76.688828"
       sodipodi:ry="42.97945"
       d="m 576.43028,274.5184 a 76.688828,42.97945 0 1 1 -153.37765,0 76.688828,42.97945 0 1 1 153.37765,0 z"
       transform="matrix(2.4860271,0,0,0.86274509,-868.2193,323.93548)" />
    <path
       style="fill:none;stroke:#000000;stroke-width:1px;stroke-linecap:butt;stroke-linejoin:miter;stroke-opacity:1"
       d="m 572.60787,352.99533 c -3.45637,2.62227 -6.2398,12.35644 -7.00186,15.56797"
       id="path5378"
       inkscape:connector-curvature="0" />
    <path
       style="fill:none;stroke:#000000;stroke-width:1px;stroke-linecap:butt;stroke-linejoin:miter;stroke-opacity:1"
       d="m 564.63201,559.36259 1.05341,-191.51137"
       id="path5389"
       inkscape:connector-curvature="0"
       transform="translate(-4.9229925e-6,0)" />
    <path
       style="fill:none;stroke:#000000;stroke-width:1px;stroke-linecap:butt;stroke-linejoin:miter;stroke-opacity:1"
       d="m 564.59749,558.9409 0.86187,285.85396"
       id="path5395"
       inkscape:connector-curvature="0"
       transform="translate(-4.9229925e-6,0)" />
    <path
       style="fill:none;stroke:#000000;stroke-width:0.99287552px;stroke-linecap:butt;stroke-linejoin:miter;stroke-opacity:1"
       d="m 183.43348,386.1227 -0.29441,458.89231"
       id="path5409"
       inkscape:connector-curvature="0" />
    <path
       sodipodi:type="arc"
       style="fill:#ffffff;fill-opacity:1;stroke:#000000;stroke-width:0.49178475;stroke-miterlimit:4;stroke-opacity:1;stroke-dasharray:none;stroke-dashoffset:0"
       id="path5411"
       sodipodi:cx="171.65602"
       sodipodi:cy="368.82648"
       sodipodi:rx="9.4805832"
       sodipodi:ry="9.8396969"
       d="m 170.92868,359.01578 a 9.4805832,9.8396969 0 0 1 10.20792,9.8107"
       transform="matrix(1.9631653,0,0,1.8560875,-172.07067,-297.46556)"
       sodipodi:open="true"
       sodipodi:start="4.6355945"
       sodipodi:end="6.2831853" />
    <path
       style="fill:none;stroke:#000000;stroke-width:0.95357782;stroke-linecap:butt;stroke-linejoin:miter;stroke-miterlimit:4;stroke-opacity:1;stroke-dasharray:none"
       d="m 217.15161,349.91085 -52.81539,18.69404"
       id="path5439"
       inkscape:connector-curvature="0" />
    <path
       style="fill:none;stroke:#000000;stroke-width:0.75980955;stroke-linecap:butt;stroke-linejoin:miter;stroke-miterlimit:4;stroke-opacity:1;stroke-dasharray:none"
       d="m 188.3025,344.82732 -24.256,24.0673"
       id="path5441"
       inkscape:connector-curvature="0" />
    <path
       style="fill:none;stroke:#000000;stroke-width:1px;stroke-linecap:butt;stroke-linejoin:miter;stroke-opacity:1"
       d="M 93.082094,457.09645 89.634609,452.4998"
       id="path5443"
       inkscape:connector-curvature="0"
       transform="translate(-4.9229925e-6,0)" />
    <path
       sodipodi:type="arc"
       style="fill:#ffffff;fill-opacity:1;stroke:#000000;stroke-width:1;stroke-miterlimit:4;stroke-opacity:1;stroke-dasharray:none;stroke-dashoffset:0"
       id="path5482"
       sodipodi:cx="373.7868"
       sodipodi:cy="405.54849"
       sodipodi:rx="190.9563"
       sodipodi:ry="26.00256"
       d="m 187.57589,399.78766 a 190.9563,26.00256 0 1 1 3.5985,13.36324"
       transform="matrix(1.0193523,0,0,0.99981663,-3.1329512,-54.625497)"
       sodipodi:start="3.3649948"
       sodipodi:end="9.128072"
       sodipodi:open="true" />
    <path
       style="fill:#00ffff;fill-opacity:1;stroke:#000000;stroke-width:0.40628999;stroke-miterlimit:4;stroke-opacity:1;stroke-dasharray:none;stroke-dashoffset:0"
       d="m 183.75251,768.52875 c 0,-73.09966 0.46992,-203.89369 0.73162,-203.63199 0.10487,0.10486 0.21169,0.6025 0.23738,1.10584 0.0257,0.50335 0.42347,1.10334 0.88394,1.33331 1.47597,0.73712 3.42883,2.5801 3.42883,3.23592 0,0.34961 0.22853,0.66351 0.50786,0.69754 0.27932,0.034 0.7102,0.0825 0.9575,0.10781 0.92104,0.0941 3.41012,1.65827 3.41012,2.143 0,0.58521 1.40114,1.4325 1.76582,1.06782 0.36591,-0.3659 3.96453,1.09785 3.71031,1.50918 -0.11942,0.19322 0.19063,0.56953 0.68899,0.83625 0.62815,0.33617 0.9507,0.35117 1.05147,0.0489 0.19338,-0.58015 3.75324,0.72821 3.75324,1.37943 0,0.58154 1.13826,1.06933 1.69392,0.72592 0.60271,-0.3725 3.97497,0.67846 3.87647,1.20809 -0.0473,0.25417 0.45929,0.47184 1.13339,0.48702 2.10108,0.0473 4.26605,0.65085 4.26605,1.18925 0,0.63024 1.70594,1.13827 2.03491,0.606 0.32583,-0.52722 3.30496,0.33605 3.88172,1.12481 0.30385,0.41554 0.79425,0.54127 1.4597,0.37426 1.11116,-0.27889 3.99979,0.38263 3.99979,0.91598 0,0.48965 1.75685,0.87888 2.02303,0.4482 0.12957,-0.20965 1.03517,-0.18907 2.15077,0.0489 1.05984,0.22604 1.83618,0.55791 1.72519,0.73749 -0.11099,0.17958 0.20097,0.43184 0.69325,0.56057 0.49227,0.12873 0.99576,0.0711 1.11885,-0.12806 0.12957,-0.20965 1.03517,-0.18907 2.15077,0.0489 1.05984,0.22604 1.83618,0.55791 1.72519,0.73749 -0.11099,0.17958 0.20097,0.43184 0.69325,0.56057 0.49227,0.12873 1.00815,0.0511 1.14639,-0.17262 0.33445,-0.54115 3.65045,-0.002 3.8942,0.63346 0.12106,0.31549 1.11716,0.47442 2.82261,0.45037 1.46699,-0.0207 2.7647,0.15612 2.92686,0.39876 0.43522,0.65127 1.65319,1.00579 1.92798,0.56118 0.32182,-0.52072 3.48776,0.006 4.17677,0.69539 0.63192,0.63192 1.70293,0.72222 1.70293,0.14358 0,-0.59134 3.79783,0.0103 4.18466,0.66294 0.37411,0.63117 1.5034,0.74358 1.5034,0.14964 0,-0.63143 3.79641,0.042 4.34287,0.77032 0.38872,0.51811 0.63588,0.55079 1.26494,0.16728 0.81348,-0.49594 4.14315,-0.27122 4.14315,0.27963 0,0.47595 1.98637,0.73853 2.13832,0.28267 0.17066,-0.51198 3.95603,0.013 3.95603,0.54868 0,0.20976 0.36566,0.38139 0.81258,0.38139 0.44691,0 0.81246,-0.13712 0.81232,-0.30472 -1.3e-4,-0.16759 0.91402,-0.24136 2.03145,-0.16393 1.11744,0.0774 2.03171,0.28641 2.03171,0.4644 0,0.59286 1.24112,0.80982 1.98284,0.34661 0.82234,-0.51356 3.70522,-0.13338 3.70522,0.48863 0,0.21334 0.45707,0.38788 1.01572,0.38788 0.55865,0 1.01573,-0.17933 1.01573,-0.39852 0,-0.46641 3.79193,-0.0522 3.98659,0.43552 0.0698,0.17478 1.39529,0.21143 2.94561,0.0815 1.99304,-0.16709 2.81876,-0.0992 2.81876,0.23174 0,0.33381 0.8157,0.39224 2.84403,0.20373 2.00036,-0.18591 2.84403,-0.12803 2.84403,0.19513 0,0.32379 0.89968,0.3834 3.04717,0.20187 1.98666,-0.16794 3.04718,-0.11192 3.04718,0.16094 0,0.23018 0.36566,0.51414 0.81258,0.63101 0.44691,0.11688 0.81258,0.0468 0.81258,-0.15576 0,-0.20253 0.91415,-0.36825 2.03145,-0.36825 1.11729,0 2.03145,0.1805 2.03145,0.40111 0,0.25119 1.13888,0.30484 3.04717,0.14353 2.17028,-0.18346 3.04718,-0.12351 3.04718,0.20832 0,0.60648 1.51024,0.60751 1.71235,10e-4 0.18793,-0.56379 3.97571,-0.0973 3.97571,0.48963 0,0.20976 0.45707,0.38139 1.01572,0.38139 0.55865,0 1.01573,-0.18283 1.01573,-0.40629 0,-0.22346 0.82273,-0.40629 1.8283,-0.40629 1.00557,0 1.82831,0.18283 1.82831,0.40629 0,0.22346 0.45707,0.40629 1.01572,0.40629 0.55865,0 1.01561,-0.13712 1.01547,-0.30472 -1.3e-4,-0.16759 0.91402,-0.24136 2.03145,-0.16393 1.11744,0.0774 2.03171,0.30597 2.03171,0.50786 0,0.2019 0.36566,0.36708 0.81258,0.36708 0.44691,0 0.81258,-0.18283 0.81258,-0.40629 0,-0.22346 0.91415,-0.40629 2.03145,-0.40629 1.11729,0 2.03145,0.18283 2.03145,0.40629 0,0.57325 1.9298,0.50808 2.12306,-0.0717 0.11951,-0.35855 0.7117,-0.3714 2.37002,-0.0514 1.21589,0.2346 3.35339,0.3363 4.75001,0.22601 1.723,-0.13607 2.53932,-0.0542 2.53932,0.25459 0,0.25032 0.45707,0.45512 1.01572,0.45512 0.55865,0 1.01573,-0.18283 1.01573,-0.40629 0,-0.22346 0.91415,-0.40629 2.03145,-0.40629 1.11729,0 2.03145,0.18283 2.03145,0.40629 0,0.22346 0.36566,0.40629 0.81258,0.40629 0.44691,0 0.81258,-0.18283 0.81258,-0.40629 0,-0.22346 0.91415,-0.40629 2.03145,-0.40629 1.11729,0 2.03145,0.18283 2.03145,0.40629 0,0.22346 0.45707,0.40629 1.01572,0.40629 0.55865,0 1.01573,-0.18283 1.01573,-0.40629 0,-0.22346 0.82273,-0.40629 1.8283,-0.40629 1.00557,0 1.82831,0.18283 1.82831,0.40629 0,0.22346 0.45707,0.40629 1.01572,0.40629 0.55865,0 1.01573,-0.18283 1.01573,-0.40629 0,-0.22346 0.91415,-0.40629 2.03145,-0.40629 1.11729,0 2.03145,0.18283 2.03145,0.40629 0,0.22346 0.36566,0.40629 0.81258,0.40629 0.44691,0 0.81258,-0.20786 0.81258,-0.46191 0,-0.32138 0.83442,-0.39425 2.74245,-0.23951 1.50835,0.12233 3.73727,0.0237 4.95316,-0.21921 1.66909,-0.33342 2.24973,-0.32451 2.37003,0.0364 0.19337,0.58013 1.71677,0.64375 1.71677,0.0717 0,-0.22346 0.91415,-0.40629 2.03145,-0.40629 1.11729,0 2.03145,0.18283 2.03145,0.40629 0,0.22346 0.45707,0.40629 1.01572,0.40629 0.55865,0 1.01573,-0.16518 1.01573,-0.36708 0,-0.20189 0.91426,-0.43043 2.0317,-0.50786 1.11743,-0.0774 2.03159,-0.004 2.03145,0.16393 -1.4e-4,0.1676 0.36541,0.30472 0.81233,0.30472 0.44691,0 0.81258,-0.18283 0.81258,-0.40629 0,-0.22346 0.91415,-0.40629 2.03145,-0.40629 1.11729,0 2.03145,0.18283 2.03145,0.40629 0,0.50074 1.91154,0.5444 2.09916,0.0479 0.21046,-0.55687 3.5889,-1.01809 3.5889,-0.48994 0,0.2431 0.45707,0.442 1.01572,0.442 0.55865,0 1.01573,-0.20935 1.01573,-0.46522 0,-0.32783 0.83988,-0.3948 2.84403,-0.22678 1.6768,0.14058 2.84403,0.0814 2.84403,-0.14422 0,-0.21046 0.91415,-0.38265 2.03145,-0.38265 1.16894,0 2.03145,0.18413 2.03145,0.43367 0,0.49955 1.75163,0.0648 1.96373,-0.48737 0.18068,-0.4704 4.13062,-0.45542 4.13062,0.0157 0,0.20254 0.36566,0.27264 0.81258,0.15576 0.44691,-0.11687 0.81258,-0.374 0.81258,-0.57139 0,-0.1974 0.91415,-0.35891 2.03145,-0.35891 1.11729,0 2.03145,0.15748 2.03145,0.34995 0,0.19247 0.45707,0.26257 1.01572,0.15578 0.55865,-0.10679 1.01573,-0.38194 1.01573,-0.61144 0,-0.27045 0.98878,-0.32537 2.81027,-0.15608 1.54565,0.14366 2.87117,0.10476 2.9456,-0.0864 0.18279,-0.46952 3.99509,-0.86502 3.99509,-0.41446 0,0.19601 0.36566,0.35638 0.81258,0.35638 0.44691,0 0.81258,-0.17163 0.81258,-0.38139 0,-0.58694 3.78777,-1.05342 3.9757,-0.48963 0.23305,0.69914 1.61963,0.55828 2.04852,-0.20812 0.31528,-0.56337 0.81436,-0.63196 3.06737,-0.42158 1.51203,0.1412 2.69082,0.0909 2.69082,-0.11483 0,-0.5766 3.79085,-1.02889 3.9757,-0.47434 0.20529,0.61587 0.71887,0.5876 1.38256,-0.0761 0.66722,-0.66722 4.3927,-1.23568 4.3927,-0.67027 0,0.59264 1.26466,0.48199 1.99945,-0.17493 0.70123,-0.62691 3.46878,-1.00067 3.93767,-0.53178 0.50658,0.50658 1.78239,0.31765 1.78239,-0.26394 0,-0.63947 3.77461,-1.23219 3.99518,-0.62736 0.20369,0.55855 1.20184,0.44623 1.57111,-0.17679 0.38683,-0.65263 4.18467,-1.25428 4.18467,-0.66294 0,0.64048 1.10014,0.4592 1.86698,-0.30763 0.52667,-0.52668 1.33431,-0.69627 3.17776,-0.6673 1.35939,0.0214 2.59624,-0.15421 2.74856,-0.39017 0.38446,-0.59561 9.41462,-2.29982 9.70965,-1.83244 0.26752,0.42378 1.59268,0.0266 1.59268,-0.4774 0,-0.51348 3.80458,-1.21998 4.08926,-0.75936 0.2657,0.42991 1.5988,0.0596 1.5988,-0.44418 0,-0.48953 3.37791,-1.22044 4.40227,-0.95257 0.58003,0.15168 1.09634,0.009 1.40594,-0.38972 0.64249,-0.82651 3.61244,-1.63466 3.95723,-1.07678 0.27735,0.44876 1.61068,0.0887 1.61068,-0.43501 0,-0.48093 3.83289,-1.70047 3.97783,-1.26565 0.17874,0.53624 1.71023,0.0523 1.71023,-0.54045 0,-0.63751 2.78911,-1.48347 3.91782,-1.18831 0.5544,0.14498 1.13168,-0.0615 1.62044,-0.57972 0.96542,-1.02352 3.71255,-2.18707 3.89208,-1.64849 0.17932,0.53796 1.53949,-0.0144 1.53949,-0.62515 0,-0.52695 2.68103,-1.69755 3.63972,-1.5892 0.84756,0.0958 2.11318,-0.65623 1.84222,-1.09465 -0.25353,-0.41021 2.20522,-1.75691 3.99316,-2.18712 0.63039,-0.15168 1.07568,-0.48723 0.98953,-0.74568 -0.17906,-0.53718 2.49095,-3.01347 3.05977,-2.83777 0.64394,0.19891 1.53651,-0.8083 1.32363,-1.49363 -0.11168,-0.3595 -0.0471,-0.90196 0.14353,-1.20545 0.19213,-0.30588 0.45711,47.9496 0.59459,108.27628 0.13641,59.85546 0.35291,119.20373 0.48112,131.88505 l 0.23311,23.05696 -175.84639,-0.0229 c -136.78718,-0.0178 -175.53163,-0.13065 -174.42932,-0.50787 1.46958,-0.5029 1.8987,-1.28425 1.25524,-2.28554 -0.31314,-0.48727 -0.64642,-0.50007 -2.05242,-0.0788 -1.9404,0.58136 -2.52126,1.53983 -1.42083,2.34449 0.63881,0.46709 -1.47836,0.55066 -13.95099,0.55066 l -14.70409,0 0,-59.86031 z m 344.77029,57.82886 c 0.54797,0 0.0391,-1.6666 -0.61596,-2.01716 -0.97032,-0.5193 -3.14822,-0.55139 -3.45751,-0.051 -0.66233,1.07168 1.80611,2.71184 3.36246,2.23418 0.2976,-0.0913 0.61756,-0.16607 0.71101,-0.16607 l 0,0 z m -295.43251,-2.83397 c 1.06798,-0.40605 1.43115,-1.75316 0.60952,-2.26095 -0.68259,-0.42186 -3.24288,0.20231 -3.49192,0.85129 -0.6018,1.56826 0.73968,2.22432 2.8824,1.40966 l 0,0 z m 277.49398,-1.50421 c 0.38746,-1.0097 -0.70671,-1.85375 -2.47584,-1.90987 -1.32619,-0.0421 -1.57792,0.0872 -1.68868,0.86723 -0.0922,0.6494 0.14471,1.02688 0.81258,1.29469 1.52986,0.61344 3.06409,0.49807 3.35194,-0.25205 l 0,0 z m -259.18276,-1.75682 c 0.79111,-0.30078 1.03648,-0.64527 0.94052,-1.32045 -0.11255,-0.79187 -0.34396,-0.90028 -1.73806,-0.81425 -1.83197,0.11304 -2.80891,0.8621 -2.42596,1.86007 0.29461,0.76774 1.62778,0.88132 3.2235,0.27463 l 0,0 z m 240.68237,-0.96358 c 0.72927,-0.87872 0.0904,-1.83403 -1.41545,-2.11654 -1.85482,-0.34796 -2.69161,0.0263 -2.53164,1.13242 0.19057,1.31759 3.07373,2.03645 3.94709,0.98412 z m -221.69313,-1.73752 c 0.45412,-0.28066 0.37407,-1.67854 -0.11339,-1.9798 -0.81739,-0.50518 -3.55342,0.23719 -3.75804,1.01967 -0.30277,1.15781 0.53963,1.71342 2.1447,1.41457 0.78041,-0.14531 1.55744,-0.3498 1.72673,-0.45444 l 0,0 z m 203.35254,-0.61081 c 0.32236,-0.32236 0.34325,-0.70262 0.067,-1.21887 -0.29841,-0.5576 -0.86754,-0.75034 -2.21557,-0.75034 -1.64741,0 -1.81401,0.0902 -1.81401,0.98187 0,0.54002 0.22853,1.07408 0.50786,1.18679 0.95726,0.38627 2.98618,0.26913 3.45476,-0.19945 l 0,0 z m -184.9757,-1.40693 c 1.02125,-1.02126 0.52483,-1.56684 -1.54861,-1.70201 -1.9832,-0.12928 -2.66244,0.42247 -2.15334,1.74917 0.31697,0.826 2.86119,0.79359 3.70195,-0.0472 z m 166.62301,-0.15599 c 0.0935,0 0.16992,-0.43575 0.16992,-0.96834 0,-0.9882 -0.85324,-1.45205 -2.69272,-1.46385 -1.07183,-0.007 -1.87197,0.898 -1.54576,1.7481 0.23535,0.61331 2.23477,1.10153 3.35755,0.81984 0.2976,-0.0747 0.61756,-0.13575 0.71101,-0.13575 z m -148.18753,-1.1722 c 0.30131,-0.19095 0.48256,-0.69094 0.40279,-1.11108 -0.1088,-0.57296 -0.55917,-0.79431 -1.80184,-0.88558 -1.79025,-0.13149 -2.87978,0.64074 -2.45731,1.74167 0.25974,0.67688 2.91372,0.85237 3.85636,0.25499 l 0,0 z m 129.83479,-0.7076 c 0.40026,-1.04307 -0.53328,-1.77681 -2.26063,-1.77681 -1.64276,0 -2.27873,0.63816 -1.82203,1.82831 0.3394,0.88445 3.73996,0.84155 4.08266,-0.0515 l 0,0 z m -110.90182,-0.85257 c 0.52149,-1.35899 -1.09821,-2.07905 -3.33078,-1.48074 -0.95547,0.25605 -1.32359,1.97747 -0.48282,2.25772 1.00265,0.33422 3.58943,-0.19281 3.8136,-0.77698 z m 91.9842,0.3413 c 0.30131,-0.19095 0.4825,-0.69094 0.40264,-1.11108 -0.19371,-1.01906 -3.76169,-1.3554 -4.13233,-0.38953 -0.52178,1.35975 2.21464,2.46074 3.72969,1.50061 l 0,0 z m -73.94478,-0.40629 c 0.30131,-0.19095 0.4825,-0.69094 0.40264,-1.11108 -0.19704,-1.03656 -3.8721,-1.36068 -4.2504,-0.37486 -0.54904,1.43078 2.23702,2.50671 3.84776,1.48594 z m 18.50151,-0.66786 c 1.0886,-1.0886 0.35707,-1.81655 -1.82549,-1.81655 -1.83138,0 -1.98798,0.0774 -1.98798,0.98187 0,0.54002 0.22853,1.07408 0.50786,1.18679 1.04999,0.42369 2.70623,0.24726 3.30561,-0.35211 l 0,0 z m 18.47088,0.26157 c 0.30131,-0.19095 0.4825,-0.69094 0.40264,-1.11108 -0.20918,-1.10043 -3.76567,-1.34504 -4.17171,-0.28692 -0.51184,1.33385 2.2524,2.35915 3.76907,1.398 z m 18.91762,-0.30131 c 0.40026,-1.04307 -0.53328,-1.77681 -2.26063,-1.77681 -1.64276,0 -2.27873,0.63816 -1.82203,1.82831 0.3394,0.88445 3.73996,0.84155 4.08266,-0.0515 l 0,0 z"
       id="path5484"
       inkscape:connector-curvature="0" />
    <path
       style="fill:#00ffff;fill-opacity:1;stroke:#000000;stroke-width:1.62515998;stroke-miterlimit:4;stroke-opacity:1;stroke-dasharray:none;stroke-dashoffset:0"
       d="m 314.98418,888.20508 c -63.55251,-5.47707 -113.10742,-19.00992 -126.08434,-34.43212 -3.1869,-3.78741 -3.92846,-6.48584 -3.92846,-14.29499 l 0,-9.62627 5.63705,0 c 4.55193,0 5.4406,0.51195 4.61651,2.6595 -0.70176,1.82877 -0.3051,2.42101 1.26988,1.89602 1.25973,-0.41991 1.92475,-1.43385 1.47784,-2.25321 -0.44692,-0.81935 1.74704,-1.87881 4.87548,-2.35435 3.12843,-0.47555 79.91724,-0.61308 170.6418,-0.30564 123.11196,0.4172 165.94872,1.04875 168.87629,2.48979 3.07649,1.51435 4.06966,1.49264 4.60461,-0.10066 0.42212,-1.25722 3.72735,-2.03145 8.67244,-2.03145 7.86438,0 7.99037,0.08 7.99037,5.07448 0,4.32637 -0.35937,4.77621 -2.43774,3.05132 -1.99652,-1.65696 -2.43773,-1.5459 -2.43773,0.61359 0,1.45021 1.09698,2.63673 2.43773,2.63673 3.80291,0 2.93755,7.28245 -1.49072,12.54514 -13.26267,15.76178 -62.09467,28.87755 -128.52207,34.51969 -22.55271,1.91556 -93.57693,1.86204 -116.19894,-0.0876 l 0,10e-6 z"
       id="path5486"
       inkscape:connector-curvature="0" />
    <path
       style="fill:#00ffff;fill-opacity:1;stroke:#000000;stroke-width:0.81257999;stroke-miterlimit:4;stroke-opacity:1;stroke-dasharray:none;stroke-dashoffset:0"
       d="m 196.0616,830.11622 c -0.36824,-0.95963 0.11505,-1.22512 2.1397,-1.17546 1.43846,0.0353 2.06689,0.26721 1.39652,0.5154 -0.67038,0.24818 -1.63325,0.77714 -2.1397,1.17546 -0.58596,0.46084 -1.09382,0.2734 -1.39652,-0.5154 z"
       id="path5488"
       inkscape:connector-curvature="0" />
    <path
       style="fill:#00ffff;fill-opacity:1;stroke:#000000;stroke-width:0.81257999;stroke-miterlimit:4;stroke-opacity:1;stroke-dasharray:none;stroke-dashoffset:0"
       d=""
       id="path5490"
       inkscape:connector-curvature="0" />
    <path
       style="fill:#00ffff;fill-opacity:1;stroke:#000000;stroke-width:0.81257999;stroke-miterlimit:4;stroke-opacity:1;stroke-dasharray:none;stroke-dashoffset:0"
       d=""
       id="path5492"
       inkscape:connector-curvature="0" />
    <path
       style="fill:#00ffff;fill-opacity:1;stroke:#000000;stroke-width:0.81257999;stroke-miterlimit:4;stroke-opacity:1;stroke-dasharray:none;stroke-dashoffset:0"
       d=""
       id="path5494"
       inkscape:connector-curvature="0" />
    <path
       style="fill:#00ffff;fill-opacity:1;stroke:#000000;stroke-width:0.81257999;stroke-miterlimit:4;stroke-opacity:1;stroke-dasharray:none;stroke-dashoffset:0"
       d=""
       id="path5496"
       inkscape:connector-curvature="0" />
    <path
       style="fill:#00ffff;fill-opacity:1;stroke:#000000;stroke-width:0.81257999;stroke-miterlimit:4;stroke-opacity:1;stroke-dasharray:none;stroke-dashoffset:0"
       d=""
       id="path5498"
       inkscape:connector-curvature="0" />
    <path
       style="fill:#00ffff;fill-opacity:1;stroke:#000000;stroke-width:0.81257999;stroke-miterlimit:4;stroke-opacity:1;stroke-dasharray:none;stroke-dashoffset:0"
       d="m 212.81917,828.38568 c 0.27001,-0.27002 0.97086,-0.29889 1.55744,-0.0642 0.64823,0.2594 0.45568,0.45195 -0.49093,0.49094 -0.85659,0.0353 -1.33652,-0.15677 -1.06651,-0.42678 z"
       id="path5500"
       inkscape:connector-curvature="0" />
    <path
       style="fill:#00ffff;fill-opacity:1;stroke:#000000;stroke-width:0.81257999;stroke-miterlimit:4;stroke-opacity:1;stroke-dasharray:none;stroke-dashoffset:0"
       d=""
       id="path5502"
       inkscape:connector-curvature="0" />
    <path
       style="fill:#00ffff;fill-opacity:1;stroke:#000000;stroke-width:0.81257999;stroke-miterlimit:4;stroke-opacity:1;stroke-dasharray:none;stroke-dashoffset:0"
       d=""
       id="path5504"
       inkscape:connector-curvature="0" />
    <path
       style="fill:#00ffff;fill-opacity:1;stroke:#000000;stroke-width:0.81257999;stroke-miterlimit:4;stroke-opacity:1;stroke-dasharray:none;stroke-dashoffset:0"
       d="m 523.00466,829.68919 -14.22015,-0.46461 16.90899,-0.17398 c 11.109,-0.11431 16.73673,0.10473 16.40679,0.63859 -0.27622,0.44692 -1.48619,0.73428 -2.68885,0.63859 -1.20265,-0.0957 -8.5857,-0.38306 -16.40678,-0.63859 z"
       id="path5506"
       inkscape:connector-curvature="0" />
    <path
       style="fill:#00ffff;fill-opacity:1;stroke:#000000;stroke-width:0.81257999;stroke-miterlimit:4;stroke-opacity:1;stroke-dasharray:none;stroke-dashoffset:0"
       d=""
       id="path5508"
       inkscape:connector-curvature="0" />
    <path
       style="fill:#00ffff;fill-opacity:1;stroke:#000000;stroke-width:0.81257999;stroke-miterlimit:4;stroke-opacity:1;stroke-dasharray:none;stroke-dashoffset:0"
       d=""
       id="path5510"
       inkscape:connector-curvature="0" />
    <path
       style="fill:#00ffff;fill-opacity:1;stroke:#000000;stroke-width:0.81257999;stroke-miterlimit:4;stroke-opacity:1;stroke-dasharray:none;stroke-dashoffset:0"
       d=""
       id="path5512"
       inkscape:connector-curvature="0" />
    <path
       style="fill:#00ffff;fill-opacity:1;stroke:#000000;stroke-width:0.81257999;stroke-miterlimit:4;stroke-opacity:1;stroke-dasharray:none;stroke-dashoffset:0"
       d=""
       id="path5514"
       inkscape:connector-curvature="0" />
    <path
       style="fill:#00ffff;fill-opacity:1;stroke:#000000;stroke-width:0.81257999;stroke-miterlimit:4;stroke-opacity:1;stroke-dasharray:none;stroke-dashoffset:0"
       d=""
       id="path5516"
       inkscape:connector-curvature="0" />
    <path
       style="fill:#00ffff;fill-opacity:1;stroke:#000000;stroke-width:0.81257999;stroke-miterlimit:4;stroke-opacity:1;stroke-dasharray:none;stroke-dashoffset:0"
       d="m 555.91415,830.50177 -6.50064,-0.51456 6.70378,-0.14901 c 4.02681,-0.0895 6.70379,0.17547 6.70379,0.66357 0,0.44692 -0.0914,0.74552 -0.20315,0.66357 -0.11173,-0.082 -3.12843,-0.38056 -6.70378,-0.66357 z"
       id="path5518"
       inkscape:connector-curvature="0" />
    <path
       style="fill:#00ffff;fill-opacity:1;stroke:#000000;stroke-width:0.81257999;stroke-miterlimit:4;stroke-opacity:1;stroke-dasharray:none;stroke-dashoffset:0"
       d="m 545.96004,828.27261 c 3.46362,-0.15232 9.13137,-0.15232 12.59499,0 3.46362,0.15232 0.62975,0.27694 -6.29749,0.27694 -6.92725,0 -9.76112,-0.12462 -6.2975,-0.27694 z"
       id="path5520"
       inkscape:connector-curvature="0" />
    <path
       style="fill:#00ffff;fill-opacity:1;stroke:#000000;stroke-width:0.81257999;stroke-miterlimit:4;stroke-opacity:1;stroke-dasharray:none;stroke-dashoffset:0"
       d=""
       id="path5522"
       inkscape:connector-curvature="0" />
    <path
       style="fill:#00ffff;fill-opacity:1;stroke:#000000;stroke-width:0.81257999;stroke-miterlimit:4;stroke-opacity:1;stroke-dasharray:none;stroke-dashoffset:0"
       d="m 560.97731,828.34361 c 0.55014,-0.22259 1.64712,-0.23614 2.43774,-0.0301 0.79061,0.20602 0.34049,0.38814 -1.00026,0.4047 -1.34076,0.0166 -1.98763,-0.15201 -1.43748,-0.37459 z"
       id="path5524"
       inkscape:connector-curvature="0" />
    <path
       style="fill:#00ffff;fill-opacity:1;stroke:#000000;stroke-width:0.81257999;stroke-miterlimit:4;stroke-opacity:1;stroke-dasharray:none;stroke-dashoffset:0"
       d="m 560.97731,828.34361 c 0.55014,-0.22259 1.64712,-0.23614 2.43774,-0.0301 0.79061,0.20602 0.34049,0.38814 -1.00026,0.4047 -1.34076,0.0166 -1.98763,-0.15201 -1.43748,-0.37459 z"
       id="path5526"
       inkscape:connector-curvature="0" />
    <path
       style="fill:#00ffff;fill-opacity:1;stroke:#000000;stroke-width:0.81257999;stroke-miterlimit:4;stroke-opacity:1;stroke-dasharray:none;stroke-dashoffset:0"
       d="m 565.38712,837.00241 c 0,-1.1173 0.18443,-1.57437 0.40985,-1.01573 0.22542,0.55865 0.22542,1.47281 0,2.03145 -0.22542,0.55865 -0.40985,0.10158 -0.40985,-1.01572 z"
       id="path5528"
       inkscape:connector-curvature="0" />
  </g>
</svg>
