<?xml version="1.0" encoding="UTF-8" standalone="no"?>
<!-- Created with Inkscape (http://www.inkscape.org/) -->

<svg
   xmlns:dc="http://purl.org/dc/elements/1.1/"
   xmlns:cc="http://creativecommons.org/ns#"
   xmlns:rdf="http://www.w3.org/1999/02/22-rdf-syntax-ns#"
   xmlns:svg="http://www.w3.org/2000/svg"
   xmlns="http://www.w3.org/2000/svg"
   xmlns:sodipodi="http://sodipodi.sourceforge.net/DTD/sodipodi-0.dtd"
   xmlns:inkscape="http://www.inkscape.org/namespaces/inkscape"
   width="744.09448819"
   height="1052.3622047"
   id="svg3003"
   version="1.1"
   inkscape:version="0.48.4 r9939"
   sodipodi:docname="Dropper.svg">
  <defs
     id="defs3005" />
  <sodipodi:namedview
     id="base"
     pagecolor="#ffffff"
     bordercolor="#666666"
     borderopacity="1.0"
     inkscape:pageopacity="0.0"
     inkscape:pageshadow="2"
     inkscape:zoom="0.35740385"
     inkscape:cx="-13.61529"
     inkscape:cy="640.90002"
     inkscape:document-units="px"
     inkscape:current-layer="layer1"
     showgrid="false"
     inkscape:window-width="1301"
     inkscape:window-height="744"
     inkscape:window-x="65"
     inkscape:window-y="24"
     inkscape:window-maximized="1" />
  <metadata
     id="metadata3008">
    <rdf:RDF>
      <cc:Work
         rdf:about="">
        <dc:format>image/svg+xml</dc:format>
        <dc:type
           rdf:resource="http://purl.org/dc/dcmitype/StillImage" />
        <dc:title />
      </cc:Work>
    </rdf:RDF>
  </metadata>
  <g
     inkscape:label="Layer 1"
     inkscape:groupmode="layer"
     id="layer1">
    <path
       style="fill:none;stroke:#000000;stroke-width:1px;stroke-linecap:butt;stroke-linejoin:miter;stroke-opacity:1"
       d="M 125.7143,712.36218 C 517.14286,286.6479 517.14286,286.6479 517.14286,286.6479 l 0,0 0,0"
       id="path3011"
       inkscape:connector-curvature="0" />
    <path
       style="fill:none;stroke:#000000;stroke-width:0.9846406px;stroke-linecap:butt;stroke-linejoin:miter;stroke-opacity:1"
       d="m 208.56375,763.79843 c 382.65143,-407.8711 382.65143,-407.8711 382.65143,-407.8711 l 0,0"
       id="path3013"
       inkscape:connector-curvature="0" />
    <path
       style="fill:none;stroke:#000000;stroke-width:1px;stroke-linecap:butt;stroke-linejoin:miter;stroke-opacity:1"
       d="m 125.9668,712.28296 c -10.5588,24.84419 -18.7871,44.15257 -25.0428,59.15789 -22.5213,54.02063 -20.6715,52.27068 -20.6715,52.27068 l 0,0"
       id="path3027"
       inkscape:connector-curvature="0"
       sodipodi:nodetypes="cscc" />
    <path
       style="fill:none;stroke:#000000;stroke-width:1.01990807px;stroke-linecap:butt;stroke-linejoin:miter;stroke-opacity:1"
       d="M 209.23987,763.46894 C 103.2549,835.57709 103.2549,835.57709 103.2549,835.57709"
       id="path3029"
       inkscape:connector-curvature="0" />
    <path
       style="fill:none;stroke:#000000;stroke-width:0.89280015px;stroke-linecap:butt;stroke-linejoin:miter;stroke-opacity:1"
       d="M 103.1041,835.86182 C 71.5817,869.71244 71.5817,869.71244 71.5817,869.71244"
       id="path3039"
       inkscape:connector-curvature="0" />
    <path
       style="fill:none;stroke:#000000;stroke-width:0.7358833px;stroke-linecap:butt;stroke-linejoin:miter;stroke-opacity:1"
       d="m 51.609,857.77608 c 7.3366,0.71322 15.5397,-2.03947 19.3388,12.82403 -0.021,0.007 -18.5084,6.47792 -19.3388,-12.82403"
       id="path3041"
       inkscape:connector-curvature="0"
       sodipodi:nodetypes="ccc" />
    <path
       style="fill:none;stroke:#000000;stroke-width:1px;stroke-linecap:butt;stroke-linejoin:miter;stroke-opacity:1"
       d="m 51.5954,857.59221 c 29.0288,-34.6247 29.0288,-34.6247 29.0288,-34.6247 l 0,0"
       id="path3045"
       inkscape:connector-curvature="0" />
    <path
       style="fill:none;stroke:#000000;stroke-width:0.91878605px;stroke-linecap:butt;stroke-linejoin:miter;stroke-opacity:1"
       d="m 516.62558,285.56452 c 74.751,69.69434 74.751,69.69434 74.751,69.69434"
       id="path3031-2"
       inkscape:connector-curvature="0" />
    <path
       style="fill:none;stroke:#000000;stroke-width:1px;stroke-linecap:butt;stroke-linejoin:miter;stroke-opacity:1"
       d="M 516.05596,286.80932 C 512.55852,228.05226 513.258,227.35277 513.258,227.35277"
       id="path3065"
       inkscape:connector-curvature="0" />
    <path
       style="fill:none;stroke:#000000;stroke-width:1px;stroke-linecap:butt;stroke-linejoin:miter;stroke-opacity:1"
       d="M 591.60075,355.35922 C 657.3527,334.37456 657.3527,334.37456 657.3527,334.37456"
       id="path3067"
       inkscape:connector-curvature="0" />
    <path
       style="fill:none;stroke:#000000;stroke-width:1px;stroke-linecap:butt;stroke-linejoin:miter;stroke-opacity:1"
       d="m 513.95749,226.65328 c 60.85553,-75.5448 60.85553,-75.5448 60.85553,-75.5448"
       id="path3069"
       inkscape:connector-curvature="0" />
    <path
       style="fill:none;stroke:#000000;stroke-width:1px;stroke-linecap:butt;stroke-linejoin:miter;stroke-opacity:1"
       d="m 655.95373,334.37456 c 62.95399,-74.84531 62.95399,-74.84531 62.95399,-74.84531"
       id="path3071"
       inkscape:connector-curvature="0" />
    <path
       style="fill:none;stroke:#000000;stroke-width:1px;stroke-linecap:butt;stroke-linejoin:miter;stroke-opacity:1"
       d="m 574.11353,150.409 c 8.1491,-2.88893 -17.62334,6.25828 33.12825,-11.30114 119.20376,-41.243021 134.15165,49.21598 111.66594,120.42139"
       id="path3073"
       inkscape:connector-curvature="0"
       sodipodi:nodetypes="csc" />
    <path
       style="fill:none;stroke:#000000;stroke-width:1px;stroke-linecap:butt;stroke-linejoin:miter;stroke-opacity:1"
       d="m 430.71832,380.89057 c 12.59554,65.63403 78.13463,62.17714 78.34275,62.2545"
       id="path3091"
       inkscape:connector-curvature="0"
       sodipodi:nodetypes="cc" />
    <path
       style="fill:none;stroke:#000000;stroke-width:1px;stroke-linecap:butt;stroke-linejoin:miter;stroke-opacity:1"
       d="m 430.01883,380.54083 c 26.04875,8.54891 38.6523,16.84931 52.17281,27.55289 23.98459,18.98754 27.19674,34.63431 27.21917,34.70161"
       id="path3093"
       inkscape:connector-curvature="0"
       sodipodi:nodetypes="csc" />
    <path
       style="fill:none;stroke:#000000;stroke-width:1px;stroke-linecap:butt;stroke-linejoin:miter;stroke-opacity:1"
       d="m 576.81302,150.31053 c 76.39774,108.81602 142.65014,103.52815 142.69572,103.52435"
       id="path3095"
       inkscape:connector-curvature="0"
       sodipodi:nodetypes="cc" />
    <path
       style="fill:none;stroke:#000000;stroke-width:1px;stroke-linecap:butt;stroke-linejoin:miter;stroke-opacity:1"
       d="m 514.46005,223.05737 c 95.87447,111.91821 139.53522,111.91821 139.89777,111.91821"
       id="path3097"
       inkscape:connector-curvature="0"
       sodipodi:nodetypes="cc" />
    <path
       style="fill:none;stroke:#000000;stroke-width:1px;stroke-linecap:butt;stroke-linejoin:miter;stroke-opacity:1"
       d="m 282.83515,541.23561 c 14.36974,23.95427 37.58784,32.14889 37.59061,32.14987"
       id="path3101"
       inkscape:connector-curvature="0"
       sodipodi:nodetypes="cc" />
    <path
       style="fill:none;stroke:#000000;stroke-width:1px;stroke-linecap:butt;stroke-linejoin:miter;stroke-opacity:1"
       d="m 234.36305,595.14846 c 5.91355,15.69844 31.45488,29.07724 31.65525,29.18219"
       id="path3103"
       inkscape:connector-curvature="0"
       sodipodi:nodetypes="cc" />
    <path
       style="fill:none;stroke:#000000;stroke-width:1px;stroke-linecap:butt;stroke-linejoin:miter;stroke-opacity:1"
       d="m 187.37479,646.58825 c 15.55071,25.02039 33.62206,32.1457 33.6337,32.14986"
       id="path3105"
       inkscape:connector-curvature="0"
       sodipodi:nodetypes="cc" />
    <path
       style="fill:#aaeeff"
       d="m 67.7458,860.78151 c -0.8858,-2.30832 -3.5387,-4.19694 -5.8953,-4.19694 -6.2546,0 -5.5022,-1.74911 7.2654,-16.89075 8.5241,-10.10904 17.7212,-28.50017 35.104,-70.19642 l 23.5539,-56.4986 29.22231,-31.33235 29.22227,-31.33236 14.98965,14.98965 c 8.24431,8.24431 16.47241,14.98965 18.28467,14.98965 1.81226,0 -4.40083,-7.53039 -13.80687,-16.73421 l -17.10189,-16.73418 21.81809,-23.64815 21.8181,-23.64814 11.59653,10.68931 c 12.61352,11.62673 23.59577,18.49341 23.59577,14.75331 0,-1.29678 -5.57243,-6.2856 -12.38318,-11.08625 -21.13395,-14.89659 -21.02706,-15.91272 4.60154,-43.74583 l 22.59361,-24.53704 9.88264,10.17468 c 10.05006,10.34704 25.06485,19.73059 27.56721,17.22822 0.75823,-0.75823 -1.56216,-2.88855 -5.15644,-4.73405 -7.82533,-4.01797 -27.51969,-22.44826 -27.51969,-25.75336 0,-3.78639 140.79784,-155.78359 143.02831,-154.40509 1.11915,0.69168 2.82885,4.87276 3.79932,9.29129 2.23677,10.18395 18.91636,29.81657 30.42387,35.81026 4.8469,2.5245 15.53223,6.59752 23.74521,9.05115 l 14.93272,4.46115 -147.83559,157.65165 -147.83557,157.65164 -51.76217,35.06227 C 121.4534,820.17033 98.6265,837.7897 88.8193,848.57635 73.0367,865.93517 70.3259,867.50516 67.7458,860.78151 z"
       id="path3002"
       inkscape:connector-curvature="0" />
  </g>
</svg>
