<?xml version="1.0" encoding="UTF-8" standalone="no"?>
<!-- Created with Inkscape (http://www.inkscape.org/) -->

<svg
   xmlns:dc="http://purl.org/dc/elements/1.1/"
   xmlns:cc="http://creativecommons.org/ns#"
   xmlns:rdf="http://www.w3.org/1999/02/22-rdf-syntax-ns#"
   xmlns:svg="http://www.w3.org/2000/svg"
   xmlns="http://www.w3.org/2000/svg"
   xmlns:sodipodi="http://sodipodi.sourceforge.net/DTD/sodipodi-0.dtd"
   xmlns:inkscape="http://www.inkscape.org/namespaces/inkscape"
   width="744.09448819"
   height="1052.3622047"
   id="svg2"
   version="1.1"
   inkscape:version="0.48.4 r9939"
   sodipodi:docname="New document 1">
  <defs
     id="defs4" />
  <sodipodi:namedview
     id="base"
     pagecolor="#ffffff"
     bordercolor="#666666"
     borderopacity="1.0"
     inkscape:pageopacity="0.0"
     inkscape:pageshadow="2"
     inkscape:zoom="0.35"
     inkscape:cx="375"
     inkscape:cy="520"
     inkscape:document-units="px"
     inkscape:current-layer="layer1"
     showgrid="false"
     inkscape:window-width="1366"
     inkscape:window-height="716"
     inkscape:window-x="0"
     inkscape:window-y="0"
     inkscape:window-maximized="1" />
  <metadata
     id="metadata7">
    <rdf:RDF>
      <cc:Work
         rdf:about="">
        <dc:format>image/svg+xml</dc:format>
        <dc:type
           rdf:resource="http://purl.org/dc/dcmitype/StillImage" />
        <dc:title></dc:title>
      </cc:Work>
    </rdf:RDF>
  </metadata>
  <g
     inkscape:label="Layer 1"
     inkscape:groupmode="layer"
     id="layer1">
    <path
       style="fill:none;stroke:#000000;stroke-width:1px;stroke-linecap:butt;stroke-linejoin:miter;stroke-opacity:1"
       d="m 97.142857,369.50504 c 3.809523,-4.76191 7.619043,-9.52381 11.428573,-14.28571 0.95238,0 2.00531,0.42591 2.85714,0 13.07602,-6.53802 -12.124046,1.1842 8.57143,-5.71429 1.74312,-0.58104 14.93619,0 17.14286,0 2.0314,0 8.57143,-1.20013 8.57143,2.85714 0,1.34687 -1.90477,1.90476 -2.85715,2.85715 -0.95238,0.95238 -1.90476,3.80952 -2.85714,2.85714 -0.95238,-0.95238 4.06182,-3.45948 2.85714,-2.85714 -1.46542,0.73271 -12.67235,8.20184 -14.28571,11.42857 -0.42592,0.85183 0.42592,2.0053 0,2.85714 -0.60234,1.20468 -2.25481,1.65247 -2.85714,2.85714 -0.7708,1.54159 0.77079,4.1727 0,5.71429 -0.60234,1.20468 -2.85715,1.51027 -2.85715,2.85714 0,0.95238 1.90476,0 2.85715,0 7.61904,0 15.23809,0 22.85714,0 0.67894,0 10.7882,-0.32018 11.42857,0 1.85854,0.92927 4.03945,3.34967 2.85714,5.71429 -1.20467,2.40935 -4.50961,3.30493 -5.71428,5.71428 -0.42592,0.85184 0.42591,2.00531 0,2.85715 -0.60234,1.20467 -1.90476,1.90476 -2.85715,2.85714 -0.95238,0.95238 -1.65246,2.2548 -2.85714,2.85714 -1.70367,0.85184 -4.01061,-0.85183 -5.71428,0 -2.32319,1.16159 -2.36404,4.53227 -5.71429,2.85714 -1.20468,-0.60233 -1.57939,-2.43122 -2.85714,-2.85714 -1.80702,-0.60234 -3.80953,0 -5.71429,0 -1.90476,-0.95238 -3.69398,-2.18371 -5.71428,-2.85714 -2.29972,-0.76657 -9.6028,0.91289 -11.42858,0 -9.47595,-9.47595 2.69374,1.34687 -5.71428,-2.85714 -1.20468,-0.60234 -1.51027,-2.85715 -2.85714,-2.85715 -2.12959,0 -3.64829,2.34064 -5.71429,2.85715 -1.84789,0.46197 -3.809524,0 -5.714286,0 -0.952381,0 -2.005307,-0.42592 -2.857143,0 -1.587529,0.79376 -4.793022,5.71428 -5.714285,5.71428 -0.952381,0 0,-1.90476 0,-2.85714 0,-0.95238 0,-1.90476 0,-2.85714 0,-1.46677 -0.471345,-10.72156 0,-11.42858 8.658714,-12.98807 10.070306,-17.14285 25.714284,-17.14285 1.34687,0 1.90476,1.90476 2.85714,2.85714"
       id="path2985"
       inkscape:connector-curvature="0" />
    <path
       style="fill:none;stroke:#000000;stroke-width:1px;stroke-linecap:butt;stroke-linejoin:miter;stroke-opacity:1"
       d="m 214.28571,612.36218 2.85715,0 c 6.62049,-0.13331 5.2859,-14.07152 11.42857,-17.14285 0.85183,-0.42592 1.90476,0 2.85714,0 0.95238,0 1.90476,0 2.85714,0 2.47596,0 9.7735,-0.55169 11.42858,0 2.0203,0.67343 3.69398,2.1837 5.71428,2.85714 1.22579,0.40859 9.87806,-1.30663 5.71429,2.85714 -0.95238,0.95238 -3.80953,-3.80952 -2.85715,-2.85714 1.90477,1.90476 4.22007,3.47296 5.71429,5.71428 0.92127,1.38191 -0.78873,11.91953 0,14.28572 0.67344,2.0203 2.18371,3.69398 2.85714,5.71428 0.59943,1.79829 0,11.71039 0,14.28572 0,0.95238 0,1.90476 0,2.85714 0,0.95238 0.42592,2.00531 0,2.85714 -1.68901,3.37802 -5.06702,4.02528 -8.57143,2.85715 -1.27775,-0.42592 -1.65246,-2.25481 -2.85714,-2.85715 -0.39021,-0.1951 -16.75265,-0.1951 -17.14286,0 -3.56157,1.78079 -3.76569,4.93724 -2.85714,8.57143 0.5165,2.06601 3.80953,3.80953 2.85714,5.71429 -0.85183,1.70367 -3.80952,0 -5.71428,0 -2.42471,0 -15.56778,0.52503 -17.14286,0 -1.27775,-0.42592 -3.80952,-1.90476 -2.85714,-2.85714 0.95238,-0.95239 2.85714,4.20401 2.85714,2.85714 0,-2.12959 -2.18371,-3.69398 -2.85714,-5.71429 -0.19918,-0.59754 -0.19918,-13.68817 0,-14.28571 3.83734,-11.51202 4.85924,-1.14706 8.57143,-8.57143 0.42591,-0.85184 0,-1.90476 0,-2.85714 0,-0.95238 0,-1.90477 0,-2.85715 0,-3.80952 0.92395,-7.73279 0,-11.42857 -0.23099,-0.92395 -2.00531,0.42592 -2.85715,0 -4.96701,-2.4835 -9.3187,-6.08792 -14.28571,-8.57143 -0.85184,-0.42591 -1.90476,0 -2.85714,0 -6.45496,0 1.27775,-0.42591 -8.57143,2.85715 -0.62737,0.20912 -11.00381,0.21238 -11.42857,0 -2.61521,-1.30761 -5.0183,-6.48346 -5.71429,-8.57143 -0.32623,-0.9787 -0.32623,-10.44988 0,-11.42857 0.67344,-2.02031 1.08522,-4.53301 2.85714,-5.71429 1.58486,-1.05657 3.80953,0 5.71429,0 1.90476,0 3.80952,0 5.71429,0 4.7619,0 9.52381,0 14.28571,0 1.87745,0 6.95943,-0.53733 8.57143,0 2.0203,0.67344 3.69398,2.18371 5.71428,2.85714 0.90351,0.30117 2.00531,-0.42591 2.85715,0 1.20467,0.60234 1.90476,1.90477 2.85714,2.85715 0.95238,0.95238 2.2548,1.65246 2.85714,2.85714 0.11831,0.23662 0.12255,8.2038 0,8.57143 -1.62184,4.86554 -7.5151,9.48353 -5.71428,14.28571 1.94989,5.1997 9.3187,6.08792 14.28571,8.57143 0.85184,0.42592 2.00531,0.42592 2.85714,0 1.20468,-0.60234 1.57939,-2.43122 2.85715,-2.85714 1.53601,-0.51201 9.00957,0 11.42857,0"
       id="path3006"
       inkscape:connector-curvature="0" />
    <path
       style="fill:none;stroke:#000000;stroke-width:1px;stroke-linecap:butt;stroke-linejoin:miter;stroke-opacity:1"
       d="m 194.28571,466.6479 c 2.85715,-3.80953 5.20426,-8.0614 8.57143,-11.42857 0.94183,-0.94183 9.36101,0.68918 11.42857,0 1.27776,-0.42592 1.65247,-2.25481 2.85715,-2.85715 0.85183,-0.42592 1.90476,0 2.85714,0 0.95238,0 2.00531,-0.42592 2.85714,0 1.20468,0.60234 1.65247,2.25481 2.85715,2.85715 1.70367,0.85183 4.01061,-0.85184 5.71428,0 1.20468,0.60233 1.90476,1.90476 2.85714,2.85714 0.95239,0.95238 3.80953,1.90476 2.85715,2.85714 -0.95238,0.95238 -2.85715,-4.20401 -2.85715,-2.85714 0,2.12959 2.18371,3.69398 2.85715,5.71428 0.59776,1.7933 0,9.12847 0,11.42858 0,1.28673 0.43476,7.7019 0,8.57142 -1.20468,2.40936 -4.50961,3.30494 -5.71429,5.71429 -0.42592,0.85184 0,1.90476 0,2.85714 0,0.95238 0,1.90476 0,2.85715 0,1.98725 0.51662,13.25247 0,14.28571 -0.60234,1.20468 -1.90476,1.90476 -2.85714,2.85714 -0.95238,0.95238 -1.65247,2.25481 -2.85714,2.85715 -0.85184,0.42591 -1.90477,0 -2.85715,0 -0.95238,0 -1.90476,0 -2.85714,0 -4.7619,0 -9.52381,0 -14.28571,0 -1.2019,0 -16.29293,0.42496 -17.14286,0 -1.20468,-0.60234 -2.25481,-1.65247 -2.85714,-2.85715 -0.15946,-0.3189 -0.15946,-13.96681 0,-14.28571 0.60233,-1.20468 2.2548,-1.65247 2.85714,-2.85714 0.42592,-0.85184 -0.42592,-2.00531 0,-2.85715 0.60234,-1.20467 1.65246,-2.2548 2.85714,-2.85714 2.24692,-1.12346 11.42857,2.47682 11.42857,-2.85714 0,-0.95238 -2.0053,0.42591 -2.85714,0 -13.07602,-6.53801 12.12405,1.1842 -8.57143,-5.71429 -0.90351,-0.30117 -3.04392,0.93389 -2.85714,0 1.00582,-5.02913 9.34084,-10.65915 5.71428,-14.28571 -3.62655,-3.62656 -12.38095,10.47619 -14.28571,5.71428 -1.90476,-4.7619 9.59902,-3.63131 14.28571,-5.71428 11.36993,-5.0533 8.81638,-3.10209 14.28572,-8.57143"
       id="path3014"
       inkscape:connector-curvature="0" />
    <path
       style="fill:none;stroke:#000000;stroke-width:1px;stroke-linecap:butt;stroke-linejoin:miter;stroke-opacity:1"
       d="m 248.57143,303.79075 c 1.88369,-11.80256 2.04047,-10.6119 8.57143,-17.14285 0.95238,-0.95238 1.65246,-2.25481 2.85714,-2.85715 0.85184,-0.42591 1.90476,0 2.85714,0 2.85715,0 5.71429,0 8.57143,0 7.61905,0 15.2381,0 22.85714,0 2.95577,0 3.949,-0.67343 5.71429,2.85715 0.51662,1.03324 0,12.29845 0,14.28571 0,1.98726 0.51662,13.25248 0,14.28572 -2.60131,5.20261 -2.16737,1.67483 -5.71429,2.85714 -2.0203,0.67343 -3.69398,2.18371 -5.71428,2.85714 -0.90351,0.30117 -2.00531,-0.42592 -2.85714,0 -1.58753,0.79377 -4.79303,5.71429 -5.71429,5.71429 -2.32318,0 -3.7109,-4.00677 -2.85714,-5.71429 0.60234,-1.20468 2.2548,-1.65246 2.85714,-2.85714 0.85184,-1.70367 -0.85184,-4.01062 0,-5.71429 0.60234,-1.20467 1.90476,-1.90476 2.85714,-2.85714 0.95238,-0.95238 1.65247,-2.2548 2.85715,-2.85714 0.85183,-0.42592 1.90476,0 2.85714,0 2.85714,0 5.8609,-0.90351 8.57143,0 1.27775,0.42591 3.80952,1.90476 2.85714,2.85714 -0.95238,0.95238 -2.85714,-4.20401 -2.85714,-2.85714 0,2.12959 2.1837,3.69398 2.85714,5.71428 0.59777,1.7933 0,9.12847 0,11.42857 0,1.90477 0,3.80953 0,5.71429 0,0.95238 0.42592,2.00531 0,2.85714 -0.60234,1.20468 -2.2548,1.65247 -2.85714,2.85715 -0.85184,1.70367 0.85183,4.01061 0,5.71428 -0.60234,1.20468 -1.90476,1.90476 -2.85715,2.85714 -0.95238,0.95238 -1.65246,2.25481 -2.85714,2.85715 -1.70367,0.85183 -4.01061,-0.85184 -5.71428,0 -1.20468,0.60234 -1.65247,2.2548 -2.85715,2.85714 -0.85183,0.42592 -1.90476,0 -2.85714,0 -2.95577,0 -3.949,0.67343 -5.71429,-2.85714 -0.43476,-0.86953 0,-7.2847 0,-8.57143 0,-6.66667 0,-13.33334 0,-20 0,-1.70752 0.67344,-5.71429 -2.85714,-5.71429 -0.92126,0 -4.12676,4.92052 -5.71428,5.71429 -2.28572,1.14286 -6.28572,-1.14286 -8.57143,0 -3.27078,1.63539 -1.69398,4.19724 -5.71429,2.85714 -25.85273,-8.61758 29.88603,7.41452 -2.85714,-17.14286 -4.10298,-3.07723 -9.22677,4.87113 -14.28572,5.71429 -1.32854,0.22142 -1.90476,-1.90476 -2.85714,-2.85714 -0.95238,-0.95238 -1.90476,-1.90477 -2.85714,-2.85715 -0.95238,-0.95238 -2.25481,-1.65246 -2.85714,-2.85714 -0.42592,-0.85183 0.42591,-2.00531 0,-2.85714 -1.16159,-2.32318 -4.53227,-2.36403 -2.85715,-5.71429 1.3076,-2.6152 6.48346,-5.01829 8.57143,-5.71428 0.90351,-0.30117 2.06472,0.52828 2.85714,0 2.24133,-1.49422 3.47296,-4.22007 5.71429,-5.71429 0.79243,-0.52828 1.90476,0 2.85714,0 8.05715,0 5.46664,-0.24764 11.42857,5.71429 0.95239,0.95238 3.28306,1.57939 2.85715,2.85714 -1.75611,5.26831 -9.124,8.75999 -8.57143,14.28571 0.60679,6.06795 8.70137,8.83131 11.42857,14.28572 0.60234,1.20468 -1.65247,2.2548 -2.85714,2.85714 -0.81772,0.40886 -12.75939,0 -14.28572,0 -2.85714,0 -5.71428,0 -8.57143,0 -0.95238,0 -2.85714,0.95238 -2.85714,0 0,-5.47975 10.57989,-1.44267 11.42857,-2.85714 2.63871,-4.39785 0.78289,-12.87675 5.71429,-14.28572 5.33962,-1.5256 9.46411,5.81623 14.28571,8.57143 1.849,1.05657 4.20844,1.3513 5.71429,2.85715 0.11497,0.11497 0,10.37932 0,11.42857 0,9.197 -0.67344,-4.87745 2.85714,5.71428 0.0433,0.12979 0.20535,13.87502 0,14.28572 -0.3793,0.7586 -7.81282,8.19212 -8.57143,8.57143 -8.40802,4.20401 3.76167,-6.61881 -5.71428,2.85714 -0.95238,0.95238 -1.65247,2.2548 -2.85715,2.85714 -0.85183,0.42592 -1.90476,0 -2.85714,0 -0.95238,0 -2.18371,0.67344 -2.85714,0 -0.67344,-0.67343 0,-1.90476 0,-2.85714 0,-0.95238 0,-1.90476 0,-2.85714 0,-11.42858 0,-22.85715 0,-34.28572 0,-0.95238 0,-1.90476 0,-2.85714 0,-4.76191 -4.76191,-14.28572 0,-14.28572 5.55329,0 6.81532,9.01741 8.57143,14.28572 0.0608,0.18248 -7.95162,7.64171 -8.57143,8.57143 -1.18128,1.77192 -1.3513,4.20844 -2.85714,5.71428 -0.67344,0.67344 -1.9332,-0.23098 -2.85715,0 -2.92177,0.73045 -5.64965,2.1267 -8.57143,2.85715 -2.92177,0.73044 -10.70101,-0.72756 -8.57142,-2.85715 0.95238,-0.95238 2.85714,4.20402 2.85714,2.85715 0,-2.12959 -2.18371,-3.69399 -2.85714,-5.71429 -0.65508,-1.96524 0.84288,-6.88566 0,-8.57143 -0.60234,-1.20468 -2.25481,-1.65246 -2.85715,-2.85714 -0.32018,-0.64037 0,-10.74963 0,-11.42857 0,-5.7156 -1.45411,-15.68875 2.85715,-20 5.78069,-5.78069 8.20155,-0.82909 14.28571,-2.85715 2.78782,-0.92927 2.03548,-4.69654 5.71429,-2.85714 1.20467,0.60234 1.90476,1.90476 2.85714,2.85714 0.95238,0.95238 2.2548,1.65247 2.85714,2.85715 0.42592,0.85183 0.15657,1.91772 0,2.85714 -0.79835,4.79013 -3.80952,9.52381 -2.85714,14.28571 1.68019,8.40098 8.60074,14.31503 14.28571,20 0.95238,0.95238 1.65247,2.25481 2.85715,2.85715 1.03323,0.51662 12.29845,0 14.28571,0 1.28674,0 7.7019,0.43476 8.57143,0 2.40935,-1.20468 3.30493,-4.50961 5.71428,-5.71429 0.85184,-0.42592 2.00531,0.42592 2.85715,0 0.54691,-0.27346 11.15511,-10.88165 11.42857,-11.42857 0.43476,-0.86953 0,-7.28469 0,-8.57143 0,-6.66667 0,-13.33333 0,-20 0,-5.7156 1.45411,-15.68874 -2.85714,-20 -1.34687,-1.34687 -4.01062,0.85184 -5.71429,0 -1.20468,-0.60234 -1.65247,-2.2548 -2.85714,-2.85714 -0.39021,-0.19511 -16.75265,-0.19511 -17.14286,0 -5.04509,2.52254 -1.60337,4.8101 -2.85714,8.57143 1.72208,5.17126 -4.62841,5.31378 -5.71429,8.57143 -0.512,1.53601 0,9.00957 0,11.42857"
       id="path3020"
       inkscape:connector-curvature="0" />
    <path
       style="fill:none;stroke:#000000;stroke-width:1px;stroke-linecap:butt;stroke-linejoin:miter;stroke-opacity:1"
       d="M 285.71429,375.21933 280,363.79075"
       id="path3022"
       inkscape:connector-curvature="0" />
    <path
       style="fill:none;stroke:#000000;stroke-width:1px;stroke-linecap:butt;stroke-linejoin:miter;stroke-opacity:1"
       d="m 351.42857,498.07647 -8.57143,-14.28572"
       id="path3024"
       inkscape:connector-curvature="0" />
    <path
       style="fill:none;stroke:#000000;stroke-width:1px;stroke-linecap:butt;stroke-linejoin:miter;stroke-opacity:1"
       d="m 374.28571,452.36218 c 1.7807,-0.11074 -1.14046,-19.43574 0,-22.85714 0.67344,-2.02031 2.34065,-3.64828 2.85715,-5.71429 0.46197,-1.84789 0,-3.80952 0,-5.71428 0,-0.95238 -0.42592,-2.00531 0,-2.85714 0.60234,-1.20468 2.2548,-1.65247 2.85714,-2.85715 0.42592,-0.85183 -0.42592,-2.0053 0,-2.85714 0.60234,-1.20468 1.90476,-1.90476 2.85714,-2.85714 0.95238,-0.95238 1.65247,-2.25481 2.85715,-2.85715 0.86952,-0.43476 7.28469,0 8.57142,0 6.66667,0 13.33334,0 20,0 1.70752,0 5.71429,-0.67343 5.71429,2.85715 0,4.73797 -4.00677,2.00338 -5.71429,2.85714 -3.42857,1.71429 -5.14285,6.85714 -8.57142,8.57143 -0.85184,0.42592 -1.90477,0 -2.85715,0 -0.95238,0.95238 -1.65246,2.2548 -2.85714,2.85714 -0.85184,0.42592 -1.95363,-0.30117 -2.85714,0 -0.0205,0.007 -8.57143,3.53495 -8.57143,5.71429 0,1.34687 1.57939,2.43122 2.85714,2.85714 3.61403,1.20468 7.81454,-1.20468 11.42857,0 1.27776,0.42592 1.65247,2.2548 2.85715,2.85714 1.70367,0.85184 4.01061,-0.85183 5.71428,0 1.20468,0.60234 2.25481,1.65247 2.85714,2.85715 0.36936,0.73871 0,15.1177 0,17.14285 0,1.49406 0.37563,10.67731 0,11.42857 -0.60233,1.20468 -2.11003,1.73648 -2.85714,2.85715 -1.18128,1.77192 -1.35129,4.20844 -2.85714,5.71428 -0.67344,0.67344 -1.90476,0 -2.85714,0 -3.48766,0 -6.58852,-1.10869 -8.57143,2.85715 -0.91289,1.82577 0.76657,9.12885 0,11.42857 -1.72974,5.18922 -2.44528,5.30242 -5.71429,8.57143 -0.95238,0.95238 -1.65246,2.2548 -2.85714,2.85714 -0.9105,0.45525 -11.73222,0 -14.28572,0 -0.95238,0 -1.90476,0 -2.85714,0 -0.95238,0 -2.00531,0.42592 -2.85714,0 -1.20468,-0.60234 -1.65247,-2.25481 -2.85714,-2.85714 -0.85184,-0.42592 -1.90477,0 -2.85715,0 -0.95238,-0.95239 -1.73648,-2.11004 -2.85714,-2.85715 -2.60996,-1.73997 -6.93369,-2.4388 -8.57143,-5.71428 -0.42592,-0.85184 0,-1.90477 0,-2.85715 0,-0.95238 0,-1.90476 0,-2.85714 0,-3.02909 -0.42592,-6.38272 2.85714,-8.57143 1.58486,-1.05657 3.8664,0.46198 5.71429,0 0.43279,-0.1082 11.42857,-6.97756 11.42857,0 0,1.34687 -1.65246,2.25481 -2.85714,2.85715 -0.64037,0.32018 -10.74963,0 -11.42857,0 -1.59474,0 -12.97782,0.43596 -14.28572,0 -1.27775,-0.42592 -1.90476,-1.90477 -2.85714,-2.85715 -0.95238,-0.95238 -2.2548,-1.65246 -2.85714,-2.85714 -0.42592,-0.85184 0,-1.90476 0,-2.85714 0,-0.95238 0,-1.90477 0,-2.85715 0,-5.71428 0,-11.42857 0,-17.14285 0,-1.98726 -0.51662,-13.25248 0,-14.28572 2.102,-4.20401 4.48296,-2.85714 8.57143,-2.85714 1.28673,0 7.7019,-0.43476 8.57142,0 6.3173,3.15865 0.88664,1.77327 2.85715,5.71429 0.60234,1.20467 1.90476,1.90476 2.85714,2.85714 4.7619,4.7619 8.46872,10.89247 14.28571,14.28571 11.59002,6.76085 19.69995,5.71429 31.42858,5.71429 2.85714,0 5.71428,0 8.57142,0 0.95239,0 2.85715,-0.95238 2.85715,0 0,0.95238 -1.90476,0 -2.85715,0 -3.80952,0 -7.61904,0 -11.42857,0 -2.59732,0 -9.24584,0.62364 -11.42857,0 -5.79163,-1.65475 -11.91309,-8.70272 -17.14286,-5.71429 -5.02982,2.87419 -1.26565,11.57265 -2.85714,17.14286 -1.55981,5.45933 -5.55385,1.34835 -8.57143,2.85714 -5.07936,2.53969 -0.63492,5.07937 -5.71428,0"
       id="path3030"
       inkscape:connector-curvature="0" />
    <path
       style="fill:none;stroke:#000000;stroke-width:1px;stroke-linecap:butt;stroke-linejoin:miter;stroke-opacity:1"
       d="m 425.71429,589.50504 -5.71429,0"
       id="path3032"
       inkscape:connector-curvature="0" />
    <path
       style="fill:none;stroke:#000000;stroke-width:1px;stroke-linecap:butt;stroke-linejoin:miter;stroke-opacity:1"
       d="m 302.85714,578.07647 20,-34.28572"
       id="path3034"
       inkscape:connector-curvature="0" />
    <path
       style="fill:#ffff00"
       d=""
       id="path3036"
       inkscape:connector-curvature="0" />
    <path
       style="fill:#ffff00"
       d="m 211.19048,653.88599 c -3.41511,-3.4151 -2.00593,-14.72876 2.38095,-19.11564 2.35714,-2.35715 4.28571,-6.91684 4.28571,-10.13266 0,-4.82239 1.3768,-5.59491 7.85715,-4.40867 4.32142,0.79105 11.71428,0.11548 16.42857,-1.50126 l 8.57143,-2.93954 -10,1.07184 c -5.5,0.58951 -12.14749,0.26865 -14.7722,-0.71302 -4.29518,-1.60645 -4.36478,-2.75009 -0.69625,-11.44148 3.82001,-9.0503 4.73512,-9.54965 14.57432,-7.95297 14.66397,2.37963 17.49505,6.37452 19.66555,27.74967 l 1.90003,18.71151 -15.33573,-0.14008 c -13.77859,-0.12586 -15.42843,0.51266 -16.24873,6.28849 -0.69531,4.89577 -2.79582,6.42857 -8.80952,6.42857 -4.34309,0 -8.75366,-0.85714 -9.80128,-1.90476 z"
       id="path3038"
       inkscape:connector-curvature="0" />
    <path
       style="fill:#ffff00"
       d="m 212.14286,647.56825 c 0,-2.95095 1.94582,-10.02238 4.32405,-15.71428 3.84567,-9.20397 5.5052,-10.37115 15,-10.54975 5.87177,-0.11044 13.24738,-1.30579 16.39023,-2.65632 4.31304,-1.85338 2.42767,-2.50476 -7.68852,-2.65633 -15.08923,-0.22608 -16.96356,-1.7419 -13.49665,-10.9151 1.6605,-4.39356 4.77933,-6.42857 9.85236,-6.42857 12.13248,0 18.09681,4.93407 19.9009,16.46329 0.91913,5.87376 2.22803,14.21528 2.90867,18.53671 1.20932,7.67806 0.91584,7.85714 -12.87623,7.85714 -11.1896,0 -14.74737,1.18391 -17.17196,5.71429 -4.05229,7.57177 -17.14285,7.83821 -17.14285,0.34892 z"
       id="path3040"
       inkscape:connector-curvature="0" />
    <path
       style="fill:#ff9955"
       d="m 207.29192,605.79015 c -4.36489,-3.05866 -9.63376,-3.86395 -17.28073,-2.64115 -13.3805,2.13963 -19.5043,-3.30823 -16.62301,-14.7882 1.83151,-7.2973 2.3926,-7.47173 20.35469,-6.32799 23.68351,1.50805 30.01923,6.65777 23.94852,19.46552 -3.90769,8.2443 -4.4435,8.46543 -10.39947,4.29182 l 0,0 z"
       id="path3042"
       inkscape:connector-curvature="0" />
    <path
       style="fill:#ff9955"
       d="m 187.44231,508.59713 c -2.04866,-5.33872 3.63488,-19.51652 6.99197,-17.44172 1.24692,0.77064 4.13431,0.19082 6.41642,-1.28849 3.45314,-2.23838 3.04277,-3.54815 -2.44589,-7.80659 l -6.59518,-5.11694 10.31158,-10.93346 c 10.76566,-11.41493 20.64171,-13.96108 28.58428,-7.36933 4.73442,3.92922 5.87064,22.97417 1.6283,27.29301 -1.46642,1.49286 -3.07356,7.85714 -3.57143,14.14286 l -0.90522,11.42857 -19.32495,0.84572 c -15.6479,0.68481 -19.66077,-0.0294 -21.08988,-3.75363 l 0,0 z"
       id="path3044"
       inkscape:connector-curvature="0" />
    <path
       style="fill:#ffff00"
       d="m 127.49303,397.05263 c -8.05741,-1.84192 -15.84267,-4.08616 -17.30058,-4.98719 -1.4579,-0.90104 -7.40119,-0.56685 -13.207306,0.74264 -12.606895,2.84332 -13.959295,-1.35653 -4.647732,-14.43341 4.221864,-5.92906 8.300438,-8.2982 14.285718,-8.2982 4.60728,0 8.37687,-1.28572 8.37687,-2.85714 0,-1.57143 -1.92857,-2.85715 -4.28571,-2.85715 -7.21553,0 -4.77864,-5.04986 4.72468,-9.79074 8.81494,-4.39747 25.27532,-6.19706 25.27532,-2.76331 0,0.95241 -3.08582,4.15895 -6.85736,7.12565 -3.77155,2.9667 -8.20467,9.25889 -9.85138,13.98263 l -2.99401,8.58863 17.94661,0 c 9.87064,0 18.73684,0.79022 19.70266,1.75605 2.64677,2.64676 -6.09329,14.62312 -11.65101,15.9652 -2.67682,0.6464 -11.45937,-0.33175 -19.51677,-2.17366 l 0,0 z"
       id="path3046"
       inkscape:connector-curvature="0" />
    <path
       style="fill:#ffff00"
       d="M 276.93619,345.34599 C 275.87128,344.28109 275,339.76694 275,335.31456 c 0,-6.96145 1.12045,-8.09523 8,-8.09523 4.4,0 9.71288,-1.60715 11.80639,-3.57143 3.1424,-2.94843 3.48194,-1.84259 1.94643,6.33928 -1.02298,5.4509 -2.80014,10.77067 -3.94925,11.82173 -3.58675,3.28071 -13.83849,5.56598 -15.86738,3.53708 z"
       id="path3048"
       inkscape:connector-curvature="0" />
    <path
       style="fill:#ff9955"
       d="m 275.04212,314.77079 c -0.0272,-3.42909 -1.49346,-4.74875 -4.14548,-3.73108 -2.25685,0.86604 -7.38887,-1.00978 -11.4045,-4.16847 -6.9129,-5.43768 -7.07713,-6.17625 -3.08862,-13.88918 4.00041,-7.73595 5.11409,-8.12207 22.11878,-7.6687 l 17.90627,0.47739 0.87996,9.07995 c 0.7815,8.06387 -0.0103,9.18291 -7.07665,10 -5.05487,0.58451 -9.26789,3.52503 -11.55213,8.06291 -2.85905,5.67981 -3.60414,6.05611 -3.63763,1.83718 z"
       id="path3050"
       inkscape:connector-curvature="0" />
    <path
       style="fill:#ff9955"
       d="m 300.71429,297.38795 0,-15.88291 -14.28572,0 c -15.27521,0 -15.69893,-0.28749 -11.63714,-7.89591 1.45672,-2.72868 3.34494,-7.21123 4.19605,-9.96123 1.72865,-5.58543 9.10753,-6.39756 20.11223,-2.21358 7.02048,2.66918 7.32886,3.74407 7.32886,25.54567 0,12.51758 -1.28571,23.55385 -2.85714,24.52505 -1.77388,1.09632 -2.85714,-4.25605 -2.85714,-14.11709 z"
       id="path3052"
       inkscape:connector-curvature="0" />
    <path
       style="fill:#ff9955"
       d="m 229.85714,300.93361 c -5.70668,-5.70668 -3.89909,-10.13412 5.47106,-13.40057 10.91316,-3.80435 14.80016,-1.78943 12.26007,6.35531 -3.16989,10.16418 -11.35854,13.41785 -17.73113,7.04526 z"
       id="path3054"
       inkscape:connector-curvature="0" />
    <path
       style="fill:#ff6600"
       d="m 361.21897,489.98032 c -11.29194,-6.88444 -10.6059,-12.42382 1.68975,-13.64374 7.69048,-0.76302 9.01694,-2.11933 9.77996,-10 l 0.88275,-9.11725 18.57143,0.99629 c 10.21428,0.54796 18.92312,1.32822 19.35297,1.73392 2.56812,2.42384 -3.67927,9.93327 -8.88026,10.67415 -4.49863,0.64084 -6.45091,3.2204 -7.1541,9.45278 -0.5319,4.71428 -2.29648,10.17857 -3.92127,12.14286 -4.45926,5.391 -19.64575,4.26958 -30.32123,-2.23901 z"
       id="path3056"
       inkscape:connector-curvature="0" />
    <path
       style="fill:#ffff00"
       d="m 340.91435,468.88896 c -1.97888,-2.3844 -3.00208,-10.87578 -2.4927,-20.68652 0.69676,-13.41955 1.87044,-16.83348 6.06158,-17.63146 7.20492,-1.37179 24.53088,18.74315 24.68355,28.65691 0.10053,6.5277 -1.53915,8.18331 -10.59535,10.69835 -13.62425,3.78364 -13.6577,3.78167 -17.65708,-1.03728 z"
       id="path3058"
       inkscape:connector-curvature="0" />
    <path
       style="fill:#ffff00"
       d="m 382.54163,451.96716 c -7.97046,-3.13615 -8.12697,-3.60435 -6.32633,-18.92503 2.82691,-24.05258 7.08299,-28.67995 26.37873,-28.67995 l 16.03373,0 -6.81388,5.3103 c -3.74763,2.92067 -10.99245,7.45368 -16.09959,10.07337 -5.10715,2.61969 -9.28572,5.76884 -9.28572,6.9981 0,1.22926 5.46429,3.44625 12.14286,4.92663 11.403,2.52761 12.19688,3.34442 13.02961,13.40589 0.88611,10.70642 0.87877,10.71406 -10,10.41034 -5.98771,-0.16717 -14.56445,-1.75101 -19.05941,-3.51965 z"
       id="path3060"
       inkscape:connector-curvature="0" />
  </g>
</svg>
