<?xml version="1.0" encoding="UTF-8" standalone="no"?>
<!-- Created with Inkscape (http://www.inkscape.org/) -->

<svg
   xmlns:dc="http://purl.org/dc/elements/1.1/"
   xmlns:cc="http://creativecommons.org/ns#"
   xmlns:rdf="http://www.w3.org/1999/02/22-rdf-syntax-ns#"
   xmlns:svg="http://www.w3.org/2000/svg"
   xmlns="http://www.w3.org/2000/svg"
   xmlns:sodipodi="http://sodipodi.sourceforge.net/DTD/sodipodi-0.dtd"
   xmlns:inkscape="http://www.inkscape.org/namespaces/inkscape"
   width="744.09448819"
   height="1052.3622047"
   id="svg2"
   version="1.1"
   inkscape:version="0.48.4 r9939"
   sodipodi:docname="drawing.svg">
  <defs
     id="defs4" />
  <sodipodi:namedview
     id="base"
     pagecolor="#ffffff"
     bordercolor="#666666"
     borderopacity="1.0"
     inkscape:pageopacity="0.0"
     inkscape:pageshadow="2"
     inkscape:zoom="0.49497475"
     inkscape:cx="511.25642"
     inkscape:cy="611.1296"
     inkscape:document-units="px"
     inkscape:current-layer="layer1"
     showgrid="false"
     showborder="false"
     inkscape:window-width="1366"
     inkscape:window-height="716"
     inkscape:window-x="0"
     inkscape:window-y="0"
     inkscape:window-maximized="1" />
  <metadata
     id="metadata7">
    <rdf:RDF>
      <cc:Work
         rdf:about="">
        <dc:format>image/svg+xml</dc:format>
        <dc:type
           rdf:resource="http://purl.org/dc/dcmitype/StillImage" />
        <dc:title></dc:title>
      </cc:Work>
    </rdf:RDF>
  </metadata>
  <g
     inkscape:label="Layer 1"
     inkscape:groupmode="layer"
     id="layer1">
    <path
       style="fill:none;stroke:#000000;stroke-width:1px;stroke-linecap:butt;stroke-linejoin:miter;stroke-opacity:1"
       d="M 3.4488765,344.88775 C 759.04298,526.7152 757.02267,524.6949 757.02267,524.6949"
       id="path3080"
       inkscape:connector-curvature="0" />
    <path
       style="fill:none;stroke:#000000;stroke-width:1px;stroke-linecap:butt;stroke-linejoin:miter;stroke-opacity:1"
       d="M -2.0203051,278.58533 C 755.5941,462.4331 757.61441,462.4331 757.61441,462.4331"
       id="path3088"
       inkscape:connector-curvature="0" />
    <path
       style="fill:none;stroke:#000000;stroke-width:0.96998274px;stroke-linecap:butt;stroke-linejoin:miter;stroke-opacity:1"
       d="m 756.62513,524.71954 c 286.58167,-1.70193 286.58167,-1.70193 286.58167,-1.70193"
       id="path3090"
       inkscape:connector-curvature="0" />
    <path
       style="fill:none;stroke:#000000;stroke-width:1.01409316px;stroke-linecap:butt;stroke-linejoin:miter;stroke-opacity:1"
       d="m 755.60114,462.44015 c 286.81116,42.4123 288.88946,42.4123 288.88946,42.4123 l 0,0 -4.1567,0"
       id="path3092"
       inkscape:connector-curvature="0" />
    <path
       style="fill:none;stroke:#000000;stroke-width:1.14773142px;stroke-linecap:butt;stroke-linejoin:miter;stroke-opacity:1"
       d="m 1044.3036,504.91066 c 5.7619,11.33002 -1.3727,18.11733 -1.3727,18.11733"
       id="path3094"
       inkscape:connector-curvature="0"
       sodipodi:nodetypes="cc" />
    <path
       style="fill:none;stroke:#000000;stroke-width:1.15168118px;stroke-linecap:butt;stroke-linejoin:miter;stroke-opacity:1"
       d="m 696.50442,372.43804 c 350.21588,68.44947 350.21588,68.44947 350.21588,68.44947"
       id="path3100"
       inkscape:connector-curvature="0" />
    <path
       style="fill:none;stroke:#000000;stroke-width:0.97277635px;stroke-linecap:butt;stroke-linejoin:miter;stroke-opacity:1"
       d="m 167.43382,300.92 c 264.16548,10.73307 529.46576,71.39705 529.72265,71.45579"
       id="path3102"
       inkscape:connector-curvature="0"
       sodipodi:nodetypes="cc" />
    <path
       style="fill:none;stroke:#000000;stroke-width:0.87768316px;stroke-linecap:butt;stroke-linejoin:miter;stroke-opacity:1"
       d="M 8.5102702,266.58674 C 169.70402,300.99477 169.70402,300.99477 169.70402,300.99477"
       id="path3104"
       inkscape:connector-curvature="0" />
    <path
       style="fill:none;stroke:#000000;stroke-width:1.27360809px;stroke-linecap:butt;stroke-linejoin:miter;stroke-opacity:1"
       d="m 1047.1186,440.094 c 13.3237,13.20382 -1.6223,19.13049 -1.7266,19.17184"
       id="path3106"
       inkscape:connector-curvature="0"
       sodipodi:nodetypes="cc" />
    <path
       style="fill:#808080;stroke:#000000;stroke-width:0.96051328999999996px;stroke-linecap:butt;stroke-linejoin:miter;stroke-opacity:1"
       d="m -2.0197323,278.56559 c -12.7231227,51.41919 6.0351113,68.59226 4.0591087,67.72248"
       id="path3114"
       inkscape:connector-curvature="0"
       sodipodi:nodetypes="cc" />
    <path
       style="fill:none;stroke:#000000;stroke-width:0.85896808px;stroke-linecap:butt;stroke-linejoin:miter;stroke-opacity:1"
       d="m 688.99456,464.38289 c -2.16135,44.58774 -2.16135,44.58774 -2.16135,44.58774"
       id="path3118"
       inkscape:connector-curvature="0"
       inkscape:transform-center-x="1.5431856"
       inkscape:transform-center-y="8.0107598" />
    <path
       style="fill:none;stroke:#000000;stroke-width:0.86097735px;stroke-linecap:butt;stroke-linejoin:miter;stroke-opacity:1"
       d="m 647.07222,453.77729 c -2.15933,44.83827 -2.15933,44.83827 -2.15933,44.83827"
       id="path3118-8"
       inkscape:connector-curvature="0"
       inkscape:transform-center-x="1.5417509"
       inkscape:transform-center-y="8.0557765" />
    <path
       style="fill:none;stroke:#000000;stroke-width:0.86297911px;stroke-linecap:butt;stroke-linejoin:miter;stroke-opacity:1"
       d="m 668.28442,458.32398 c -2.15733,45.0888 -2.15733,45.0888 -2.15733,45.0888"
       id="path3118-7"
       inkscape:connector-curvature="0"
       inkscape:transform-center-x="1.5403217"
       inkscape:transform-center-y="8.1007845" />
    <path
       style="fill:none;stroke:#000000;stroke-width:0.85695112px;stroke-linecap:butt;stroke-linejoin:miter;stroke-opacity:1"
       d="m 627.37626,449.73467 c -2.16337,44.33722 -2.16337,44.33722 -2.16337,44.33722"
       id="path3118-9"
       inkscape:connector-curvature="0"
       inkscape:transform-center-x="1.5446257"
       inkscape:transform-center-y="7.9657496" />
    <path
       style="fill:none;stroke:#000000;stroke-width:0.86696017px;stroke-linecap:butt;stroke-linejoin:miter;stroke-opacity:1"
       d="m 604.13774,442.6686 c -2.15335,45.5899 -2.15335,45.5899 -2.15335,45.5899"
       id="path3118-2"
       inkscape:connector-curvature="0"
       inkscape:transform-center-x="1.5374793"
       inkscape:transform-center-y="8.1908146" />
    <path
       style="fill:none;stroke:#000000;stroke-width:0.86254948px;stroke-linecap:butt;stroke-linejoin:miter;stroke-opacity:1"
       d="m 580.90644,437.11056 c -3.30853,50.1738 -2.21604,45.39086 -2.15378,45.11828"
       id="path3118-77"
       inkscape:connector-curvature="0"
       inkscape:transform-center-x="1.537782"
       inkscape:transform-center-y="8.1060799"
       sodipodi:nodetypes="cc" />
    <path
       style="fill:none;stroke:#000000;stroke-width:0.86097735px;stroke-linecap:butt;stroke-linejoin:miter;stroke-opacity:1"
       d="m 556.66356,431.55393 c -2.15933,44.83827 -2.15933,44.83827 -2.15933,44.83827"
       id="path3118-27"
       inkscape:connector-curvature="0"
       inkscape:transform-center-x="1.5417509"
       inkscape:transform-center-y="8.0557765" />
    <path
       style="fill:none;stroke:#000000;stroke-width:0.86097735px;stroke-linecap:butt;stroke-linejoin:miter;stroke-opacity:1"
       d="m 533.93513,426.50317 c -2.15933,44.83827 -2.15933,44.83827 -2.15933,44.83827"
       id="path3118-0"
       inkscape:connector-curvature="0"
       inkscape:transform-center-x="1.5417509"
       inkscape:transform-center-y="8.0557765" />
    <path
       style="fill:none;stroke:#000000;stroke-width:0.8426134px;stroke-linecap:butt;stroke-linejoin:miter;stroke-opacity:1"
       d="m 509.19558,422.45337 c -2.17771,42.5838 -2.17771,42.5838 -2.17771,42.5838"
       id="path3118-4"
       inkscape:connector-curvature="0"
       inkscape:transform-center-x="1.5548627"
       inkscape:transform-center-y="7.6507269" />
    <path
       style="fill:none;stroke:#000000;stroke-width:1.04285514px;stroke-linecap:butt;stroke-linejoin:miter;stroke-opacity:1"
       d="m 639.76889,433.7404 c 403.61131,25.33967 406.41411,25.33967 406.41411,25.33967"
       id="path3199"
       inkscape:connector-curvature="0" />
    <path
       style="fill:none;stroke:#000000;stroke-width:0.83000576px;stroke-linecap:butt;stroke-linejoin:miter;stroke-opacity:1"
       d="m 487.98869,418.659 c -2.19033,41.08118 -2.19033,41.08118 -2.19033,41.08118"
       id="path3118-4-5"
       inkscape:connector-curvature="0"
       inkscape:transform-center-x="1.5638642"
       inkscape:transform-center-y="7.3807636" />
    <path
       style="fill:none;stroke:#000000;stroke-width:1px;stroke-linecap:butt;stroke-linejoin:miter;stroke-opacity:1"
       d="m 8.0812204,267.47365 c -9.0913729,13.13199 -9.0913729,13.13199 -9.0913729,13.13199"
       id="path3219"
       inkscape:connector-curvature="0" />
    <path
       style="fill:#b3b3b3"
       d="m 718.93374,513.56003 -30,-7.60344 0.41243,-22.85714 0.41242,-22.85714 -2.73845,21.37364 c -1.50615,11.7555 -3.239,21.8742 -3.8508,22.48599 -0.61177,0.61179 -4.41397,0.28368 -8.44929,-0.72911 -7.28948,-1.82955 -7.3276,-1.9935 -5.89243,-25.34314 0.9482,-15.42641 0.57617,-21.04736 -1.08274,-16.35881 -1.39,3.92857 -2.65543,14.42452 -2.81206,23.32433 l -0.2848,16.18148 -7.85714,-2.0892 c -7.54374,-2.00586 -7.92171,-2.99322 -9.47606,-24.75291 l -1.61891,-22.6637 -0.52394,22.14285 c -0.28818,12.17858 -1.48823,22.1253 -2.6668,22.10385 -1.17858,-0.0214 -5.18989,-0.85459 -8.91406,-1.8514 -6.54349,-1.75144 -6.72752,-2.56685 -5.47249,-24.24671 0.71429,-12.33887 0.2256,-22.43431 -1.08594,-22.43431 -1.31157,0 -2.38466,9.64286 -2.38466,21.42857 0,22.43687 -0.48294,23.13534 -13.57143,19.62776 -5.93565,-1.59069 -6.47148,-3.50463 -6.98817,-24.96099 l -0.5596,-23.23819 -1.01448,20 c -0.55795,11 -2.04872,21.03545 -3.31283,22.30101 -1.26412,1.26556 -5.69863,1.44761 -9.85452,0.40455 -7.3494,-1.84459 -7.56757,-2.5328 -7.97511,-25.15816 l -0.419,-23.26169 -1.90274,20.65508 c -1.04652,11.36029 -2.6946,21.44693 -3.66243,22.41474 -0.9678,0.96782 -5.83112,0.86542 -10.80737,-0.22754 l -9.04772,-1.98721 1.86515,-23.28468 c 1.32217,-16.50625 0.9982,-22.03706 -1.11283,-18.99896 -1.63789,2.35714 -2.99769,12.32143 -3.02175,22.14286 -0.0457,18.67766 -0.75482,19.50173 -13.77871,16.01355 -6.37637,-1.70777 -6.53917,-2.52479 -4.97434,-24.96098 1.07811,-15.4575 0.72311,-21.28916 -1.0642,-17.48114 -1.47509,3.14285 -2.77237,13.10714 -2.8828,22.14285 -0.20886,17.09595 -1.08609,18.02752 -13.77226,14.62776 -5.91137,-1.58419 -6.45766,-3.47741 -6.79,-23.53242 l -0.3614,-21.80962 -2.53994,19.80612 c -1.39697,10.89336 -3.10303,20.3692 -3.79126,21.05741 -0.6882,0.68822 -4.6708,0.39306 -8.85017,-0.6559 l -7.59892,-1.9072 2.03792,-22.00736 c 1.12086,-12.10405 0.94477,-20.94019 -0.39129,-19.63586 -1.33608,1.30432 -3.07208,11.01553 -3.8578,21.58047 l -1.42857,19.20897 -240,-57.44721 L 3.2194517,342.79455 1.3718397,312.947 C 0.35565311,296.53085 -0.12619375,282.72415 0.30106911,282.26546 0.72833168,281.80676 171.27404,322.65244 379.29154,373.03363 l 378.21363,91.60216 137.14285,20.00136 c 75.42857,11.00076 140.11918,20.66481 143.75688,21.47568 4.8751,1.08667 6.3775,3.13801 5.7143,7.80189 l -0.8997,6.32759 -147.14291,0.46058 -147.14285,0.46059 -30,-7.60345 z"
       id="path3245"
       inkscape:connector-curvature="0" />
    <path
       style="fill:#999999"
       d=""
       id="path3247"
       inkscape:connector-curvature="0" />
    <path
       style="fill:#ffffff;stroke:#000000;stroke-width:1px;stroke-linecap:butt;stroke-linejoin:miter;stroke-opacity:1"
       d="m 167.14286,303.79075 c -2.85715,15.71429 -2.85715,15.71429 -2.85715,15.71429 l 0,0 -1.42857,1.42857"
       id="path3251"
       inkscape:connector-curvature="0" />
    <path
       style="fill:#cccccc;stroke:#000000;stroke-width:1px;stroke-linecap:butt;stroke-linejoin:miter;stroke-opacity:1"
       d="m -404.28571,525.21933 c 1.90476,0 3.85488,-0.41321 5.71428,0 2.5033,0.55628 4.71009,2.04621 7.14286,2.85714 4.23661,1.4122 17.44173,4.87495 21.42857,5.71428 7.05262,1.48477 34.19784,5.89326 38.57143,7.14286 0.11934,0.0341 54.09842,19.94086 54.28571,20 16.94619,5.35143 40.16799,9.81865 57.14286,14.28572 8.16029,2.14744 16.28061,4.47449 24.28571,7.14285 22.55356,7.51786 12.17326,6.49904 31.42858,10 1.40552,0.25555 2.85714,0 4.28571,0"
       id="path3253"
       inkscape:connector-curvature="0" />
    <path
       style="fill:#cccccc"
       d="m 735.81086,517.84089 c 0,-1.19254 -10.22743,-4.50414 -22.72763,-7.35911 l -22.72763,-5.19086 -0.888,-15.99079 c -0.77742,-13.99969 -1.17165,-14.92352 -3.16594,-7.41936 -1.25286,4.71428 -2.8646,11.46428 -3.58166,15 -0.71705,3.53571 -2.24351,6.40888 -3.39214,6.38482 -6.78646,-0.14218 -9.1722,-6.11848 -9.55874,-23.94459 -0.26257,-12.11218 -1.35003,-17.97462 -2.88883,-15.57462 -1.35723,2.11677 -2.27563,10.61408 -2.04089,18.88292 0.23486,8.26883 -0.0934,15.51183 -0.72945,16.09554 -0.63592,0.58371 -3.87086,0.0328 -7.18877,-1.22424 -4.85749,-1.84036 -6.49189,-5.81027 -8.39089,-20.38126 l -2.35834,-18.09572 -1.62512,16.20649 c -1.82377,18.18721 -3.04288,20.41671 -9.7556,17.8408 -3.76428,-1.44449 -4.69465,-5.95422 -4.69465,-22.75578 0,-26.9623 -4.7262,-30.22304 -6.19255,-4.2724 -1.24588,22.04872 -2.32074,24.29124 -10.41214,21.72313 -4.41983,-1.4028 -6.1978,-5.84307 -8.3988,-20.97516 -2.01257,-13.83663 -2.90037,-16.25637 -3.18,-8.66736 -0.60531,16.42773 -4.8,24.99157 -11.39626,23.26661 -4.62491,-1.20944 -5.99757,-5.05044 -7.83237,-21.91639 l -2.22466,-20.44994 -3.04705,18.57143 c -1.90752,11.62597 -4.37963,18.46458 -6.6102,18.28572 -14.27895,-1.14498 -13.61515,-0.0327 -12.61437,-21.13642 0.61785,-13.02887 -0.12952,-20.00644 -2.14286,-20.00644 -1.81923,0 -3.1096,6.17336 -3.13534,15 -0.0532,18.2294 -2.80998,23.43584 -11.02812,20.8275 -5.09763,-1.61793 -6.12374,-4.30094 -6.4,-16.73432 -0.18086,-8.14411 -0.0763,-17.19801 0.23257,-20.11978 0.35515,-3.35976 -0.64683,-4.56552 -2.72603,-3.2805 -1.83882,1.13647 -2.96591,7.26221 -2.55765,13.9011 0.95623,15.54973 -3.223,23.11638 -11.34406,20.53886 -4.75271,-1.50845 -6.17809,-4.31438 -6.33371,-12.46826 -0.168,-8.79734 -0.64263,-9.58523 -2.89672,-4.80746 -2.32203,4.92177 -2.54954,4.63657 -1.64048,-2.05639 0.58048,-4.27387 -0.0446,-7.09085 -1.389,-6.25995 -1.34443,0.8309 -2.46409,4.3277 -2.48815,7.77068 -0.064,9.16118 -3.6872,13.38553 -10.05848,11.72748 -5.0316,-1.30942 -5.51263,-3.54792 -4.65072,-21.64245 0.72623,-15.24629 0.116,-19.65956 -2.49508,-18.0458 -2.35986,1.45848 -2.9146,6.77239 -1.74857,16.74988 1.14794,9.82278 0.80942,13.20868 -1.0326,10.32798 -2.18795,-3.42169 -2.74926,-2.92557 -2.7842,2.46083 -0.0406,6.27141 -0.79832,6.59428 -10.75803,4.58445 -5.89286,-1.18916 -13.28572,-2.29653 -16.42857,-2.46083 -3.14286,-0.16432 -6.35715,-1.0495 -7.14286,-1.96709 -2.35766,-2.75329 -268.84862,-65.64049 -271.4211,-64.05061 -1.30715,0.80787 -2.80788,0.4193 -3.33496,-0.8635 -0.52707,-1.28279 -38.46401,-11.25509 -84.304304,-22.16066 L 4.8331638,341.88077 2.8580558,315.70121 C 1.7717464,301.30245 1.3488713,288.345 1.9183333,286.90686 c 0.569462,-1.43813 93.6068137,19.61548 206.7496667,46.7858 113.14286,27.17033 207.23838,48.87858 209.10112,48.24057 1.86277,-0.63801 3.79134,-0.15449 4.28571,1.07452 1.19197,2.96314 170.58672,43.68891 173.7046,41.76194 1.33129,-0.82278 2.85175,-0.38685 3.37883,0.96872 2.17374,5.59063 159.67472,40.47628 227.61349,50.41521 37.87934,5.54146 69.87803,9.90906 71.10817,9.70578 1.23017,-0.20329 2.87951,-0.0791 3.66523,0.27583 0.78571,0.35499 32.27003,5.32868 69.96514,11.05263 55.23101,8.38675 68.70701,11.2964 69.41441,14.98753 0.7319,3.81896 -3.4208,4.90484 -24.9821,6.5325 -34.82311,2.62881 -280.11174,1.86958 -280.11174,-0.867 z"
       id="path3255"
       inkscape:connector-curvature="0" />
    <path
       style="fill:#999999"
       d="M 79.49863,296.48796 C 39.884044,286.74864 6.7458307,278.05383 5.858155,277.16615 c -0.887676,-0.88767 0.041801,-2.98811 2.065504,-4.66763 2.675052,-2.2201 24.532063,1.35091 80.069045,13.0817 72.880916,15.39427 76.389586,16.43445 76.389586,22.64654 0,4.92785 -1.56322,6.44524 -6.42857,6.2401 -3.53572,-0.14908 -38.84051,-8.23958 -78.45509,-17.9789 z"
       id="path3257"
       inkscape:connector-curvature="0" />
    <path
       style="fill:#999999"
       d="m 725.81086,512.9561 c -6.28571,-2.32997 -15.4146,-4.61593 -20.28643,-5.07991 -13.30517,-1.26717 -15.42785,-3.71092 -15.42785,-17.76124 0,-14.79276 -4.54369,-14.52233 -7.35018,0.43747 -1.02145,5.44488 -3.03165,9.89977 -4.46708,9.89977 -4.21994,0 -8.95989,-14.8495 -8.43603,-26.42857 0.26657,-5.89285 -0.68391,-10.71428 -2.11231,-10.71428 -1.42838,0 -2.6616,7.18113 -2.74046,15.95806 -0.0789,8.77694 -0.8354,16.65006 -1.68117,17.49583 -3.9202,3.92021 -10.21377,-2.76013 -11.86055,-12.58944 -4.04825,-24.16346 -6.03377,-26.26129 -8.25465,-8.7216 -3.5732,28.21988 -13.43406,16.83474 -13.61043,-15.71428 -0.032,-5.89286 -1.04709,-10.71429 -2.25589,-10.71429 -2.40494,0 -5.7214,16.82901 -5.77123,29.28572 -0.0228,5.84526 -1.44277,7.85714 -5.54317,7.85714 -4.39448,0 -6.22974,-3.33013 -9.05388,-16.42857 l -3.54217,-16.42857 -3.96932,13.57143 c -2.18314,7.46428 -5.20788,13.57142 -6.72166,13.57142 -3.81411,0 -7.61771,-10.24146 -10.08065,-27.14285 l -2.08177,-14.28572 -4.05283,17.85715 c -3.18366,14.02754 -5.189,17.85714 -9.3508,17.85714 -7.48103,0 -8.77903,-3.33935 -8.87223,-22.82519 -0.0452,-9.44615 -1.26392,-17.17481 -2.70829,-17.17481 -1.44437,0 -2.42708,0.96428 -2.18383,2.14286 0.24315,1.17857 -0.56525,8.89285 -1.79665,17.14285 -4.13952,27.73301 -17.39106,15.53468 -15.86443,-14.60354 0.37834,-7.46931 -0.46612,-10.39869 -2.6148,-9.07073 -1.74546,1.07876 -2.90917,6.04322 -2.58597,11.03212 0.6842,10.56174 -5.0282,22.76366 -9.91672,21.18254 -1.85791,-0.6009 -5.10714,-6.46475 -7.22054,-13.03076 -3.50063,-10.8759 -9.87126,-16.91239 -8.82989,-8.36677 0.80489,6.605 -3.67511,16.42857 -7.49217,16.42857 -5.24343,0 -7.86597,-5.07676 -7.59245,-14.69746 0.30911,-10.87126 -4.14752,-10.42952 -6.58152,0.65235 -1.91306,8.71017 -2.1056,8.79508 -16.65557,7.34553 -8.09609,-0.80658 -17.29157,-2.19879 -20.43443,-3.09381 -40.62454,-11.56897 -69.21411,-18.52256 -71.95826,-17.50177 -1.86277,0.69292 -3.79134,0.35632 -4.28571,-0.748 -1.25174,-2.79608 -53.67523,-15.20115 -56.6002,-13.39342 -1.31014,0.8097 -2.81329,0.42845 -3.34037,-0.84723 -0.80463,-1.94745 -51.58306,-14.70623 -65.24403,-16.39347 -2.35714,-0.29113 -6.21429,-1.31704 -8.57143,-2.2798 -5.54474,-2.26472 -30.73341,-7.73287 -33.54972,-7.28324 -1.19051,0.19007 -2.80742,0.0856 -3.59314,-0.23221 -0.78571,-0.31779 -8.5,-2.27478 -17.14285,-4.34887 -8.64286,-2.07408 -27.83682,-7.03263 -42.65324,-11.01899 -14.81643,-3.98636 -27.67357,-7.12037 -28.57143,-6.96446 -0.89786,0.15591 -3.56105,-0.51645 -5.91819,-1.49413 -10.273946,-4.26135 -63.36534,-16.2956 -65.653183,-14.88164 -1.387868,0.85775 -3.261834,0.36473 -4.164365,-1.0956 C 33.66221,347.85851 27.86167,345.80846 21.674655,344.76317 5.6550473,342.05667 3.4608953,338.03175 4.1343498,312.58752 4.4545136,300.4912 5.1518444,290.15883 5.6839744,289.6267 c 0.5321297,-0.53213 27.7783696,5.10441 60.5471986,12.52565 32.768829,7.42124 62.793977,13.61038 66.722547,13.75364 3.92857,0.14326 7.78571,1.03582 8.57143,1.98344 2.23151,2.69136 66.02058,16.99642 68.62173,15.38882 1.27533,-0.7882 2.75002,-0.43828 3.2771,0.77758 0.93766,2.16304 52.52231,15.56288 63.81545,16.57698 3.14286,0.28223 7.64286,1.29831 10,2.25797 8.41803,3.42722 52.56423,13.09244 53.86389,11.79277 0.72854,-0.72855 2.91474,-0.005 4.8582,1.60797 1.94346,1.61293 4.6332,2.68337 5.97717,2.37875 1.34397,-0.30461 4.37217,0.24658 6.72931,1.22488 2.35715,0.97829 19.71429,5.05212 38.57143,9.05296 34.78966,7.38117 36.68243,7.85012 44.28572,10.97227 9.79834,4.0235 75.10083,19.24051 76.5122,17.82913 0.8434,-0.8434 3.28997,-0.0757 5.43683,1.70605 2.14682,1.78172 4.71825,2.42458 5.71428,1.42857 0.996,-0.99601 3.21494,-0.72194 4.93094,0.60905 3.97618,3.08404 23.31949,7.77392 48.72386,11.81335 10.93926,1.73939 21.49006,4.49085 23.44626,6.11436 1.95623,1.6235 4.78897,2.19026 6.295,1.25947 1.50606,-0.93079 3.16951,-0.5976 3.6966,0.74041 0.89168,2.26362 67.48877,19.0122 86.6726,21.7974 4.71428,0.68444 11.78571,1.99474 15.71428,2.91178 3.92858,0.91704 10.35715,2.24941 14.28572,2.96082 3.92857,0.71142 12.92857,2.48104 20,3.93251 7.07143,1.45146 17.35714,3.47147 22.85714,4.4889 5.5,1.01744 12.57143,2.36551 15.71429,2.99571 29.91497,5.99855 56.97408,10.34804 70,11.25184 8.64285,0.59968 17.64285,1.72866 20,2.50883 2.35714,0.78017 6.21428,1.46759 8.57143,1.5276 6.23254,0.15865 22.02731,2.48089 40,5.88099 8.64285,1.63507 21.5,3.64321 28.57142,4.46254 21.8664,2.53355 74.0737,12.41567 77.8183,14.72992 8.2803,5.11756 -17.6062,6.15985 -154.96115,6.23932 -120.61226,0.0698 -146.16083,-0.61158 -155.71429,-4.15283 l 0,0 z M 490.09658,424.26172 c 0,-8.38732 -3.45203,-6.96972 -4.8176,1.97839 -0.47346,3.10236 0.41682,5.64066 1.97837,5.64066 1.56157,0 2.83923,-3.42858 2.83923,-7.61905 z"
       id="path3259"
       inkscape:connector-curvature="0" />
    <path
       style="fill:#999999"
       d="M 835.81086,444.38418 640.09658,431.8708 408.668,375.98269 C 281.38229,345.24423 174.98943,319.44554 172.23943,318.65228 c -5.42612,-1.56522 -6.81983,-11.02384 -2.05799,-13.96682 5.94024,-3.67127 138.4041,7.18192 228.48656,18.72062 83.00918,10.63269 206.08446,31.24605 274.28572,45.93897 14.92857,3.21613 104.71251,21.02201 199.51986,39.56861 94.80734,18.5466 173.72802,35.07217 175.37932,36.72348 5.1347,5.13469 0.1892,11.98526 -8.381,11.60917 -4.3707,-0.19181 -96.01818,-5.97977 -203.66104,-12.86213 z"
       id="path3280"
       inkscape:connector-curvature="0" />
    <path
       style="fill:#999999"
       d=""
       id="path3282"
       inkscape:connector-curvature="0" />
    <path
       style="fill:#b3b3b3"
       d="m 736.94389,513.59344 c -12.44635,-1.74864 -42.19278,-9.12388 -43.97095,-10.90205 -0.63464,-0.63462 -1.56844,-6.15306 -2.07513,-12.26321 -1.14059,-13.75381 -4.97165,-14.62766 -8.52286,-1.94403 -1.41137,5.04093 -3.57507,8.83648 -4.80825,8.43456 -3.3989,-1.10778 -7.05094,-13.40151 -7.17885,-24.16586 -0.11253,-9.46569 -2.55847,-12.62943 -4.94864,-6.40076 -0.67448,1.75764 -1.2263,7.59267 -1.2263,12.96675 0,11.61618 -1.46563,16.16244 -5.21047,16.16244 -2.48275,0 -6.04829,-9.73544 -9.80397,-26.76904 -1.94966,-8.84253 -4.47557,-6.50811 -7.03511,6.50179 -4.17894,21.24116 -8.64408,17.03561 -11.19316,-10.5424 -1.36768,-14.79685 -3.12359,-18.53913 -6.29272,-13.41136 -0.76348,1.2353 -2.085,8.59439 -2.93674,16.35353 -2.58985,23.59292 -9.04856,23.36955 -14.11151,-0.48805 -1.42031,-6.69287 -3.20291,-12.55235 -3.96133,-13.02108 -0.75842,-0.46873 -3.00219,4.56679 -4.98615,11.19003 -1.98398,6.62325 -4.36996,12.51365 -5.30217,13.08979 -2.76259,1.70738 -5.96992,-6.29481 -9.11829,-22.74986 -1.62588,-8.49764 -3.29131,-15.78545 -3.70099,-16.19512 -0.40968,-0.40968 -1.87208,4.07717 -3.24978,9.97078 -3.64395,15.58834 -7.42186,23.84764 -10.90824,23.84764 -4.7885,0 -7.24524,-6.74942 -7.24524,-19.905 0,-12.69546 -1.3039,-18.4808 -4.16522,-18.4808 -1.56679,0 -2.24753,2.88225 -5.0466,21.36729 -0.5176,3.41824 -2.23395,7.96393 -3.81411,10.10152 -2.72705,3.68908 -3.03365,3.50493 -6.03522,-3.62473 -1.7392,-4.13119 -3.1622,-12.94162 -3.1622,-19.57874 0,-6.63712 -0.91084,-12.63042 -2.02408,-13.31844 -2.50745,-1.54969 -6.05714,7.35281 -6.05714,15.19108 0,7.34466 -4.04017,16.44227 -6.91411,15.56918 -1.1975,-0.36379 -4.6685,-5.84216 -7.71333,-12.17415 -3.04484,-6.33199 -6.35684,-11.51271 -7.35999,-11.51271 -2.14295,0 -4.27654,4.92949 -4.27654,9.88063 0,1.91907 -1.30251,5.25398 -2.89445,7.4109 -3.95978,5.3651 -7.57748,1.57836 -9.08622,-9.5108 -1.51747,-11.15324 -4.79596,-11.82028 -8.74055,-1.77835 -3.65354,9.30098 -4.50231,9.46728 -26.75595,5.24212 -15.8739,-3.01388 -75.76572,-17.73682 -96.16777,-23.64049 -7.3344,-2.12233 -21.88059,-5.54094 -32.32488,-7.59691 -10.44429,-2.05597 -28.08099,-6.04347 -39.19267,-8.86111 -31.4288,-7.96956 -71.90064,-17.37538 -80.8122,-18.78109 -4.44468,-0.70111 -37.62819,-8.83939 -73.74114,-18.08507 C 96.759717,361.92658 61.303362,353.32072 54.080772,352.04814 33.281472,348.38341 12.975051,341.7732 9.1289835,337.41529 6.2457451,334.14834 5.5934496,329.53676 5.5934496,312.41985 c 0,-12.38042 0.8132069,-20.98938 1.9826674,-20.98938 4.113503,0 137.192053,28.51998 154.590973,33.13029 10.00051,2.64991 25.91042,6.25026 35.35534,8.00078 9.44493,1.75052 28.53681,6.2784 42.42641,10.06196 13.8896,3.78356 34.34519,8.92476 45.45686,11.42487 91.91516,20.68083 141.44122,32.41316 157.5838,37.33033 8.88934,2.70778 28.89036,7.68294 44.44671,11.05592 15.55635,3.37297 31.30703,7.13447 35.00153,8.35888 3.69447,1.22441 7.21901,1.72443 7.83227,1.11116 0.61329,-0.61327 3.49992,0.11451 6.41474,1.61731 2.91483,1.50279 17.57305,5.14893 32.57382,8.10254 15.00076,2.9536 29.67491,6.30262 32.60922,7.44227 2.93429,1.13964 7.47998,2.41251 10.10152,2.82858 2.62153,0.41608 14.31237,3.55847 25.97963,6.98309 37.5798,11.03057 171.65559,37.15342 228.29448,44.48009 42.75157,5.53024 152.09078,23.45928 162.63458,26.66823 l 8.0812,2.45948 -12.1218,1.37977 c -16.7097,1.90197 -274.15032,1.65822 -287.89351,-0.27258 l 0,0 z M 490.46667,424.7706 c 0,-6.47649 -2.80982,-8.14173 -4.83461,-2.86522 -2.07764,5.41422 -1.36781,8.92614 1.80415,8.92614 2.02031,0 3.03046,-2.02031 3.03046,-6.06092 z"
       id="path3284"
       inkscape:connector-curvature="0" />
    <path
       style="fill:#999999"
       d="M 965.23837,451.82572 C 925.79191,449.22775 836.53204,443.43688 766.8831,438.9571 L 640.24866,430.81205 482.02008,392.56945 C 213.04575,327.56047 173.03677,317.78333 171.10651,316.59036 c -1.02759,-0.63508 -1.86835,-3.51631 -1.86835,-6.40273 l 0,-5.24803 31.81981,1.28483 c 114.39158,4.61893 287.76854,28.07533 466.72579,63.14395 36.96576,7.24384 68.02605,12.66656 69.02289,12.05048 0.99684,-0.61608 2.11736,-0.36864 2.49007,0.54985 0.37271,0.9185 52.04389,11.89767 114.82487,24.39815 174.20481,34.68634 193.94931,39.14381 193.94931,43.78543 0,2.33812 -9.0091,7.93419 -10.7381,6.67009 -0.2055,-0.1502 -32.648,-2.3987 -72.09443,-4.99666 z"
       id="path3286"
       inkscape:connector-curvature="0" />
  </g>
</svg>
