<?xml version="1.0" encoding="UTF-8" standalone="no"?>
<!-- Created with Inkscape (http://www.inkscape.org/) -->

<svg
   xmlns:dc="http://purl.org/dc/elements/1.1/"
   xmlns:cc="http://creativecommons.org/ns#"
   xmlns:rdf="http://www.w3.org/1999/02/22-rdf-syntax-ns#"
   xmlns:svg="http://www.w3.org/2000/svg"
   xmlns="http://www.w3.org/2000/svg"
   xmlns:sodipodi="http://sodipodi.sourceforge.net/DTD/sodipodi-0.dtd"
   xmlns:inkscape="http://www.inkscape.org/namespaces/inkscape"
   width="744.09448819"
   height="1052.3622047"
   id="svg4283"
   version="1.1"
   inkscape:version="0.48.4 r9939"
   sodipodi:docname="slide.svg">
  <defs
     id="defs4285" />
  <sodipodi:namedview
     id="base"
     pagecolor="#ffffff"
     bordercolor="#666666"
     borderopacity="1.0"
     inkscape:pageopacity="0.0"
     inkscape:pageshadow="2"
     inkscape:zoom="0.7"
     inkscape:cx="358.27585"
     inkscape:cy="664.50504"
     inkscape:document-units="px"
     inkscape:current-layer="layer1"
     showgrid="false"
     inkscape:window-width="1366"
     inkscape:window-height="716"
     inkscape:window-x="0"
     inkscape:window-y="0"
     inkscape:window-maximized="1" />
  <metadata
     id="metadata4288">
    <rdf:RDF>
      <cc:Work
         rdf:about="">
        <dc:format>image/svg+xml</dc:format>
        <dc:type
           rdf:resource="http://purl.org/dc/dcmitype/StillImage" />
        <dc:title />
      </cc:Work>
    </rdf:RDF>
  </metadata>
  <g
     inkscape:label="Layer 1"
     inkscape:groupmode="layer"
     id="layer1">
    <rect
       style="fill:#b3b3b3;stroke-width:0.1;stroke-miterlimit:4;stroke-dasharray:none"
       id="rect4293"
       width="440.42651"
       height="113.13708"
       x="127.27922"
       y="540.21484" />
    <path
       style="fill:none;stroke:#000000;stroke-width:1px;stroke-linecap:butt;stroke-linejoin:miter;stroke-opacity:1;display:inline"
       d="M 127.85714,540.93361 180,501.29075"
       id="path4303"
       inkscape:connector-type="polyline"
       inkscape:connector-curvature="0" />
    <path
       style="fill:none;stroke:#000000;stroke-width:1px;stroke-linecap:butt;stroke-linejoin:miter;stroke-opacity:1;display:inline"
       d="m 180.31223,500.81889 423.97348,-1.31385"
       id="path4309"
       inkscape:connector-type="polyline"
       inkscape:connector-curvature="0" />
    <path
       style="fill:none;stroke:#000000;stroke-width:1px;stroke-linecap:butt;stroke-linejoin:miter;stroke-opacity:1"
       d="M 566.42857,539.50504 605,498.79075"
       id="path4311"
       inkscape:connector-type="polyline"
       inkscape:connector-curvature="0" />
    <path
       style="fill:none;stroke:#000000;stroke-width:1px;stroke-linecap:butt;stroke-linejoin:miter;stroke-opacity:1;display:inline"
       d="M 603.57143,498.07647 601.42857,616.6479"
       id="path4313"
       inkscape:connector-type="polyline"
       inkscape:connector-curvature="0" />
    <path
       style="fill:none;stroke:#000000;stroke-width:1px;stroke-linecap:butt;stroke-linejoin:miter;stroke-opacity:1"
       d="m 600.71429,614.50504 -32.85715,38.57143"
       id="path4315"
       inkscape:connector-type="polyline"
       inkscape:connector-curvature="0" />
    <path
       style="fill:#b3b3b3;stroke-width:0.10000000000000001;stroke-miterlimit:4;stroke-dasharray:none"
       d="m 568.16278,594.82647 -0.18295,-55.53572 17.12288,-18.09564 c 9.41758,-9.95261 17.22159,-17.79951 17.34224,-17.43757 0.12064,0.36194 -0.24894,25.1346 -0.82129,55.05035 l -1.04065,54.39229 -15.82295,18.581 c -8.70262,10.21955 -15.95601,18.581 -16.11864,18.581 -0.16263,0 -0.37802,-24.99107 -0.47864,-55.53571 z"
       id="path4319"
       inkscape:connector-curvature="0" />
    <path
       style="fill:#f4e3d7;stroke-width:0.10000000000000001;stroke-miterlimit:4;stroke-dasharray:none"
       d="m 131.9084,539.32903 c 0,-0.17537 10.6875,-8.41712 23.75,-18.31501 13.0625,-9.89788 24.07884,-18.39463 24.48075,-18.88167 0.57652,-0.69864 45.19131,-0.99851 211.39534,-1.42086 l 210.66458,-0.53533 -4.96676,5.35844 c -2.73172,2.94714 -11.07391,11.82151 -18.53819,19.72081 l -13.57143,14.36238 -216.60715,0.015 c -119.13393,0.008 -216.60714,-0.12843 -216.60714,-0.30381 z"
       id="path4321"
       inkscape:connector-curvature="0" />
    <path
       style="fill:none;stroke:#000000;stroke-width:1px;stroke-linecap:butt;stroke-linejoin:miter;stroke-opacity:1;display:inline"
       d="m 193.94929,502.8392 -45.96194,36.87057"
       id="path4353"
       inkscape:connector-type="polyline"
       inkscape:connector-curvature="0" />
    <path
       style="fill:none;stroke:#000000;stroke-width:1px;stroke-linecap:butt;stroke-linejoin:miter;stroke-opacity:1;display:inline"
       d="m 194.28571,502.36218 383.01647,3.0024"
       id="path4355"
       inkscape:connector-type="polyline"
       inkscape:connector-curvature="0" />
    <path
       style="fill:none;stroke:#000000;stroke-width:1px;stroke-linecap:butt;stroke-linejoin:miter;stroke-opacity:1"
       d="M 522.14286,535.93361 552.85714,506.6479"
       id="path4357"
       inkscape:connector-type="polyline"
       inkscape:connector-curvature="0" />
    <path
       style="fill:none;stroke:#000000;stroke-width:1px;stroke-linecap:butt;stroke-linejoin:miter;stroke-opacity:1"
       d="m 525.7844,534.15393 -8.08122,5.05076"
       id="path4378"
       inkscape:connector-type="polyline"
       inkscape:connector-curvature="0" />
    <path
       style="fill:#f9f9f9;stroke-width:0.1;stroke-miterlimit:4;stroke-dasharray:none"
       d="m 223.26747,538.63611 -71.71763,-0.51606 25.16407,-17.37239 25.16407,-17.3724 190.34451,1.73519 c 104.6895,0.95435 190.63,1.99828 190.97893,2.31984 0.34891,0.32156 -7.55734,7.69923 -17.56942,16.39482 l -18.20381,15.81017 -126.22154,-0.24155 c -69.42185,-0.13286 -158.49448,-0.47378 -197.93918,-0.75762 z"
       id="path4382"
       inkscape:connector-curvature="0" />
    <path
       style="fill:none;stroke:#000000;stroke-width:1px;stroke-linecap:butt;stroke-linejoin:miter;stroke-opacity:1"
       d="m 180.05969,500.81889 2.52538,0.25254"
       id="path4384"
       inkscape:connector-type="polyline"
       inkscape:connector-curvature="0" />
    <path
       style="fill:none;stroke:#000000;stroke-width:1px;stroke-linecap:butt;stroke-linejoin:miter;stroke-opacity:1;display:inline"
       d="m 198.24244,501.57651 -1.51523,2.0203"
       id="path4390"
       inkscape:connector-type="polyline"
       inkscape:connector-curvature="0" />
    <path
       style="fill:none;stroke:#000000;stroke-width:1px;stroke-linecap:butt;stroke-linejoin:miter;stroke-opacity:1"
       d="m 552.55344,504.8595 34.34519,0.50508"
       id="path4432"
       inkscape:connector-type="polyline"
       inkscape:connector-curvature="0" />
    <path
       style="fill:none;stroke:#000000;stroke-width:1px;stroke-linecap:butt;stroke-linejoin:miter;stroke-opacity:1;display:inline"
       d="m 546.9976,540.21484 38.3858,-34.34518"
       id="path4434"
       inkscape:connector-type="polyline"
       inkscape:connector-curvature="0" />
    <flowRoot
       xml:space="preserve"
       id="flowRoot4457"
       style="font-size:20px;font-style:normal;font-weight:normal;line-height:125%;letter-spacing:0px;word-spacing:0px;fill:#000000;fill-opacity:1;stroke:none;font-family:Sans"><flowRegion
         id="flowRegion4459"><rect
           id="rect4461"
           width="2.1798269e-06"
           height="1.4285715"
           x="241.42857"
           y="589.50507"
           style="font-size:20px" /></flowRegion><flowPara
         id="flowPara4463" /></flowRoot>    <path
       style="fill:none;stroke:#000000;stroke-width:1px;stroke-linecap:butt;stroke-linejoin:miter;stroke-opacity:1"
       d="M 105.71429,758.07647 411.42857,659.50504"
       id="path4481"
       inkscape:connector-type="polyline"
       inkscape:connector-curvature="0" />
    <path
       style="fill:none;stroke:#000000;stroke-width:1px;stroke-linecap:butt;stroke-linejoin:miter;stroke-opacity:1"
       d="M 407.14286,656.6479 460,739.50504"
       id="path4487"
       inkscape:connector-type="polyline"
       inkscape:connector-curvature="0" />
    <path
       style="fill:none;stroke:#000000;stroke-width:1px;stroke-linecap:butt;stroke-linejoin:miter;stroke-opacity:1;display:inline"
       d="m 104.28571,755.21933 47.14286,65.71428"
       id="path4489"
       inkscape:connector-type="polyline"
       inkscape:connector-curvature="0" />
    <path
       style="fill:none;stroke:#000000;stroke-width:1px;stroke-linecap:butt;stroke-linejoin:miter;stroke-opacity:1;display:inline"
       d="M 457.14286,738.07647 150,823.79075"
       id="path4491"
       inkscape:connector-type="polyline"
       inkscape:connector-curvature="0" />
    <path
       style="fill:none;stroke:#000000;stroke-width:1px;stroke-linecap:butt;stroke-linejoin:miter;stroke-opacity:1"
       d="m 455.71429,732.36218 5.71428,21.42857"
       id="path4495"
       inkscape:connector-type="polyline"
       inkscape:connector-curvature="0" />
    <path
       style="fill:none;stroke:#000000;stroke-width:1px;stroke-linecap:butt;stroke-linejoin:miter;stroke-opacity:1;display:inline"
       d="m 148.57143,820.93361 4.28571,15.71429"
       id="path4497"
       inkscape:connector-type="polyline"
       inkscape:connector-curvature="0" />
    <path
       style="fill:none;stroke:#000000;stroke-width:1px;stroke-linecap:butt;stroke-linejoin:miter;stroke-opacity:1;display:inline"
       d="M 460,750.93361 151.42857,833.79075"
       id="path4499"
       inkscape:connector-type="polyline"
       inkscape:connector-curvature="0" />
    <path
       style="fill:none;stroke:#000000;stroke-width:1px;stroke-linecap:butt;stroke-linejoin:miter;stroke-opacity:1"
       d="m 102.85714,755.21933 0,17.14285"
       id="path4503"
       inkscape:connector-type="polyline"
       inkscape:connector-curvature="0" />
    <path
       style="fill:none;stroke:#000000;stroke-width:1px;stroke-linecap:butt;stroke-linejoin:miter;stroke-opacity:1;display:inline"
       d="m 151.42857,835.21933 -50,-65.71429"
       id="path4505"
       inkscape:connector-type="polyline"
       inkscape:connector-curvature="0" />
    <path
       style="fill:#f9f9f9;stroke-width:0.10000000000000001;stroke-miterlimit:4;stroke-dasharray:none"
       d="m 130.92204,790.05253 c -12.29459,-17.11793 -22.24301,-31.24651 -22.1076,-31.39686 0.53373,-0.59257 297.73624,-96.15522 299.04542,-96.15522 2.24079,0 48.09436,72.90218 46.68393,74.22233 -0.98823,0.92497 -282.67,80.03159 -297.69651,83.60415 -3.29302,0.78291 -5.31402,-1.57712 -25.92524,-30.2744 z"
       id="path4509"
       inkscape:connector-curvature="0" />
    <path
       style="fill:#f9f9f9;stroke-width:0.1;stroke-miterlimit:4;stroke-dasharray:none"
       d=""
       id="path4511"
       inkscape:connector-curvature="0" />
    <path
       style="fill:#f9f9f9;stroke-width:0.1;stroke-miterlimit:4;stroke-dasharray:none"
       d="m 150.86266,815.71474 c -2.01411,-2.16071 -8.60553,-10.67857 -14.64761,-18.92857 -6.04207,-8.25 -11.85746,-16.07415 -12.92308,-17.38699 -1.06562,-1.31285 -2.62597,-3.67344 -3.46745,-5.24575 -0.84148,-1.57232 -2.34608,-3.71246 -3.34355,-4.75587 -0.99748,-1.04341 -2.99806,-3.74583 -4.44575,-6.00538 -2.57067,-4.0123 -1.89974,-5.97475 2.31206,-6.76271 2.00975,-0.37599 3.92799,-0.91426 4.28571,-1.2026 0.19643,-0.15833 1.46213,-0.5003 2.81267,-0.75993 2.36926,-0.45547 32.46159,-10.09563 36.83019,-11.79865 1.17857,-0.45945 2.625,-0.97124 3.21428,-1.13731 0.58929,-0.16608 1.23215,-0.4315 1.42858,-0.58983 0.19642,-0.15833 1.34229,-0.48271 2.54637,-0.72084 2.57876,-0.51 33.97591,-10.48058 37.09648,-11.78047 1.17857,-0.49095 2.625,-1.0285 3.21429,-1.19458 0.58928,-0.16607 1.23214,-0.43149 1.42857,-0.58982 0.19643,-0.15833 1.32143,-0.485 2.5,-0.72594 3.70395,-0.7572 36.3586,-11.12394 37.85714,-12.01836 0.78572,-0.46896 1.91072,-0.94285 2.5,-1.0531 0.58929,-0.11024 1.23215,-0.32999 1.42857,-0.48832 0.19643,-0.15833 1.32143,-0.485 2.5,-0.72593 3.61049,-0.7381 36.33553,-11.11137 37.85715,-12.00006 0.78571,-0.4589 2.07143,-0.9376 2.85714,-1.06377 2.58144,-0.41455 39.96631,-12.32826 41.42857,-13.20235 0.78572,-0.46968 2.07143,-0.95339 2.85714,-1.07492 2.60702,-0.40325 39.97415,-12.30077 41.42858,-13.19067 0.78571,-0.48074 2.07142,-0.97568 2.85714,-1.09987 0.78571,-0.12418 6.75376,-1.86468 13.26231,-3.86777 l 11.83376,-3.64199 14.19681,21.68475 c 7.80825,11.92661 14.69735,22.34518 15.3091,23.15238 0.61178,0.8072 2.3225,3.83101 3.80165,6.71957 1.47913,2.88856 3.91488,6.56741 5.41278,8.17522 1.4979,1.60781 2.36392,2.92329 1.92449,2.92329 -0.43943,0 0.49093,2.52839 2.06746,5.61866 l 2.86642,5.61865 -7.70011,2.23849 c -4.23507,1.23116 -8.04147,2.23848 -8.45869,2.23848 -0.4172,0 -2.56827,0.73379 -4.78012,1.63065 -2.21188,0.89685 -4.98586,1.75492 -6.16443,1.90681 -2.51825,0.32455 -28.3041,7.60881 -31.42857,8.87828 -1.17858,0.47885 -3.42756,1.11583 -4.99775,1.4155 -1.57018,0.29968 -7.3559,1.92173 -12.85714,3.60457 -5.50124,1.68284 -10.96654,3.25478 -12.14511,3.4932 -1.17858,0.23842 -8.89286,2.41381 -17.14286,4.83419 -8.25,2.42038 -16.28572,4.67648 -17.85714,5.01356 -1.57143,0.33708 -7.35715,1.94477 -12.85715,3.57264 -5.5,1.62788 -14.82143,4.23672 -20.71428,5.79744 -5.89286,1.56072 -14.89286,4.0722 -20,5.58106 -10.64456,3.14485 -25.0944,7.17139 -43.57143,12.14148 -7.07143,1.90212 -15.10714,4.16123 -17.85714,5.02024 -2.75,0.859 -6.28572,1.8372 -7.85715,2.17377 -1.57143,0.33657 -7.35714,1.94137 -12.85714,3.5662 -5.5,1.62483 -11.15046,3.20873 -12.55659,3.51977 -1.40612,0.31104 -7.35972,1.88326 -13.23022,3.4938 -13.52486,3.7105 -13.67135,3.70237 -18.05495,-1.0003 l 0,0 z"
       id="path4513"
       inkscape:connector-curvature="0" />
    <text
       xml:space="preserve"
       style="font-size:20px;font-style:normal;font-weight:normal;line-height:125%;letter-spacing:0px;word-spacing:0px;fill:#000000;fill-opacity:1;stroke:none;font-family:Sans"
       x="271.42856"
       y="585.21936"
       id="text3023"
       sodipodi:linespacing="125%"><tspan
         sodipodi:role="line"
         id="tspan3025"
         x="271.42856"
         y="585.21936">glass slide box</tspan></text>
  </g>
</svg>
